<?xml version="1.0" encoding="utf-8"?>
<!-- Generator: Adobe Illustrator 19.0.0, SVG Export Plug-In . SVG Version: 6.00 Build 0)  -->
<svg version="1.1" id="Layer_1" xmlns="http://www.w3.org/2000/svg" xmlns:xlink="http://www.w3.org/1999/xlink" x="0px" y="0px"
	 viewBox="-278 155.8 283.5 283.5" style="enable-background:new -278 155.8 283.5 283.5;" xml:space="preserve">
<style type="text/css">
	.st0{fill:#FFFFFF;}
	.st1{fill:#C6AB95;}
	.st2{fill:#895936;}
	.st3{fill:#805232;}
	.st4{fill:#68533A;}
	.st5{opacity:0.2;}
	.st6{fill:#231F20;}
	.st7{opacity:0.25;}
	.st8{opacity:0.5;fill:#231F20;enable-background:new    ;}
	.st9{opacity:0.4;}
	.st10{opacity:0.9;fill:#231F20;enable-background:new    ;}
	.st11{opacity:0.25;fill:#231F20;enable-background:new    ;}
	.st12{opacity:0.2;fill:#231F20;enable-background:new    ;}
	.st13{fill:#5A4A42;}
	.st14{fill:none;}
	.st15{opacity:0.75;fill:#231F20;enable-background:new    ;}
	.st16{opacity:0.25;fill:#FFFFFF;enable-background:new    ;}
	.st17{opacity:0.1;fill:#FFFFFF;enable-background:new    ;}
	.st18{fill:none;stroke:#231F20;stroke-miterlimit:10;}
</style>
<g id="XMLID_4_">
	<circle id="XMLID_2_" class="st0" cx="-136.3" cy="297.5" r="141.7"/>
</g>
<path id="XMLID_183_" class="st1" d="M-81.4,278.6c2.7-5.8,5.5-11.6,8.2-17.4c1.4-3-4.3-8.8-9.4-11.5c0.1-0.6,0.2-1.2,0.1-1.7
	c-0.3-2.4-2.4-4.5-4.1-6.1c-1.4-1.3-2.9-2.5-4.6-3.5c-0.5-3.6-12.2-12.3-15.4-11.6c-3.7,0.8-7.3,1.7-10.9,2.7
	c-3.4-2.4-7.1-4-8.6-3.5c-0.3,0.1-0.6,0.2-0.8,0.3c-0.1-0.5-1.2-1.2-1.5-1.1c-0.4,0.2-0.8,0.5-1.2,0.7c-0.2-0.5-1.2-1.2-1.6-1
	l-0.9,0.6c-2.9-2-5.9-3.2-7.7-2.5l-3,1.3c-3.2-2.3-6.7-3.9-8.6-3.2c-2.6,0.9-5.1,2.1-7.6,3.4l4.4-5.2c0.3-0.3-1.2-1.6-1.6-1.2
	c-2.6,2.3-5.2,4.6-7.9,6.9c-1.3-0.5-2.5-0.6-3.3-0.2c-8.9,3.6-16.3,9.5-21.7,17.4c-0.3,0.5-0.4,1.1-0.3,1.7c0.1,0.7,0.1,1.5,0.2,2.2
	c-0.3,1.4-0.6,2.8-0.6,4.2c-0.1,0.1-0.3,0.2-0.3,0.4c-3.1,9-1.5,18.7-4.2,27.7c-0.3-2.4-0.6-5.1-2.6-6.7c-1.1-0.9-3-1.1-4,0.1
	c-1.3,1.5-1,4.2-1,6c0,1.9,0.1,3.8-0.1,5.7c-0.2,1.4-0.6,2.8-0.6,4.2l0,0c0,0.2-0.1,0.5-0.1,0.7c-0.3,1.2-0.6,2.4-1,3.6
	c-0.6,1.8-1.7,3.7-1.9,5.6c-0.1,2.2,0.7,4.2,0.5,6.4c-0.2,3.4,0.9,6.5,4.5,7.2c2.9,0.6,6.5-0.5,8.1-3l0,0c0.1,6.6-1.1,13.2-0.3,19.8
	c1,9.1,3.5,17.5,7.3,25.8c-0.7,0.3-1.3,1.1-1.2,2.2c0.3,5.1,0.6,10.3-0.1,15.4c-0.6,5.4-3.6,10.5-4.9,14.7c-0.7,2.3-1.8,3.7,0.6,4.8
	c4,1.9,12.3,2.8,16.7,3.4c20.5,3,41.3,4.6,61.6-0.4c1.1-0.3,2-1.3,2-2.4c0.3-6.1,0.4-13.3,1-19.7c0.9-9.5,2.6-18.5,5.2-27.8
	c0.2-0.7,0.1-1.3-0.2-1.8c3-5.7,5.5-11.1,7.2-17.3c2.7,5.4,9.2,3.8,12.6-0.1c3.2-3.6,4.3-7.4,4.9-11.4c0.1-0.1,0.1-0.2,0.2-0.2
	c0.3-1.2,0.5-2.3,0.7-3.5l0,0l0,0c0.1-0.1,0.3-0.3,0.3-0.4c0.2-0.7,0.2-1.4,0.1-2.1c0-0.1,0-0.1-0.1-0.2c0-0.5,0-1.1,0-1.6
	c0,0,0,0,0-0.1c0.1-0.6,0.2-1.2,0.4-1.8c0.2-0.7,0.1-1.3-0.2-1.7c-0.1-0.6-0.2-1.1-0.3-1.7c0.8-1.5,1.8-3,2.6-4.1
	c0.9-1.2,1.3-1.8,1.1-3.2c0-0.1,0-0.2,0-0.3c0-0.3,0-0.5,0-0.8c0.2-0.2,0.3-0.4,0.2-0.5c-1-2.1-4-1.2-6.1-0.2h-0.1c0,0,0,0-0.1,0
	c-0.4,0.2-0.8,0.4-1.2,0.6c-0.1,0-0.2,0.1-0.3,0.1c-0.8-4.1-0.8-8.4-0.9-12.6C-82.5,279.4-81.7,279.2-81.4,278.6z"/>
<path id="XMLID_84_" class="st2" d="M-135.9,348.4c-0.1,0-0.4,0-0.5,0.1c-0.1,0-1,0-1.1,0c-1.7-0.1-3.3-0.6-5-0.7
	c-0.2,0-0.4,0-0.6,0c-1.9-0.1-3.7-0.3-5.5-0.6c-3.3-0.5-6.6-0.5-9.9-1.1c-0.2,0-0.3-0.1-0.4-0.1c-0.7-0.2-1.4-0.2-2.1-0.3
	c-2.6-0.6-6.2-2-7.2-2.7c-0.1-0.1-0.2-0.1-0.2-0.1c-0.1-0.1-0.1-0.1-0.2-0.1c-0.5,0-0.5,0-0.5,0c0,0.1,0,0.2,0,0.2
	c0,0.1,0,0.2,0.1,0.3c0,0.1,0,0.2,0.1,0.3c0.1,0.3,0.1,0.5,0.2,0.7c0.5,0.9,0.9,1.3,1.6,1.8c0.6,0.7,1.5,1.4,2.4,1.4
	c0.1,0,0.2,0,0.3-0.1c0.3,0.1,0.5,0.3,0.8,0.4c2.2,0.9,4.6,1,6.9,1.4c0.6,0.1,1.3,0.3,1.9,0.4c0.1,0,0.1,0,0.2,0
	c4.1,0.9,8.5,1.3,12.7,0.9l0,0c1.1,0,2.1-0.2,3-0.5c1.2,0,2.3-0.1,2.5-0.9C-136.3,348.7-135.5,348.3-135.9,348.4z"/>
<path id="XMLID_87_" class="st3" d="M-132.8,344.4c0-0.2,0-0.3-0.2-0.4c-0.6-0.4-0.6-0.4-1.3-0.7c-0.1,0-0.2,0-0.3,0
	c-0.9-0.5-1.8-1-2.7-1.5c-0.8-0.6-1.6-1.1-2.4-1.6c-1.1-0.7-2.1-1.3-3.3-1.7c-0.8-0.3-1.7-0.6-2.6-0.6c-0.1,0-0.1,0-0.1,0
	c-0.1-0.1-0.3-0.1-0.4-0.1c-0.2,0.1-0.4,0.1-0.5,0.2c-0.7-0.1-1.4,0-1.8,0.8c-0.1,0-0.2-0.1-0.3,0c-0.4,0.1-0.7,0.1-1.1,0.3
	c0,0-0.1,0-0.1,0.1c-0.1,0-0.3,0.1-0.4,0.1c-0.1,0-0.2,0.1-0.2,0.2c0-0.2-0.2-0.3-0.4-0.4c0,0,0,0-0.1,0c0-0.3-0.3-0.5-0.6-0.4
	c0-0.1-0.1-0.3-0.3-0.3h-0.1l0,0l0,0c-0.1,0-0.2-0.1-0.4-0.1c-0.4-0.1-0.9-0.2-1.3-0.3h-0.1c-0.9-0.6-1.9-0.9-2.9-1
	c-1.7-0.6-3.5-0.9-5,0.2c-0.1,0.1-0.2,0.2-0.2,0.4h-0.1c-0.7,0.3-0.9,1-1.4,1.5c-0.7,0.9-1.6,1.6-2.4,2.2c-0.1,0.1-0.2,0.2-0.2,0.4
	c-0.1,0-0.3,0.1-0.4,0.1c-0.2,0-0.4,0.2-0.5,0.4c0,0,0,0.1-0.1,0.1l0,0c-0.3,0-1.1,0.3-0.5,0.3c0.1,0,0.2,0,0.4-0.1l0,0
	c0.4-0.1,0.7-0.2,1.1-0.1c0.1,0,0.2-0.1,0.3-0.2c0.1,0,0.2,0,0.3,0c0.4-0.2,0.8-0.2,1.3-0.2c0.1,0,0.2,0,0.3-0.1h0.1
	c0.7-0.3,1.4-0.5,2.1-0.7c0.8-0.3,1.3-0.8,2.3-0.8c0.2,0,0.3-0.1,0.3-0.2c0.1,0.1,0.2,0.1,0.3,0.2s0.2,0.1,0.3,0
	c1,0.8,2,1.5,3.2,1.8c1.3,0.3,2.7,0.1,4,0.2c0.2,0,0.3-0.1,0.4-0.2c0.4,0,0.9-0.1,1.3-0.2c0.7,0.1,1.4,0.1,2.1,0.2
	c0.1,0,0.1,0.1,0.2,0.1c0.1,0,0.3,0,0.4,0c0.2,0,0.3-0.1,0.4-0.2l0.1-0.1c0,0,0.1,0,0.2,0.1c0.1,0.2,0.2,0.3,0.4,0.3
	c0.9,0.1,1.7,0.1,2.6,0.1c0.2,0,0.5,0,0.7,0.1c0.1,0.1,0.2,0.2,0.3,0.2c1.1,0.2,1.7,0.4,2.7,0.9c0.1,0,0.1,0.1,0.2,0.1
	c0,0,0.1,0,0.1,0.1c0.1,0.1,0.3,0.1,0.4,0.1l0,0c0.1,0.1,0.2,0.1,0.3,0c0.6,0.5,1.2,0.9,2,1.1c0.1,0.1,0.2,0.2,0.3,0.2
	c0.5,0.1,0.9,0.1,1.4,0.2c0.2,0,0.3,0.1,0.5,0.1c0.1,0,0.2,0,0.3,0c0.3,0,0.6,0.1,0.8,0.1C-132.6,345.4-132.4,344.6-132.8,344.4z"/>
<path id="XMLID_98_" class="st4" d="M-66.7,246.8c0.1-0.1,0.1-0.2,0-0.3c-0.1-0.2-0.2-0.3-0.2-0.5c0-0.1,0-0.1-0.1-0.2
	c0,0-0.1-0.3-0.2-0.5c0-0.1-0.1-0.2-0.1-0.4l0,0c-1-3.1-2.6-6-4.2-8.8c-0.4-0.7-1-1.4-1.3-2.2c0.1,0.2-0.9-2.1-1-2.2
	c-0.3-0.3-0.6-1.1-1.2-1.8c-0.4-0.7-0.1,0-0.4-0.7c0-0.1-0.4-0.7-0.5-0.8c-0.6-1.1-1-1.6-1.5-2.6c0,0,0,0-0.1-0.1
	c-0.1-0.2-0.2-0.4-0.3-0.7c-1.2-3.9-3.3-8.7-6.9-10.8l0,0c-0.2-0.2-0.4-0.4-0.5-0.6c0,0-0.1,0-0.1-0.1c0.1-0.2,0-0.3-0.1-0.5
	l-0.1-0.1l0,0l0,0c-1.8-1.5-3.8-2.8-5.8-3.8c-0.5-0.5-1.1-0.8-1.8-1c-0.9-0.5-1.7-1-2.6-1.4c-1.2-0.8-2.5-1.4-3.9-1.9
	c0-0.2-0.1-0.4-0.3-0.5c-0.2,0-0.4-0.1-0.6-0.1c0-0.1-0.1-0.2-0.2-0.3c-0.3-0.2-0.5-0.3-0.8-0.5c-0.8-0.9-1.5-1.8-2.5-2.4
	c-0.3-0.2-0.3-0.3-0.6-0.4c-0.1-0.1-0.5-0.2-0.6-0.4c-0.2-0.2-0.4-0.2-0.6-0.1c-0.1,0-1.1-0.1-1.2,0c-0.6-0.1-0.2,0-0.8,0
	c-0.1-0.1-0.2-0.1-0.3-0.1c-0.7,0-1.4,0-2.1-0.1c-1.9-0.4-3.8-0.8-5.6-1.4c-0.1,0-0.2,0.1-0.3,0.2c-2.1-0.4-4.3-0.7-6.5-0.7
	c0,0-0.1,0-0.2,0.1c-3.8-0.2-7.7,0-11.5,0.3l0,0c-5,0.1-5,0.1-8.9,0.7c-2.2,0.3-6,0.8-9.3,1.4c-0.2,0-0.4,0.1-0.6,0.1
	c-0.3,0.1-0.6,0.1-0.9,0.2c-1.2,0.2-2.5,0.4-3.7,0.8c-0.6,0.1-1.1,0.4-1.5,0.7c-0.1-0.2-0.5-0.3-0.7-0.2c-0.1,0-0.1,0.1-0.2,0.1
	c-0.2-0.1-0.6-0.1-0.7,0.2c-0.1,0.2-0.2,0.4-0.3,0.6c-0.6,0.6-1,1.2-1.7,1.7c-0.7,0.4-1.5,0.7-2.2,1c-1.2,0.3-2.3,0.7-3.5,1.2
	c-0.2,0-0.3,0-0.5,0.2c-0.6,0.3-1.3,1.1-1.4,1.8c-0.2,1.4-1.4,1.9-2.2,2.7c-1.2,1.2-3.4,1.2-3.9,2.7c-0.3,0.2-0.7,0.5-0.9,0.8
	c0,0,0,0,0-0.1c0.7-0.6-1.7,0.8-2,1.3c-0.9,1.5-1.2,1.1-2.5,2.3c-0.7,0.7-1.4,0.9-2.4,1.8c-0.1,0.1-1.3,0.7-1.2,0.8
	c-0.6,0.3-0.9,0.6-1.2,0.8c0,0-0.5,0.3-0.6,0.4c-0.2-0.1-1.4,0.2-1.6,0.5c-0.5,0.8,0.7,1.7-2.1,3c-0.9,0.4,0.6,2.6,0.6,3.6
	c-0.1,2.9-0.7,2.3-0.7,5.3c0,0.1-1,4.3-0.9,4.4c-0.3,1.2,0.8,1.4,1,2.4c-0.2,0.3-0.4,0.7-0.5,1c-0.3-0.3-0.9-0.2-0.8,0.3
	c0.2,2.3-1.2,4.2-1.1,6.4l0,0c-1.3,5.2-1.9,10.5-1.9,15.8c0,5.1,0,10.5,1.1,15.5c0.1,0.6,1.1,0.4,1-0.3c-0.1-0.3-0.1-0.5-0.2-0.8
	c0.3,0.7,0.7,1.3,1.2,2c0.3,0.4,0.8,0.3,0.9-0.1c1-3,1.9-5.9,2.6-9c0-0.1,0-0.2,0-0.3l0,0c0.1-0.5,0.2-1,0.2-1.4
	c0.3-1.5,0.9-3,1.3-4.5c0.5-2,0.6-4.1,0.9-6.1c0.5-3.3,1.4-6.4,1.8-9.7l0,0l0,0v-0.1c0-0.1,0-0.1,0-0.2c0-0.1,0.1-0.1,0.1-0.2
	c0.3-0.9,0.4-1.5,0.5-2.1c0.2-0.8,0.4-1.6,0.7-2.4c0.2,0,0.4-0.1,0.5-0.3c0.3-1.4,0.6-2.7,1-4.1c0.3-0.7,0.5-1.4,0.8-2.2
	c0-0.1,0-0.2,0-0.3c0-0.1,0.1-0.2,0.1-0.3c0.6-1.2,1.6-2.4,2.6-3.4c0.5-0.2,1-0.4,1.5-0.6c1.2-0.4,1.8-1.3,2-2.3v-0.1
	c0.3,0,0.7,0,1.1-0.2c-0.3,1.6-0.7,3.1-0.8,4.7c0,0.3,0.3,0.5,0.5,0.5l0,0c0,0.1,0,0.1,0.1,0.2c-0.9,1.4-1.8,3-2,4.6
	c-0.1,0.6,0.8,0.6,1,0.1c0,0,0,0,0.1,0c0.4-0.2,0.7-0.4,1-0.7c-0.1,0.2,0,0.3,0.2,0.1c2.8-2.5,4.9-5.8,7.9-8.2c0,0.1,0.1,0.2,0.3,0
	c0.1-0.1,0.2-0.2,0.3-0.3c1-0.3,1.9-0.9,2.9-1.2c0.6-0.1,1.1-0.1,1.7-0.2c0.1,0.1,0.2,0.1,0.3,0.1c1.4,0.1,2.8,0,4.2-0.2
	c0.8,0,1.5-0.1,2.3-0.1c0.3,0,0.5-0.3,0.5-0.6c0.3-0.1,0.5-0.2,0.8-0.3c0.1,0.1,0.3,0.2,0.5,0.1c0.7-0.3,1.4-0.7,2.1-1
	c0.1,0.1,0.3,0.2,0.5,0c0.2-0.1,0.4-0.3,0.6-0.4c1.5-0.8,2.3-1.1,2.7-1.2c0,0.2-0.1,0.7-0.3,1.2l0,0c-0.1,0.2-0.2,0.3-0.2,0.5
	c0,0.1,0,0.1,0,0.1c-0.1,0.2-0.2,0.5-0.3,0.7v0.1c-0.1,0.1-0.1,0.3-0.2,0.4v0.1c0,0,0,0,0,0.1c0,0.1-0.1,0.1-0.1,0.2v0.1l0,0
	c-0.1,0.1-0.1,0.3-0.2,0.4c0,0,0,0.1-0.1,0.1v0.1c-0.1,0.2-0.1,0.2-0.2,0.4c0,0,0,0.1-0.1,0.1l0,0c0,0,0,0,0,0.1
	c-0.1,0.1-0.1,0.1-0.1,0.2c0,0,0,0,0,0.1c-0.1,0.1-0.2,0.4-0.4,0.7l-0.1,0.2c-0.3,0.5-0.5,0.8-1,1.6l-0.6,0.9c0,0,0,0-0.1,0.1
	c0,0-0.3,0.5-0.5,0.6c-0.1,0.1-0.1,0.1-0.1,0.2l-0.1,0.1c-0.2,0.2-0.3,0.4-0.5,0.6c-0.1,0.1-0.2,0.1-0.2,0.2c-0.3,0.3-0.5,0.6-1,1.1
	c-0.2,0.2-0.5,0.5-0.6,0.6c-0.1,0.1-0.4,0.3-0.3,0.4c0,0,0.4-0.2,0.6-0.3c0.6-0.3,1.6-0.9,2.2-1.2c-0.3,0.3-0.8,0.7-1.2,1.2
	c-0.1,0.1-0.2,0.2-0.3,0.3c-0.1,0.1,0,0.1-0.1,0.2c-0.1,0.1-0.1,0.2-0.2,0.2c-0.1,0-0.2,0.3-0.2,0.4c-0.2,0.4-0.3,0.5-0.4,0.8
	c-0.3,0.9-0.3,0.9-0.1,0.7l0.8-0.7c0.1-0.1,0.5-0.5,0.5-0.5c0.1,0,0.5-0.3,0.5-0.4c0.1-0.2,0.8-0.7,0.9-0.8c0.7-0.6,0.9-0.7,1.3-1.2
	c0,0,2.3-2,2.4-2c0.4-0.3,0.7-0.6,1.6-1.3c-0.2,0.5-0.2,0.6-0.4,1.1c-0.1,0.3-0.3,0.9-0.5,1.2c-0.2,0.4-0.9,1.8-1.2,2.1
	c-0.4,0.5-5.2,6.1-4.7,5.6c0.3-0.3,5.6-5.7,6.1-6.2c0.3-0.2,0.8-0.7,1-0.8c0.7-0.5,1.4-0.9,2.2-1.4c0.1-0.1,0.4-0.2,0.5-0.3
	s1.1-0.5,1.2-0.6c0.9-0.2,3.2-0.8,3.5-0.6c0.4,0.3,1,1.3,1.3,1.3c0.1,0,0.4-0.5,0.9-0.9c0,0,1.6-0.4,2.6-0.4s1.4,0.1,1.6,0
	c-0.2,0.2,0.2-0.1,0,0.1c-0.6,0.7-1.2,1.4-1.8,2.1c-0.3,0.1-0.5,0.3-0.8,0.5c-0.5,0.4-0.8,0.8-1.2,1.3c-8.6,9.3-6,7.8,1.5,2.6
	c0.5-0.3,0.9-0.9,1.3-1.4c0.1,0,0.1,0,0.2-0.1c1-0.4,1.8-0.8,2.7-1.4c0.1-0.1,0.3-0.2,0.4-0.3c1.8-1,3.5-2,5.3-3
	c0.2-0.1,0.3-0.2,0.5-0.4c1.2-0.5,2.5-0.9,3.7-1.4c0.1,0,0.3,0.1,0.4,0.1c-0.2,0.4-0.5,0.8-0.6,1.2c-0.7,1.3,0.6,2.5,1.7,2.2
	c0.2,0,0.5,0.1,0.7,0c1.3-0.4,2.5-1,3.8-1.5c1.9-0.1,4.1-0.7,5.9-0.6c0.5,0,0.8,0.1,1,0.3c-0.5,0.9-0.2,2.4,1.2,2.2
	c0.1,0,0.2,0,0.3,0c0.8,0.1,1.6,0,2.4,0c0.6,0.6,1.2,1.2,1.7,1.9c0,0,0,0.1,0.1,0.1c0.2,0.3,0.5,0.5,0.8,0.7
	c-0.1,0.1-0.1,0.1-0.2,0.2c-0.1,0.1-0.5,0.8-0.1,0.5c0.2-0.1,0.5-0.3,0.7-0.4c0.3,0.2,0.6,0.4,0.9,0.5c0.2,0.1,0.3,0.1,0.5,0.2
	c-0.2,0.2-0.3,0.4-0.5,0.6c-0.4,0.4-0.1,0.7,0.3,0.2c0.1-0.2,0.3-0.3,0.4-0.5c-0.1,0.2,0.1,0.2,0.3,0.1l0.1-0.1
	c0.5,0.3,0.8,0.6,1.2,0.9c-0.1,0.1-0.1,0.2,0,0.3l1.3,1.1c0.4,0.5,0.8,0.9,1.3,1.4l0,0c0.1,0.3,0,0.1,0.1,0.4
	c-0.1,0.2,0,0.3-0.1,0.4c-0.2,0.5-1.3,1.6-1.9,2.2c-0.2,0.1-0.3,0.3-0.5,0.5c-0.7,0.5-1.3,1.2-1.8,1.7l0,0c-0.4,0.3-0.8,0.5-1.2,0.8
	c-0.5,0.4,0,1.2,0.5,0.9c0.5-0.4,1.1-0.7,1.6-1.1c0.2,0.2,0.4,0.3,0.6,0.1c0.4-0.3,0.7-0.5,1.1-0.7c1.3-0.5,2.6-1,3.9-1.6
	c0,0.4,0,0.7,0,1.1c-0.2,0.3-0.5,0.5-0.7,0.8l0,0l0,0l-0.1,0.1c-0.4,0.5,0.4,1,0.8,0.6l0,0v0.1c0,0.2,0.6-0.4,0.6-0.4
	c0.1-0.1,0.1-0.3,0.2-0.4c0.1-0.1,0.2-0.1,0.2-0.2c0,0.3,0,0.5,0,0.8c0,0,0,0.1,0.1,0c0.1,0.3-1.2,0.8-1.1,1.1
	c-2.8,2.6-5.7,4.4-9,6.4c-0.5,0.3-4.7,2.1-4.1,1.8c0.1,0,2.2,0.3,2.3,0.2c0.1,0.1,4.3-0.5,4.5-0.6c4.6-1.4,6.6-2.5,8.4-4.8
	c0.3-0.4,0.8-1.2,0.8-1.3l0.2-0.4c0.1,0,0.1-0.5,0.3-0.6l0,0c0,0.1,0.1,0,0.3-0.1c0,0.2,0.1,0.3,0.1,0.5c0,0.1,0.1,0,0.3-0.1
	c0.1,0.1,0.1,0.2,0.2,0.3c0,0,0.1,0,0.2-0.1c0.2,1,0.3,2.1,0.3,3.1c0,0.4,0,0.7,0,1.1c-0.2,0.6-0.1,1.3-0.1,1.9c0,0,0,0,0.1,0
	c-0.2,2.4,0.2,4.9,0.1,7.3c0,0.1,0,0.2,0.1,0.3c0,0,0,0.1-0.1,0.2c-0.5,2.4-0.4,5-0.6,7.4c0,0.1,0,0.2,0,0.2v0.1
	c-0.2,2.1-0.4,4.2-0.5,6.3v0.1c-0.1,0.1-0.2,0.2-0.2,0.4c0,0.2,0,0.3,0.1,0.4c-0.1,0.1-0.1,0.2-0.1,0.3c0.1,2.1-0.1,4.2,0,6.3v0.1
	c0,0.1-0.1,0.1,0,0.2c0,0.8,0.1,1.6,0.1,2.4c0,0.6,1,0.6,1,0c-0.1-0.8-0.1-1.6-0.1-2.4v-0.1c0-0.1,0.1-0.1,0.1-0.2c0,0,0,0,0-0.1
	c0.2,0,0.5-0.2,0.5-0.5c0.2-1.9,0.6-3.8,1-5.7c0-0.1,0-0.2-0.1-0.3c0.2-0.1,0.4-0.2,0.4-0.4l0,0c0-0.2-0.1-0.3-0.2-0.4
	c0.3-0.9,0.3-1.7,0.4-2.7c0.1-1.4,0.5-2.8,0.7-4.3c0-0.2-0.1-0.3-0.3-0.4c0.1-0.2,0.1-0.5,0.1-0.7c0.1-1,0-2.1,0-3.1
	c0.2-0.1,0.3-0.2,0.3-0.4c0-0.3,0-0.6,0-0.9c0-0.2-0.1-0.4-0.3-0.4c0-0.1,0-0.3,0-0.4c0.2,0,0.5-0.2,0.5-0.5c0-0.7-0.1-1.3-0.1-2
	c0.2,1.2,0.5,2.5,0.9,3.7c-0.3,0.2-0.5,0.6-0.5,1.1c-0.1,1-0.1,1.9,0,2.8v0.8c0,0.1,0,0.2,0.1,0.3c0,0.4,0.1,0.8,0.2,1.1
	c-0.1,2.1-0.5,4.1-1,6.2c0,0.1,0,0.2,0,0.3v0.1c0,0.5,0,1,0,1.5c-0.2,0.8-0.3,1.6-0.5,2.4c-0.3,1.4-0.7,2.8-1,4.2
	c-0.3,0.5-0.6,0.9-0.9,1.4c-0.2,0.3,0,0.6,0.2,0.7c0.1,0.3,0.4,0.5,0.7,0.4c0.1,0,0.2-0.1,0.3-0.1c2.8-1,5.5-2.3,7-5.1
	c0.1-0.2,0.1-0.3,0-0.2c0.2-0.3,0.4-0.6,0.5-0.9c1.1-1.5,1.6-3.7,1.9-5.5c0.1-0.1,0.1-0.1,0.1-0.2c0.1-0.1,0.2-0.2,0.2-0.4
	c0.3-2.8,1.5-5.1,1.8-7.8c0.6-2.3,0.4-4.9,1.2-7.2c0-0.1,0-0.2,0-0.3c0.2,0,0.3-0.1,0.4-0.3c0.4-1.1,0.8-2.1,1.2-3.2
	c0.2-0.7,0.3-1.5,0.4-2.2c0.1-0.1,0.3-0.3,0.3-0.4c0.5-1.8,0.9-3.7,1.2-5.6c0.2-0.4,0.3-0.7,0.4-1.1c0.3,0,1,0,1-0.1
	c0.1,0,0.3-0.4,0.4-0.5c0.1-0.1,0.2-0.3,0.2-0.4c0.1-0.2,0.2-0.5,0.3-0.7c0.1-0.4,0.2-0.7,0.3-1.3l0.1-0.6c0.1-0.7,0.1-1.1,0-1.3
	v-0.4c0-0.2,0-0.6,0-0.6C-66.7,247-66.7,246.9-66.7,246.8z"/>
<path id="XMLID_63_" class="st0" d="M-154.1,288.3c0-0.4-0.1-0.8-0.1-1.2c-0.5-2.4-1.8-4.1-2.8-5.7c-0.9-1.4-2-3-3.8-4
	c-2.4-1.2-5.8-0.9-8.4-0.7c-5.8,0.6-8,4.8-8.5,10.1c-0.4,4.7,2.7,10.5,7.5,11.8c0.9,0.2,1.7,0.2,2.4,0.1c2.2,0.4,4.4,0,6.5-0.8
	c1.6-0.6,2.7-1.7,4-2.6c0.8-0.3,1.6-0.8,2.2-1.6C-153.8,292.1-153.3,290.1-154.1,288.3z"/>
<path id="XMLID_64_" class="st0" d="M-111.1,288.4c-0.3-0.6-0.7-1.1-1.2-1.5c-0.3-0.5-0.5-1-0.8-1.5c-1.7-2.9-3.6-4.2-6.9-4.6
	c-0.4-0.1-0.8,0-1.2,0c-2.2-0.3-4.4-0.2-6.9,0.8c-4.5,1.7-5.8,5.6-5.8,10.1c0,4,1.7,7.5,5,9.8c2.9,2,7.1,2.7,10.3,0.9
	c2.5-0.9,4.5-2.3,6.2-4.3c0,0,0.1,0,0.1-0.1c0.1-0.1,0.2-0.2,0.3-0.4l0,0c0.3-0.3,0.5-0.7,0.8-1c0.7-1,0.9-2,0.8-2.9
	C-109.9,291.9-110.2,290.2-111.1,288.4z"/>
<g id="XMLID_42_" class="st5">
	<path id="XMLID_179_" class="st6" d="M-110.6,290.5c0,0,0.1,0.4,0.2,1.1c0.1,0.7,0.3,1.7,0.2,2.9c0,0.1,0,0.3-0.1,0.5
		c0,0.2-0.1,0.3-0.1,0.5c0,0.2-0.1,0.3-0.2,0.5c-0.1,0.2-0.2,0.3-0.2,0.5c-0.3,0.6-0.6,1.3-1.1,1.9c-0.4,0.6-1,1.2-1.6,1.7
		s-1.4,0.9-2.1,1.2c-0.4,0.2-0.8,0.3-1.1,0.4s-0.7,0.3-1,0.4c-0.4,0.2-0.7,0.3-1.1,0.5l-0.5,0.2c-0.2,0.1-0.4,0.1-0.6,0.1
		c-0.4,0-0.8,0-1.1,0s-0.7,0-1,0c-0.7,0.1-1.3,0.1-1.9,0.1c-0.6,0-1.1-0.2-1.6-0.3s-0.9-0.3-1.2-0.4c-0.6-0.3-1-0.5-1-0.5
		s0.4,0.2,1,0.4c0.6,0.2,1.6,0.4,2.8,0.4c0.6,0,1.2-0.1,1.8-0.2c0.7-0.1,1.5-0.1,2.1-0.2c0.2,0,0.3-0.1,0.4-0.1l0.5-0.2
		c0.3-0.2,0.7-0.3,1-0.5c0.4-0.2,0.7-0.3,1.1-0.5c0.4-0.2,0.8-0.2,1.1-0.4c0.7-0.3,1.3-0.6,1.9-1.1c0.6-0.5,1.1-0.9,1.5-1.5
		s0.8-1.1,1.1-1.7c0.1-0.1,0.2-0.3,0.2-0.4c0.1-0.1,0.1-0.3,0.2-0.4c0.1-0.1,0.1-0.3,0.2-0.4c0.1-0.1,0.1-0.2,0.1-0.4
		c0.1-1.1,0.2-2.1,0.1-2.8C-110.6,290.9-110.6,290.5-110.6,290.5z"/>
</g>
<g id="XMLID_53_" class="st5">
	<path id="XMLID_177_" class="st6" d="M-154.4,290.3c0,0,0,0.4,0,1c-0.1,0.6-0.3,1.5-0.8,2.5c-0.3,0.5-0.6,1-1.1,1.5
		c-0.4,0.4-0.9,0.9-1.5,1.3c-1.1,0.8-2.4,1.6-3.7,2.1c-1.4,0.5-2.8,0.8-4.2,0.9c-0.7,0-1.4,0-2-0.1s-1.2-0.3-1.7-0.5
		c-0.5-0.2-1-0.4-1.3-0.6c-0.4-0.2-0.7-0.4-1-0.6c-0.2-0.2-0.4-0.4-0.5-0.5s-0.2-0.1-0.2-0.1s0.1,0,0.3,0s0.4,0.2,0.7,0.3
		c0.2,0.1,0.6,0.2,1,0.2c0.4,0.1,0.9,0.1,1.4,0.2c0.5,0.1,1,0.1,1.6,0.1c0.5,0,1.1-0.1,1.7-0.2c1.2-0.2,2.5-0.6,3.7-1
		c1.2-0.5,2.4-1,3.4-1.6c0.5-0.3,1-0.6,1.5-1c0.4-0.3,0.8-0.7,1.1-1c0.6-0.7,1.1-1.4,1.4-2C-154.5,290.7-154.4,290.3-154.4,290.3z"
		/>
</g>
<g id="XMLID_65_" class="st7">
	<path id="XMLID_173_" class="st6" d="M-161.7,317.9c0,0,0-0.3-0.1-0.8c-0.1-0.5-0.2-1.2-0.2-2.2c0-0.9,0.3-2.2,1-3.3
		c0.7-1.1,1.7-2.2,2.6-3.5c0.5-0.6,1-1.3,1.5-1.9c0.2-0.3,0.4-0.6,0.6-1.1c0.2-0.4,0.3-0.7,0.4-1.1c0.5-1.6,0.7-3.5,1.1-5.5
		c0.2-1,0.4-2,0.9-3.1c0.4-1,1.1-2,1.7-2.9c0.6-0.8,1.2-1.6,1.6-2.5c0.4-0.9,0.6-1.8,0.7-2.7c0.2-1.9-0.3-3.9-1.2-5.5
		c-0.9-1.7-2.3-3.1-3.8-4.2c-1.5-1-3.3-1.8-4.9-2.4c-1.7-0.6-3.3-1-4.8-1.3c-3.1-0.5-5.7-0.6-7.5-0.5c-1.8,0.1-2.9,0.3-2.9,0.3
		s0.3-0.1,0.7-0.2c0.5-0.1,1.2-0.3,2.1-0.5c1.8-0.3,4.5-0.6,7.8-0.3c1.6,0.2,3.3,0.5,5.1,1c1.8,0.6,3.6,1.2,5.4,2.4
		c1.8,1.1,3.4,2.7,4.5,4.7s1.7,4.3,1.5,6.6c-0.1,1.2-0.4,2.3-0.9,3.4c-0.5,1.1-1.2,2-1.8,2.8c-0.6,0.8-1.2,1.6-1.5,2.4
		c-0.4,0.8-0.6,1.8-0.8,2.7c-0.4,1.9-0.7,3.8-1.4,5.7c-0.2,0.4-0.4,0.9-0.6,1.3s-0.5,0.8-0.8,1.2c-0.6,0.7-1.1,1.3-1.7,1.9
		c-1,1.2-2.1,2.2-2.9,3.2c-0.8,1-1.1,2-1.2,2.9c-0.1,0.9-0.1,1.6-0.1,2.1C-161.7,317.7-161.7,317.9-161.7,317.9z"/>
</g>
<g id="XMLID_78_" class="st5">
	<path id="XMLID_169_" class="st6" d="M-199.3,271.3c0,0,0.2-0.1,0.5-0.1s0.9,0,1.4,0.3c0.6,0.3,1.2,0.8,1.7,1.6
		c0.4,0.8,0.7,1.8,0.9,2.9s0.3,2.2,0.5,3.4c0.1,0.6,0.2,1.3,0.2,2c0,0.7-0.2,1.5-0.4,2.1c-0.2,0.6-0.2,1-0.1,1.6s0.3,1.3,0.5,2
		c0.3,1.4,0.6,2.8,0.8,4.3c0.4,2.9,0.5,5.8,0.5,8.5c0,1.4-0.1,2.7-0.2,3.9c-0.1,1.2-0.2,2.4-0.3,3.5c-0.1,0.5-0.2,1.1-0.3,1.5
		c0,0.3-0.2,0.6-0.4,0.8c-0.2,0.2-0.4,0.3-0.6,0.4c-0.4,0.2-0.7,0.4-1.1,0.6c-0.2,0.1-0.3,0.2-0.5,0.2c-0.2,0.1-0.4,0.1-0.5,0.1
		c-0.6,0.1-1.1,0-1.5,0c-0.3,0-0.5,0-0.5,0s0.2,0,0.5,0c0.3,0,0.8-0.1,1.4-0.2c0.2,0,0.3-0.1,0.4-0.2c0.1-0.1,0.3-0.2,0.4-0.3
		c0.3-0.2,0.6-0.4,1-0.7c0.2-0.1,0.4-0.3,0.5-0.4s0.1-0.3,0.1-0.5c0-0.5,0-1,0-1.5c0-1-0.1-2.2-0.1-3.4c0-1.2-0.1-2.5-0.2-3.8
		c-0.1-1.3-0.2-2.7-0.3-4.1s-0.3-2.8-0.5-4.2s-0.4-2.8-0.7-4.1c-0.1-0.7-0.3-1.3-0.4-2.1c-0.1-0.7-0.1-1.8,0.2-2.4
		c0.3-0.7,0.4-1.1,0.5-1.7c0.1-0.6,0-1.2,0-1.8c0-1.2,0-2.4,0-3.5c0-0.6,0-1-0.1-1.5s-0.2-0.9-0.4-1.3c-0.3-0.8-0.8-1.3-1.3-1.6
		c-0.5-0.3-1-0.4-1.3-0.4C-199.1,271.3-199.3,271.3-199.3,271.3z"/>
</g>
<g id="XMLID_100_" class="st5">
	<path id="XMLID_166_" class="st6" d="M-198.8,292.9c0,0,0,0.2,0,0.5c0,0.3,0.1,0.8,0.2,1.3c0,0.3,0.1,0.6,0.2,0.9
		c0,0.2,0,0.3,0.1,0.4c0,0.1,0,0,0.1,0.1s0.2,0.2,0.4,0.4c0.2,0.2,0.4,0.6,0.4,0.8c0.1,0.2,0.1,0.3,0.1,0.3c0,0.1,0.1,0.1,0.1,0.2
		c0.1,0.1,0.2,0.2,0.4,0.2c0.2,0,0.5,0,0.8,0c0.4,0,0.7-0.1,1-0.1c0.3,0,0.7,0,0.8,0s0.1,0,0.2,0c0.1,0,0.1-0.1,0.2-0.2
		c0.1-0.1,0.2-0.3,0.3-0.5c0.1-0.3,0.2-0.5,0.2-0.5s0.1,0.2,0.2,0.5c0,0.2,0.1,0.4,0.1,0.7c0,0.1,0,0.3-0.1,0.5
		c-0.1,0.2-0.3,0.4-0.4,0.5c-0.4,0.3-0.7,0.3-1,0.5c-0.3,0.1-0.6,0.2-1,0.4c-0.3,0.1-0.8,0.3-1.3,0.2c-0.6,0-1.2-0.2-1.7-0.7
		c-0.2-0.2-0.4-0.5-0.5-0.7c-0.2-0.3-0.2-0.6-0.2-0.7c0-0.1,0-0.1,0-0.2c-0.1-0.1-0.2-0.2-0.3-0.5c-0.2-0.2-0.3-0.6-0.3-0.9
		s0-0.5,0-0.6c0.1-0.3,0.1-0.6,0.2-0.9c0.1-0.6,0.4-1.1,0.6-1.4C-199,293-198.8,292.9-198.8,292.9z"/>
</g>
<g id="XMLID_107_" class="st5">
	<path id="XMLID_163_" class="st6" d="M-93.1,314.3c0.3-0.1,0.5-0.2,0.8-0.3c0.2-0.1,0.5-0.2,0.7-0.4l0.2-0.2l0.3,0.3
		c0.3,0.4,0.6,0.8,0.9,1.2c0.1,0.2,0.3,0.4,0.4,0.6c0.1,0.2,0.2,0.2,0.1,0.1c0,0,0.1,0,0.2,0c0.2,0,0.1,0,0.2-0.1
		c0.1,0,0.1,0,0.2-0.1c0.3-0.1,0.5-0.3,0.7-0.6c0.2-0.3,0.4-0.6,0.6-1l0.6-1.3c0.2-0.4,0.5-0.8,0.6-1.1c0-0.2,0-0.3,0-0.5
		c-0.1-0.2-0.2-0.4-0.4-0.5c0.2-0.1,0.6,0,0.8,0.2c0.3,0.2,0.4,0.5,0.5,0.8c0.1,0.3,0.1,0.6,0.1,0.9s-0.1,0.5-0.1,0.8
		c-0.1,0.5-0.2,1-0.4,1.5s-0.4,1-0.8,1.5c-0.4,0.5-0.9,0.9-1.5,1.2c-0.2,0.1-0.3,0.1-0.5,0.1c-0.1,0-0.4,0.1-0.5,0
		c-0.4,0-0.8-0.1-1.2-0.3c-0.5-0.3-0.6-0.8-0.7-1.1c-0.1-0.2-0.1-0.5-0.1-0.7c-0.1-0.5-0.2-1-0.2-1.5l0.4,0.1
		c-0.3,0.2-0.6,0.2-0.9,0.2C-92.5,314.3-92.8,314.3-93.1,314.3z"/>
</g>
<path id="XMLID_124_" class="st8" d="M-154,321.5c-0.3-0.3-0.2-0.6-0.5-0.8c0-0.1,0-0.2-0.1-0.2c0.1-0.3,0.1-0.6-0.3-0.7h-0.1
	c0.1-0.2,0-0.5-0.2-0.7c0.1-0.2,0.1-0.4,0.1-0.6c0.3-0.3,0-0.8-0.4-0.8c-0.4-0.1-0.8-0.1-1.2,0c-0.3,0-0.5,0.3-0.5,0.5h-0.1
	c-0.3,0.2-0.3,0.5-0.1,0.7l0,0c-0.3,0.1-0.3,0.4-0.2,0.7c-0.2,0.1-0.2,0.4-0.1,0.6c-0.2,0.2-0.2,0.5,0,0.7c-0.2,0.3,0,0.7,0.3,0.8
	l0.1,0.1c0.2,0.2,0.5,0.2,0.7,0.2c0.5,0.1,1,0.2,1.5,0.3c0.2,0,0.3,0,0.4-0.1C-154.3,322.3-153.7,321.9-154,321.5z"/>
<path id="XMLID_129_" class="st8" d="M-141.3,323.2C-141.3,323.1-141.3,323.1-141.3,323.2c0-1.1,0.1-3.2-0.9-3.3
	c-0.6-0.1-1.4,0.4-1.9,0.6c-0.7,0.3-1.4,0.7-2.1,1.1c-0.3,0-0.5,0-0.8,0c-0.6,0.1-0.6,1.1,0,1c0.1,0,0.1,0,0.2,0
	c0.1,0.1,0.2,0.2,0.4,0.2c0.9,0.1,1.7,0.2,2.6,0.4c0.7,0.2,1.4,0.5,2.1,0.6C-141.4,324-141.1,323.5-141.3,323.2z"/>
<g id="XMLID_108_" class="st5">
	<path id="XMLID_161_" class="st6" d="M-158,315.7c0,0-0.1-0.2-0.1-0.6c0-0.4,0.1-1,0.4-1.6s0.7-1.3,1.1-2c0.4-0.7,1-1.4,1.5-2.1
		c0.6-0.7,1.1-1.3,1.7-1.9c0.3-0.3,0.6-0.6,0.9-0.8c0.3-0.3,0.6-0.5,0.6-0.6c0-0.2-0.1-0.5-0.2-0.7c-0.1-0.3-0.2-0.5-0.2-0.7
		c-0.1-0.4-0.2-0.6-0.2-0.6s0.1,0.2,0.4,0.5c0.1,0.2,0.2,0.3,0.4,0.6c0.1,0.2,0.4,0.4,0.4,0.9c0,0.3-0.1,0.5-0.3,0.7
		c-0.1,0.1-0.2,0.3-0.4,0.4c-0.2,0.3-0.5,0.6-0.7,0.9c-0.5,0.6-1,1.3-1.6,2c-0.5,0.7-1.1,1.3-1.6,2c-0.5,0.6-1,1.2-1.3,1.7
		c-0.4,0.5-0.6,1-0.7,1.3C-158,315.5-158,315.7-158,315.7z"/>
</g>
<g id="XMLID_121_" class="st7">
	<path id="XMLID_158_" class="st6" d="M-154.3,321.7c-0.4,0-0.9-0.2-1.2-0.5c-0.3-0.3-0.6-0.6-0.8-1c-0.4-0.8-0.4-1.7,0-2.5l0.4,0.8
		c-0.1-0.1-0.2-0.3-0.4-0.4c-0.2-0.2-0.4-0.3-0.7-0.5c0.2-0.3,0.5-0.4,0.8-0.5s0.7-0.1,1,0.1l0.3,0.1l0.1,0.7
		c0.1,0.6,0.2,1.1,0.2,1.6c0,0.3,0.1,0.6,0.1,0.9c0,0.2,0,0.3,0,0.5C-154.3,321.3-154.3,321.5-154.3,321.7z"/>
</g>
<g id="XMLID_132_" class="st7">
	<path id="XMLID_156_" class="st6" d="M-141.6,323.6c-0.2-0.3-0.4-0.6-0.5-0.8c-0.1-0.3-0.3-0.5-0.4-0.8c-0.2-0.5-0.4-1-0.5-1.6
		l0.4,0.6c0.1,0.1,0.2,0.1,0.2,0.1l0,0h-0.1h-0.2h-0.1h-0.3c-0.5,0-0.9,0.1-1.6,0.1c0.1-0.7,0.5-1.2,1-1.6c0.1-0.1,0.3-0.2,0.4-0.2
		c0.1,0,0.1-0.1,0.2-0.1l0.2-0.1c0.1,0,0.2-0.1,0.3-0.1s0.2,0,0.3,0c0.3,0,0.6,0.1,0.9,0.3l0.3,0.2l0.1,0.4c0.1,0.6,0.2,1.2,0.1,1.8
		c0,0.3-0.1,0.6-0.2,0.9C-141.3,323.1-141.4,323.4-141.6,323.6z"/>
</g>
<path id="XMLID_139_" class="st8" d="M-86.4,312.9c-0.3,0.5-1.3,2.7-2.4,3.4c-0.1,0-0.8,0-1.1,0c-0.1-0.1-0.8-1.4-1.4-1.8
	c-0.8-0.6-0.7,0.7-0.5,1.1c0.3,0.6,0.2,1,0.8,1.4c0.1,0.1,0.3,0.1,0.4,0.2c0.7,0.6,1.9,0.4,2.6-0.1c1.1-0.8,1.8-2.4,2.5-3.6
	C-85.2,312.8-86.1,312.3-86.4,312.9z"/>
<path id="XMLID_140_" class="st8" d="M-193.6,297.3c-0.5,0.3-1.3,0.7-2.1,0.8c-0.1-0.1-0.3-0.2-0.5-0.1c-0.4,0.1-0.7,0.2-1.1,0.3
	h-0.1c-1.6-0.4-1.8-2.5-1.8-3.8c0-0.6-1-0.6-1,0c0,1.6,0.3,4,2.1,4.7c1.6,0.6,3.7,0.1,4.9-0.9l0,0l0,0c0,0,0.1,0,0.1-0.1
	C-192.5,297.7-193.1,297-193.6,297.3z"/>
<g id="XMLID_135_" class="st5">
	<path id="XMLID_154_" class="st6" d="M-144.9,361.5c0,0-0.2-0.1-0.6-0.3c-0.4-0.2-0.9-0.5-1.6-0.9c-0.3-0.2-0.7-0.4-1-0.5
		c-0.2-0.1-0.4-0.2-0.6-0.2c-0.2-0.1-0.3-0.1-0.7-0.3c-0.7-0.4-0.5-0.3-1.2-0.5l-0.4-0.2c-0.1,0-0.1-0.1-0.2-0.1c-0.1-0.1,0,0,0,0
		c-0.1,0-0.2-0.1-0.4-0.2c-0.5-0.3-0.2-0.1-0.3-0.2c-0.1,0-0.3-0.1-0.5-0.2c-0.3-0.1-0.5-0.2-0.7-0.2c-0.4-0.2-0.9-0.3-1.3-0.4
		c-0.4-0.1-0.8-0.3-1.2-0.4c-0.4-0.1-0.8-0.2-1.1-0.3c-0.7-0.2-1.3-0.4-1.7-0.5c-0.4-0.1-0.7-0.2-0.7-0.2s0.2-0.1,0.7-0.2
		c0.4-0.1,1.1-0.2,1.9-0.3c0.4,0,0.8,0,1.3,0c0.4,0,0.9,0.1,1.4,0.2c0.5,0.1,1,0.2,1.5,0.3l0.7,0.2c0.2,0.1,0.5,0.1,0.9,0.3
		c0.1,0,0.6,0.4,0.3,0.2c0,0,0.1,0,0.3,0.1l0.3,0.2h0.1l0.3,0.1l0.3,0.1c0.1,0.1,0.3,0.1,0.4,0.2c0.2,0.1,0.3,0.2,0.4,0.3l0.2,0.2
		c0.1,0.1,0.3,0.2,0.5,0.4c0.2,0.1,0.4,0.3,0.6,0.4c0.4,0.3,0.7,0.6,0.9,0.9c0.5,0.6,0.9,1.1,1.1,1.5
		C-145,361.2-144.9,361.5-144.9,361.5z"/>
</g>
<g id="XMLID_58_" class="st7">
	<path id="XMLID_152_" class="st0" d="M-136.5,348.3c0,0-0.5,0.1-1.4,0.3c-0.9,0.1-2.2,0.3-3.8,0.4s-3.4,0.1-5.3-0.1
		c-1-0.1-2-0.1-3-0.3c-1-0.1-2-0.2-3-0.3l-1.5-0.2c-0.5-0.1-1-0.1-1.6-0.2c-0.4-0.1-0.9-0.1-1.4-0.2l-0.4-0.1l-0.4-0.1
		c-0.3-0.1-0.5-0.1-0.8-0.2c-2-0.5-3.7-1.1-5.1-1.7c-0.7-0.3-1.4-0.7-1.9-1c-0.6-0.3-1-0.7-1.4-1c-0.4-0.3-0.6-0.6-0.7-0.8
		c-0.2-0.2-0.2-0.3-0.2-0.3s0.1,0.1,0.3,0.2c0.2,0.1,0.5,0.3,0.9,0.4c0.4,0.2,0.9,0.3,1.5,0.4c0.6,0.2,1.3,0.3,2,0.4
		c1.5,0.3,3.2,0.5,5.1,0.7c0.9,0.1,1.8,0.1,3,0.2c1,0.1,2,0.1,3,0.2c1.1,0.1,2.1,0.3,3.1,0.4c1,0.1,2,0.3,2.9,0.5
		c1.9,0.3,3.6,0.7,5.2,1c1.5,0.3,2.8,0.6,3.7,0.8C-137.1,348.2-136.5,348.3-136.5,348.3z"/>
</g>
<g id="XMLID_82_" class="st9">
	<path id="XMLID_150_" class="st6" d="M-166.7,342.4c0,0,0.5-0.2,1.4-0.5c0.9-0.3,2-0.8,3.4-1.6c0.7-0.4,1.4-0.9,2.5-1.1
		c0.6-0.1,1.2,0,1.8,0.4c0.3,0.2,0.5,0.4,0.7,0.6c0.1,0.1,0.2,0.2,0.4,0.2c0.1,0.1,0.4,0.1,0.5,0.2l0.7,0.2c0.4,0.1,0.9,0.1,1.4,0.2
		c1,0.1,1.9,0,3-0.1c1-0.1,2.1-0.2,3.1-0.2c1-0.1,2.1-0.1,3.1,0.1c1,0.1,2,0.4,2.9,0.7c0.9,0.3,1.7,0.7,2.4,1
		c2.8,1.4,4.7,2.4,4.7,2.4s-2.1-0.4-5.1-1.4c-0.7-0.2-1.6-0.4-2.4-0.6c-0.8-0.2-1.7-0.3-2.6-0.3c-0.9,0-1.9,0-2.9,0.1
		s-2.1,0.2-3.1,0.3c-1.1,0.1-2.2,0.1-3.3,0l-0.8-0.1l-0.8-0.2l-0.7-0.2c-0.3-0.1-0.6-0.2-0.9-0.3s-0.6-0.4-0.8-0.6
		c-0.2-0.2-0.3-0.3-0.4-0.4c-0.2-0.1-0.5-0.2-0.8-0.2c-0.6,0-1.4,0.4-2.2,0.7c-1.5,0.6-2.8,0.8-3.8,0.9
		C-166.2,342.4-166.7,342.4-166.7,342.4z"/>
</g>
<path id="XMLID_118_" class="st10" d="M-134.8,345.8c-1.3-0.3-1.1-0.2-2.3-0.7c-0.4-0.4-2.1-1.1-3.6-1.7c-2.5-1.1-5.3-1-8-1.1
	c-0.9,0-1.6,0.1-2,0.7l-0.5,0.1c-0.8,0-1,0.1-1.8,0.1c-1.1-0.2-2-0.3-3.1-0.6c-1-0.5-1.8-1.4-2.8-1.6c-0.1,0,0-0.1-0.1-0.1
	c0-0.1-0.1-0.1-0.2-0.1c0,0,0,0.1-0.1,0c0,0,0,0-0.1,0c-0.2,0-0.6,0-0.8,0.1c-0.3,0-0.6,0.2-0.8,0.2c-0.7,0.2-1.4,0.5-2.1,0.8
	c-0.7,0.1-1.3,0.3-1.8,0.4c-0.6,0.1-1.3,0.2-2.1,0.2c-0.1,0-0.3,0.1-0.5,0.1c0,0-0.1,0-0.1-0.1c-0.2-0.1-1,0.2-0.9,0.2
	c3.1,1.9,6.3,2.1,9.7,2.8c0.1,0,1,0.3,1.1,0.2c0.7,0.1,0,0,0.7,0.1c1.1,0.3,2.9,0.5,4,0.6c0.3,0,0.9,0.1,1.2,0.1
	c0.3,0.1,0.5,0.2,0.8,0.3c1.1,0.2,2.3,0.3,3.2,0.4c2.7,0.4,4.1,0.5,6.8,0.6c0.7,0,3.5,0.4,3.9,0c0.3,0,1.3-0.2,1.5-0.3
	c0.7,0,0.1-0.1,0.8-0.2c0.1,0,0.5-0.1,0.6-0.2c0.2,0,0.4-0.2,0.6-0.2c0.1,0-0.2-0.2-0.2-0.2C-133.4,347-134.3,345.9-134.8,345.8z"/>
<g id="XMLID_88_" class="st7">
	<path id="XMLID_148_" class="st6" d="M-153.2,382.3c0,0-0.7,0.1-1.9,0.1c-1.2-0.1-3-0.2-5.1-0.6c-0.5-0.1-1.1-0.2-1.7-0.5
		c-0.3-0.1-0.5-0.2-0.8-0.4c-0.3-0.1-0.5-0.3-0.8-0.4c-1.1-0.6-2.2-1.2-3.3-1.9c-1.1-0.7-2.2-1.5-3.4-2.3c-1.1-0.8-2.2-1.7-3.3-2.6
		s-2.1-1.9-3.1-2.9l-0.7-0.8l-0.6-0.7c-0.4-0.5-0.9-1-1.3-1.5c-0.4-0.5-0.8-1-1.2-1.5c-0.2-0.2-0.4-0.5-0.6-0.7
		c-0.2-0.3-0.4-0.4-0.6-0.8c-0.6-1-1.2-2-1.7-2.9c-1-1.8-1.7-3.4-2.2-4.5c-0.3-0.6-0.4-1.1-0.5-1.4c-0.1-0.3-0.1-0.5-0.1-0.5
		s0.1,0.1,0.3,0.4c0.2,0.3,0.4,0.7,0.8,1.1c0.8,0.9,1.9,2.2,3.3,3.8c0.7,0.8,1.4,1.6,2.1,2.6c0.8,0.8,1.7,1.6,2.6,2.5
		c0.5,0.5,0.9,0.9,1.4,1.4s0.9,1,1.4,1.4c0.9,0.9,1.9,1.9,2.9,2.8l1.5,1.4c0.5,0.4,1,0.9,1.5,1.3c1,0.9,2,1.7,3,2.5
		c1,0.8,2,1.6,2.9,2.3c0.2,0.2,0.5,0.3,0.7,0.5c0.2,0.1,0.5,0.4,0.7,0.4c0.4,0.2,0.9,0.4,1.4,0.6c1.9,0.7,3.6,1.1,4.8,1.4
		C-153.9,382.2-153.2,382.3-153.2,382.3z"/>
</g>
<path id="XMLID_168_" class="st8" d="M-157.7,380.4c-5.7-0.8-11.2-5.1-15.2-9c-4.1-4.1-7.7-8.7-11-13.6c0-0.1,0-0.3-0.1-0.4
	l-0.1-0.1c-0.1-0.1-0.1-0.1-0.2-0.2c-0.5-0.7-1-1.4-1.4-2.2c-0.3-0.6-1.2-0.1-0.9,0.5c0.5,0.8,1,1.6,1.5,2.4c0,0.1,0,0.2,0.1,0.2
	c3.6,5.4,7.7,10.9,12.6,15.2c4.2,3.6,9,7.3,14.6,8C-157.1,381.5-157.1,380.5-157.7,380.4z"/>
<path id="XMLID_165_" class="st11" d="M-187.3,388.2c0-0.3,2.1-15,2.1-15.1c0.1-0.1,0.4-5.9,0.3-10.3c-0.1-4.1-1.2-7.3-1.3-7.4
	c-0.2-0.2-1.6,19.6-1.8,19.9c-0.9,1.9-3,8.7-3.6,10.7c-0.1,0.3-0.2,0.6-0.3,1c-0.1,0.3-0.3,0.7-0.4,1.1c-0.1,0.3-0.2,0.7-0.1,1.1
	c0,0.5,0.3,0.8,0.7,1.2c0.3,0.2,0.7,0.4,0.8,0.5c0,0,0.5,0.3,1.2,0.5c0.7,0.2,1.3,0.4,1.3,0.4C-188.2,390.6-187.4,388.7-187.3,388.2
	z"/>
<path id="XMLID_146_" class="st12" d="M-75.6,293.8c0.7-1.8,0.2-3-1.6-3.3c-3.3-0.6-6.8,1.8-9.6,3.1c-0.2,0.1-0.3,0.3-0.2,0.4l0,0
	c0,0.1,0,0.3-0.1,0.4c-1.1,1.9-1.6,3.9-1.5,6.1c0.2,3.2-1.9,5.1-3.1,7.9v0.1c0,0.1-0.1,0.2-0.1,0.2c-0.3,0.6,0.6,1.1,0.9,0.5
	c0.1-0.2,0.2-0.4,0.3-0.6c0.2-0.4,0.4-0.7,0.6-1.1c0.3-0.3,2.2-2.4,2.1-2.3c0.4-0.7,0.5-1.2,0.5-2c0-1.1,0.6-2.8,1.2-3.7
	c0.3-0.6,6.5-4.5,7.2-3.4c0.2,0.4,1.6-1.8,1.7-2c0.4-0.4,0.4-0.4,0.4-0.4c-1.5,0.6-8.5,4-8.8,3.8c-1.2-0.7-0.5-1.9-0.3-3.3
	c1.6-0.6,7.9-4.3,9.7-3.6c0,0,1.1,0,0.7,1.5c-0.5,1.1-2.9,3-3.2,3.6c-0.5,1-1,2-1.2,3l0,0c-0.3,1.1-0.4,2.2-0.3,3.5
	c0.2,3,0.7,6,0.4,8.9c-0.2,1.1-0.5,2.3-0.8,3.4c0,0,0,0,0,0.1s-0.1,0.2-0.1,0.3c-0.2,0.6,0.7,0.9,1,0.3c0.6-1.6,1.4-3.2,1.5-5
	c0.1-1.6,0-3.3-0.2-4.9c0-0.4-0.1-0.8-0.1-1.1c-0.2-2.1-0.7-4.3,0.2-6.2C-77.9,296.5-76.3,295.4-75.6,293.8z"/>
<path id="XMLID_171_" class="st12" d="M-195.6,279.6c0-0.2-1.6-4.1-3.3-4.8c-0.3-0.2-0.9-0.4-0.9-0.5c-0.3-0.2-1.1-0.3-1.2-0.1
	c0,0-0.1,0.8,0.1,1.1c0,0.1,0,0.1,0,0.2c-0.2,0.2-0.2,0.5,0.1,0.7c0.7,0.4,1.4,0.8,1.9,1.4c0.7,0.9,1.2,2,1.7,3
	c0.3,0.8,0.5,1.5,0.8,2.3c0.2,0.5,0.2,0.1,0.4-0.3c0.1-0.3,0.3-0.9,0.3-1.2C-195.5,281.1-195.5,280.3-195.6,279.6z"/>
<path id="XMLID_131_" class="st8" d="M-148.1,387.2c-1-0.1-1.1-0.4-1.1-0.9s0-0.5,0.3-0.8c0.4-0.4-0.1-0.6-0.6-0.6
	c-0.7,0.1-0.5,0.1-1,0.6c-0.3,0.2-0.7,0.5-1,0.5c-0.2,0-0.4,0.1-0.4,0.3c-0.1-0.1-0.2-0.2-0.3-0.2c-0.5-0.4-1.1-0.9-1.6-0.2
	c-0.5,0.8,0.4,2.5,0.8,3.1c0.9,1.5,2.3,2.5,3.2,4.1c0.3,0.6,1.2,0.1,0.9-0.5c-0.6-1.1-1.5-2-2.4-3c-0.5-0.5-1.5-1.7-1.5-2.5
	c0-0.4-0.1-0.2,0.3,0.1c0.2,0.2,0.4,0.4,0.7,0.5c0.6,0.3,1.3,0.5,2,0.2c0.4,0.4,1.2,0.3,1.7,0.4
	C-147.5,388.2-147.5,387.2-148.1,387.2z"/>
<path id="XMLID_172_" class="st13" d="M-165.8,287c-1.9,0-1.9,3,0,3S-163.9,287-165.8,287z"/>
<path id="XMLID_175_" class="st13" d="M-122.4,291.1c-1.9,0-1.9,3,0,3C-120.4,294.1-120.4,291.1-122.4,291.1z"/>
<g id="XMLID_176_" class="st7">
	<path id="XMLID_189_" class="st0" d="M-186.2,223c0,0,0.4-0.2,1.1-0.5c0.7-0.3,1.7-0.7,3-1.1c1.2-0.4,2.7-0.8,4.3-1.3
		c1.6-0.4,3.3-0.8,4.9-1.3c1.7-0.4,3.4-0.9,4.9-1.3c0.8-0.2,1.5-0.4,2.2-0.7c0.7-0.2,1.4-0.4,2-0.7c1.2-0.4,2.2-0.8,2.9-1.1
		c0.7-0.3,1.1-0.4,1.1-0.4s-0.4,0.2-1,0.6c-0.3,0.2-0.7,0.4-1.2,0.7c-0.5,0.3-1,0.5-1.6,0.8c-1.2,0.5-2.6,1.1-4.2,1.6
		c-0.8,0.2-1.6,0.5-2.4,0.7c-0.8,0.2-1.7,0.4-2.5,0.7c-1.7,0.4-3.4,0.8-5,1.1c-1.6,0.4-3.1,0.6-4.3,1c-1.3,0.3-2.3,0.5-3.1,0.7
		C-185.8,222.9-186.2,223-186.2,223z"/>
</g>
<g id="XMLID_181_" class="st7">
	<path id="XMLID_184_" class="st14" d="M-192.3,268.3"/>
</g>
<g id="XMLID_160_" class="st7">
	<path id="XMLID_136_" class="st14" d="M-188.3,244.8"/>
</g>
<path id="XMLID_182_" class="st15" d="M-182.3,242.4L-182.3,242.4c0.1-0.3-0.3-1-0.5-0.9c-0.1,0-0.2,0.1-0.3,0.1s-0.2,0-0.3,0
	c-5,4.1-5.7,11.6-6.6,17.6c0,0.1,0,0.3,0.1,0.5c-1.5,4.9-1.8,9.8-3.2,14.6c-0.1,0.3,0.2,1.2,0.7,1.8c-0.3,1-0.7,2.1-1.1,3.1
	c-0.3,0.8,1.5,3,1.7,2.4c1.3-3.4,2.4-7,3.3-10.6c1-2.6,1.8-5.5,1.9-8.1c0.1-0.4,0.2-0.7,0.2-1.1c0-0.2,0-0.4-0.1-0.6
	c1-5.1,2.4-10,3.3-15.2c0-0.1,0-0.3-0.1-0.5c0.4-0.5,0.9-0.9,1.4-1.4C-181.5,244-181.8,243.1-182.3,242.4z"/>
<path id="XMLID_106_" class="st15" d="M-69.7,253.7C-69.7,253.7-69.7,253.6-69.7,253.7c0-0.1,0.1-0.1,0.1-0.1c0.2,0,0.3-1,0.3-1
	s-0.2,0-0.3,0l0,0l0,0l0,0l0,0c0,0-0.1,0.1-0.1,0.2c0-0.2,0.1-0.4,0.1-0.5c0-0.2-0.2,0.4-0.2,0.5c-1.2,4.1-2.7,8.1-4.2,12.1
	c-0.2,0.5-0.3,1-0.5,1.5c0-6.5,0.7-12.9,2.2-19.2c0.1-0.3,0-0.3-0.1,0c-0.4,1.2-0.8,2.3-1.1,3.5v0.1c-0.4,1.6-0.7,3.3-1,5
	c-0.7,4.1-1.5,8.2-2.3,12.3c-0.5,1.2,1-11.7,0.6-10.5c0-1.9-1.8,10.3-1.8,8.4c0.1-5.3,0.5-10.6,1.4-15.9c0.1-0.4-0.2,0.4-0.2,0.4
	c-1.6,6-2.1,12.1-3.2,18.2c-0.5,1.5-0.6-10.2-0.9-8.7c-0.3-1.8-1.2,7-1.4,5.2c-0.5-4.8-0.4-9.6,0.7-14.4c0.1-0.6-0.2,0.2-0.2,0.3
	c-0.1,0.4-0.2,0.7-0.3,1.1c-0.4,0.7-0.5,1.6-0.6,2.6c0,0.1,0,0.2-0.1,0.3c-0.1,0.5-0.2,1-0.2,1.5c-0.2,1.2-0.4,2.4-0.5,3.6
	c0,0,0,0.2,0,0.5c-0.1-0.6-0.2-1.2-0.2-1.4c-0.3-2.2-0.6-4.3-0.9-6.5c0,0.1-0.3,0.6-0.3,0.9c0.3,2.3,0.6,4.6,1,6.9
	c0,0,0,0.1-0.1,0.1c-0.1-1.3-0.7-2.8-1.1-4c0-0.1,0-0.3,0-0.4c-0.1-0.6-0.2-1.1-0.4-1.6c0-0.2,0-0.4-0.1-0.6l0,0
	c-0.2-1.2-0.4-2.4-0.9-3.5c0,0-0.5,1.1-0.5,1.2c-0.2,0.5-0.4,1.1-0.4,1.6c0,1,0.4,1.8,0.6,2.7c0.1,0.2-0.1,0.2-0.1,0.4
	c0.1,0.6,0,0.3,0.2,0.8v0.5c-0.1,0.5-0.4,2.5,0.1,2.9c-0.2,0.6,0,2.2,0,2.3c0.1,0.8-0.3,1.2,0,2c-0.1,1.9-0.5,4.1-0.5,5.6
	c0,2.9-0.1,3.3-0.2,6.2c0,1.5-0.2,3.1-0.2,3.1c-0.2,2.2-0.2,4.2-0.2,6.9c-0.1,0.2,0,1,0,1.2c0,1,0,1.9,0,2.9c0,0.3,0,3.1,0.5,3
	c0.3-0.1,0.4-0.6,0.5-0.8c0,0,0-0.1,0.1-0.3c0.2-0.2,0.4-0.4,0.4-0.5s0.1-0.2,0.1-0.3c-0.1,0.4-0.1,0.9,0,1.4c0,0.1,0.2,0,0.2,0
	c0.8-0.5,1.6-0.9,2.3-1.4c0.1,0,0.1-0.1,0.2-0.3c0.7-0.4,1.3-0.9,2-1.4l0.1-0.1c0,0.1,0.1,0.1,0.2-0.1c0.3-0.2,0.8-0.8,1.2-0.9
	c0.2,0,0.4-0.2,0.5-0.4l0,0c0.3-0.2,0.6-0.5,0.9-0.9c1.5-2.3,2.2-5.5,2.8-8.2c0.5-2.1,1.1-4.5,1.3-6.8c1.1-4.6,2.3-9.2,3.7-13.7
	l0.1-0.1c0.5-1.9,1-3.9,1.6-5.8C-69.3,253.4-69.5,253.5-69.7,253.7z"/>
<path id="XMLID_109_" class="st6" d="M-86.4,258.5c-0.1-1.4-0.2-2.9-0.4-4.3c-0.1-1.2,0.1-2.6-0.2-3.7c-0.1-0.2-0.8,0.4-0.7,0.7
	c0.2,0.8,0,1.9,0.1,2.8c0.1,1.4,0.3,2.8,0.4,4.3c0.2,3,0.2,6,0.1,9c0,0.3,0.7-0.3,0.7-0.6C-86.3,263.9-86.2,261.2-86.4,258.5z"/>
<path id="XMLID_185_" class="st15" d="M-186.2,244.2c-2.1-0.2-3.8-0.7-5.6-1.9c0,0-0.5,1.1-0.8,1.9c-0.3,0.7-0.7,2.1-0.7,2.3
	c0,0.5,0,1.1,0,1.6c-0.2,0.6-0.8,2-0.8,2.5c-0.3,0.8-0.6,2.1-0.5,2.2c0.1,0.1,0.2,0.1,0.3,0.2c-0.2,0.7-0.5,1.6-0.5,1.8
	c0,1-0.1,1.7,0,2.2c-0.3,0.6-0.8,2.4-0.7,2.6c0.1,0.9,0.2,1.8,0.3,2.7c-0.2,0.8-0.3,1.9-0.4,2c0.2,0,0.3,0,0.5,0
	c-0.1,0.3-0.2,0.5-0.2,0.7c-0.1,1.1-0.1,2.1,0.1,3.2c0,0,0,0,0,0.1h0.1c-0.2,1.5,0.1,3,0.1,4.5c-0.1,0.3-0.1,0.6-0.1,0.9
	c0,0.4,0,0.8,0,1.2c0,0.2,0.1,0.5,0.1,0.7c0,0.1,0,0.2,0,0.3s0,0.1,0,0.2s0,0.2,0,0.2c0.1,1,0.2,1.9,0.4,2.9c0,0.2,0,0.3,0,0.4
	c0.1,0.2,0.1,0.4,0.2,0.5c0,0.3,0.1,0.6,0.1,0.9c0,0.1,0,0.2,0,0.4v-0.1c0,0,0,0,0,0.1l0,0v0.1c0,0.2,0.5-0.9,0.5-0.9
	c0.1-0.4,0.4-0.9,0.4-1.4c0.1-0.2,0.1-0.4,0.1-0.6c0.1-2.3,0.7-4.4,1.1-6.6c0.3-1.7-0.1-3.6,0.5-5.2c0-0.1,0.4-1.9,0.4-1.9
	c-0.1,0-0.1,0-0.2,0.1c0.2-0.8,0.3-2,0.4-2h-0.1l0.4-1.5c0-0.1,0.4-1.5,0.3-1.5s-0.2,0-0.3,0c0.5-1.2,1-2.5,1.1-3.8c0,0,0,0,0-0.1
	l0,0c0.4-0.3,1-2.8,0.8-2.8c0,0,0,0-0.1,0c0.3-0.5,0.6-1.5,0.6-2.1c0.3-0.2,0.7-1.6,0.8-2.3c0.1-0.4,0.3-0.9,0.4-1.3
	C-186.8,246.6-186.1,244.2-186.2,244.2z"/>
<g id="XMLID_66_" class="st7">
	<path id="XMLID_126_" class="st0" d="M-184.5,244.6c0,0-0.1,1.4-0.5,3.5c-0.2,1.1-0.4,2.3-0.7,3.6s-0.6,2.7-0.9,4.1
		c-0.3,1.4-0.6,2.8-0.9,4.1c-0.2,1.3-0.5,2.5-0.6,3.6c-0.1,1.1-0.3,1.9-0.3,2.6c-0.1,0.6-0.1,1-0.1,1s0-0.4,0-1c0-0.6,0-1.5,0.1-2.6
		c0.1-1.1,0.2-2.3,0.4-3.6c0.2-1.3,0.5-2.7,0.8-4.1c0.7-2.8,1.3-5.6,1.8-7.6c0.2-1,0.4-1.9,0.5-2.5
		C-184.5,245-184.5,244.6-184.5,244.6z"/>
</g>
<g id="XMLID_67_" class="st7">
	<path id="XMLID_123_" class="st0" d="M-187.1,253c0,0,0,1.2-0.3,2.9c-0.1,0.9-0.2,1.9-0.4,2.9c-0.2,1.1-0.4,2.2-0.6,3.3
		c-0.2,1.1-0.4,2.3-0.6,3.3c-0.1,1.1-0.3,2.1-0.4,2.9c-0.1,0.9-0.2,1.6-0.2,2.1s-0.1,0.8-0.1,0.8s0-0.3,0-0.8s0-1.2,0-2.1
		c0-0.9,0.1-1.9,0.2-2.9c0.1-1.1,0.3-2.2,0.5-3.3c0.4-2.3,0.9-4.5,1.2-6.2C-187.3,254.2-187.1,253-187.1,253z"/>
</g>
<g id="XMLID_70_" class="st7">
	<path id="XMLID_120_" class="st0" d="M-189,246c0,0,0,1.2-0.3,2.9c-0.1,0.9-0.2,1.9-0.4,2.9c-0.2,1.1-0.4,2.2-0.6,3.3
		c-0.2,1.1-0.4,2.3-0.6,3.3c-0.1,1.1-0.3,2.1-0.4,2.9c-0.1,0.9-0.2,1.6-0.2,2.1s-0.1,0.8-0.1,0.8s0-0.3,0-0.8s0-1.2,0-2.1
		c0-0.9,0.1-1.9,0.2-2.9c0.1-1.1,0.3-2.2,0.5-3.3c0.4-2.3,0.9-4.5,1.2-6.2C-189.2,247.1-189,246-189,246z"/>
</g>
<g id="XMLID_234_" class="st7">
	<path id="XMLID_117_" class="st0" d="M-73.6,266.6c0,0-0.1,0.4-0.2,1c-0.1,0.6-0.2,1.5-0.4,2.5c-0.3,2.1-0.7,4.9-1.3,7.7
		c-0.1,0.7-0.3,1.4-0.4,2.1c-0.1,0.7-0.3,1.4-0.5,2c-0.4,1.3-0.8,2.5-1.2,3.5s-0.8,1.8-1.1,2.3c-0.3,0.6-0.5,0.9-0.5,0.9
		s0.1-0.3,0.3-0.9c0.2-0.6,0.4-1.4,0.7-2.5c0.6-2,1.2-4.8,1.7-7.6c0.5-2.8,1.1-5.6,1.7-7.6c0.3-1,0.6-1.9,0.8-2.5
		S-73.6,266.6-73.6,266.6z"/>
</g>
<g id="XMLID_232_" class="st7">
	<path id="XMLID_111_" class="st0" d="M-84.8,261.5c0,0,0,0.5-0.1,1.3c-0.1,0.8-0.1,1.9-0.1,3.3c0,1.4,0,3,0,4.7c0,1.7,0,3.5,0,5.4
		c0,0.9-0.1,1.8-0.1,2.7s-0.1,1.8-0.2,2.6c-0.2,1.7-0.5,3.3-0.8,4.6c-0.1,0.3-0.2,0.7-0.2,1c-0.1,0.3-0.2,0.6-0.3,0.9
		c-0.2,0.5-0.3,1-0.5,1.4c-0.3,0.7-0.5,1.2-0.5,1.2s0.1-0.4,0.3-1.2c0.1-0.4,0.2-0.9,0.3-1.4s0.2-1.2,0.3-1.8
		c0.1-0.7,0.2-1.4,0.3-2.2c0.1-0.8,0.1-1.6,0.2-2.4c0.1-1.7,0.2-3.5,0.2-5.3c0.1-1.8,0.1-3.6,0.2-5.4c0.1-1.7,0.2-3.3,0.3-4.7
		c0.1-0.7,0.1-1.3,0.2-1.9c0.1-0.6,0.2-1,0.2-1.4C-84.9,262-84.8,261.5-84.8,261.5z"/>
</g>
<g id="XMLID_187_" class="st5">
	<path id="XMLID_188_" class="st0" d="M-93.8,224.2c-0.9-1.1-3.7-3.2-7.9-13.7c3.8,5.4,11.5,8.3,15.4,11.9c-1.2-1.4-2.3-2.8-3.5-4.1
		c2.9,2.4,5.7,4.9,8.4,7.6c-0.8-2.5-1.9-5-3.1-7.4c7.2,5.3,12.8,15.8,12,24.7c-2.9-5.8-4.4-4.9-5.8-6.6c0.1,2.7,1.8,4.3,1.9,10.5
		c-1.1-2.2-3.2-4.5-4.5-5.5c-0.8,2.9,2.3,9.4,1.5,12.4c-0.9-2.2-3.4-5.7-3.9-6.3c-0.3,2.5-0.2,4-0.5,6.6c-1.4-3.5-2-2.1-3-3.7
		c-0.4-0.7-1.2-2.6-1.5-3.4c-0.4-1-1.3-1.6-2.1-2.2c-1.8-1.5-3.2-3.5-3.9-5.7c0.9,1.2,1.8,2.4,2.7,3.6c-1.4-4-3.3-7.8-5.4-11.4
		c-0.4,1-0.5,2.2-0.3,3.3c-3.8-4.5-8.1-8.6-12.7-12.2c5.7,2.6,11.1,5.8,16,9.5c-2-3.4-4.2-6.7-6.4-9.9c4.7,3.4,9.5,6.9,14.2,10.3
		C-88.8,228-90.5,227.4-93.8,224.2"/>
</g>
<path id="XMLID_247_" class="st16" d="M-106.5,346.2c-2,3.1-2.8,7.1-3.6,10.7c-0.9,4-1.7,8.1-2.2,12.2c-0.5,4.3-0.5,8.6-1,12.9
	c-0.4,4-1.4,7.9-1.5,12c0,0.3-0.1,0.5,0.2,0.4c0.5-0.1,1.4-0.2,1.8-0.4c0.6-0.1,1.1-0.4,1.3-0.7c0.2-0.2,0.8-0.7,0.8-2
	c0-0.1,0.1-0.4,0-0.5c0.1-0.2,0-0.7,0-0.9c0-0.2,0-0.3-0.1-0.4c0.3-2.5,0.2-5,0.3-7.6c0.2-3.9,0.7-7.7,1.1-11.6
	c0-0.5,0.1-0.9,0.1-1.4c0.3-0.9,0.4-1.7,0.2-1.9l0,0c0.2-2.2,0.5-4.5,0.7-6.7c0.1-0.6,0.2-1.3,0.2-1.9v-0.1c0.4-4,1.8-7.7,2.5-11.6
	C-105.5,346.1-106.2,345.7-106.5,346.2z"/>
<path id="XMLID_231_" class="st17" d="M-145.1,314.5c-0.8-1,0,1.2-0.5,2.4c-0.4,1.1-0.1,0.6-0.7,1.5c-0.6,0.9-3.3,2.5-3.9,3.5
	c-0.4,0.7,1,1.2,2.4,0.7c0.7-0.3,1.5-0.7,2.2-1.2c0.6-0.5,1-1.5,1.2-2.3C-143.8,317.5-143.9,315.9-145.1,314.5z"/>
<path id="XMLID_233_" class="st11" d="M-91.2,315.7c0.2-0.6-1.5-1.5-1.6-1.2c-1,3-2.8,5.4-3.9,8.4c-0.8,1.9-1,2.8,0.8,4.1
	c0.9,0.7,1.4,0.2,0.4-0.5c-0.9-0.7,1.6-5.1,2.1-5.8C-92.4,319-91.8,317.4-91.2,315.7z"/>
<g id="XMLID_17_">
	<path id="XMLID_103_" class="st6" d="M-187,352c0,0,0.2,0.5,0.4,1.4c0.1,0.5,0.3,1,0.4,1.7c0.1,0.7,0.3,1.4,0.4,2.2
		c0.1,0.8,0.2,1.7,0.3,2.7c0.1,0.9,0.1,1.9,0.2,3c0,1,0,2.1-0.1,3.2s-0.2,2.2-0.3,3.3c-0.2,1.1-0.3,2.2-0.6,3.2
		c-0.2,1.1-0.5,2.1-0.8,3.1c-0.3,1-0.6,1.9-0.9,2.8s-0.7,1.7-1,2.5c-0.3,0.8-0.7,1.4-1,2s-0.6,1.1-0.8,1.5c-0.5,0.8-0.8,1.3-0.8,1.3
		s0.1-0.5,0.4-1.4c0.3-0.9,0.7-2.2,1.1-3.8c0.2-0.8,0.4-1.6,0.7-2.5c0.2-0.9,0.4-1.9,0.6-2.8c0.2-1,0.4-2,0.6-3s0.3-2.1,0.5-3.2
		c0.1-1.1,0.3-2.1,0.4-3.2c0.1-1,0.2-2.1,0.2-3.1s0.1-2,0.1-2.9s0-1.8,0-2.6c0-1.6,0-3-0.1-3.9C-187,352.6-187,352-187,352z"/>
</g>
<g id="XMLID_54_">
	<path id="XMLID_101_" class="st6" d="M-87.2,249.1c0,0,0.1,0.3,0.4,1c0.3,0.6,0.6,1.6,1,2.8s0.8,2.8,1.2,4.5
		c0.2,0.9,0.4,1.8,0.6,2.8c0.2,1,0.3,2.1,0.4,3.2c0.3,2.2,0.4,4.7,0.4,7.2c0,2.6-0.1,5.3-0.4,8.1c-0.3,2.8-0.7,5.7-1.2,8.6
		s-1.2,5.8-1.9,8.7c-0.8,2.9-1.6,5.7-2.5,8.5c-0.9,2.8-1.8,5.5-2.8,8.1c-0.9,2.6-1.9,5.1-2.8,7.5c-0.9,2.4-1.8,4.6-2.7,6.7
		c-1.8,4.1-3.5,7.4-4.5,9.8c-1.1,2.4-1.6,3.7-1.6,3.7s0.1-0.4,0.3-1c0.2-0.7,0.5-1.6,0.9-2.9c0.9-2.4,2.2-5.9,3.8-10.1
		c1.6-4.1,3.1-9.1,4.9-14.3c0.9-2.6,1.7-5.4,2.6-8.1c0.8-2.8,1.6-5.6,2.4-8.5c0.7-2.8,1.4-5.7,2-8.6c0.6-2.8,1-5.6,1.4-8.4
		c0.7-5.5,0.8-10.6,0.5-15c-0.1-2.2-0.3-4.2-0.6-6c-0.3-1.8-0.6-3.3-0.9-4.6c-0.1-0.6-0.3-1.2-0.4-1.7c-0.1-0.5-0.2-0.9-0.3-1.2
		C-87.1,249.5-87.2,249.1-87.2,249.1z"/>
</g>
<g id="XMLID_9_">
	<path id="XMLID_97_" class="st6" d="M-110.7,392.9c0-0.5,0-1.1,0-1.6v-1.6c0-1.1-0.1-2.1,0-3.2c0.1-2.1,0.2-4.3,0.3-6.4
		c0.1-2.1,0.2-4.3,0.4-6.4c0.1-2.1,0.4-4.3,0.6-6.4c0.5-4.3,1.1-8.5,1.9-12.7c0.8-4.2,1.7-8.4,2.8-12.6l1.1,0.5
		c-3.9,6.4-7.9,12.8-12.6,18.8c-2.4,3-4.9,5.8-7.7,8.4s-5.9,4.9-9.2,6.8c-1.6,0.9-3.3,2-5,2.8c-1.7,0.8-3.6,1.5-5.4,2
		c-3.7,1-7.7,1.4-11.5,0.9c-1.9-0.3-3.8-0.7-5.7-1.4c-0.9-0.3-1.8-0.8-2.7-1.2l-0.6-0.3l-0.6-0.4c-0.4-0.3-0.8-0.5-1.2-0.8
		c-3.1-2.2-6-4.7-8.7-7.4c-5.4-5.4-9.9-11.7-13.2-18.5c-1.7-3.4-3-7-4-10.7c-0.5-1.8-0.9-3.7-1.2-5.6c-0.3-1.8-0.7-3.7-0.9-5.6
		c-0.9-7.6-0.2-15.2,0.2-22.7c0.2-3.7,0.4-7.5,0.2-11.2c-0.2-3.7-0.7-7.4-1.8-10.9l-0.1-0.2l0.1-0.2c1.3-4.6,2.1-9.4,2.9-14.2
		c0.7-4.8,1.4-9.6,2.5-14.4c0.3-1.2,0.6-2.4,0.9-3.6c0.3-1.2,0.7-2.4,1-3.5c0.4-1.2,0.8-2.3,1.3-3.5l0.7-1.7l0.8-1.7l0.9-1.6
		l0.9-1.6c0.3-0.5,0.7-1,1-1.5c0.4-0.5,0.7-1,1.1-1.5s0.8-0.9,1.2-1.4c0.4-0.4,0.8-0.9,1.3-1.3l1.3-1.3l1.4-1.2l-1.4,1.2l-1.3,1.3
		c-0.4,0.4-0.8,0.9-1.2,1.4s-0.8,1-1.1,1.4c-0.7,1-1.4,2-2,3l-0.9,1.6l-0.8,1.6l-0.7,1.7l-0.7,1.7c-0.4,1.1-0.8,2.3-1.2,3.4
		c-0.3,1.2-0.7,2.3-0.9,3.5c-0.3,1.2-0.5,2.4-0.8,3.6c-0.9,4.8-1.5,9.6-2.2,14.4c-0.7,4.8-1.4,9.7-2.7,14.4v-0.4
		c1.1,3.6,1.8,7.4,2,11.2c0.3,3.8,0.2,7.6,0,11.4c-0.2,3.8-0.4,7.5-0.5,11.2c-0.1,3.7,0,7.5,0.4,11.1c0.2,1.9,0.6,3.6,0.9,5.5
		c0.3,1.8,0.7,3.6,1.2,5.4c1,3.6,2.3,7,3.9,10.4c3.2,6.7,7.7,12.7,12.9,18c2.6,2.6,5.5,5,8.5,7.2c0.4,0.3,0.8,0.5,1.1,0.8l0.5,0.4
		l0.6,0.3c0.8,0.4,1.6,0.8,2.5,1.1c1.7,0.6,3.4,1.1,5.2,1.3c3.6,0.5,7.3,0.1,10.8-0.8c1.8-0.5,3.5-1.1,5.1-1.9
		c1.7-0.8,3.2-1.7,4.9-2.7c6.4-3.7,11.8-8.9,16.5-14.7c4.7-5.8,8.8-12.1,12.8-18.5l2.1-3.4l-1,3.8c-1.1,4.1-2.1,8.3-2.9,12.4
		c-0.9,4.2-1.6,8.4-2.2,12.6c-0.3,2.1-0.6,4.2-0.8,6.4c-0.2,2.1-0.4,4.3-0.5,6.4l-0.4,6.4c-0.1,1.1,0,2.1,0,3.2c0,0.5,0,1.1,0,1.6
		C-110.6,391.8-110.7,392.4-110.7,392.9z"/>
</g>
<g id="XMLID_44_">
	<path id="XMLID_95_" class="st6" d="M-186.8,352c0,0,0.1,0.6,0.3,1.7c0.2,1.1,0.4,2.6,0.5,4.5c0.2,1.9,0.3,4,0.3,6.4
		c0,1.2,0,2.4,0,3.6c-0.1,1.2-0.1,2.5-0.2,3.7c-0.1,1.2-0.2,2.5-0.4,3.7c-0.1,1.2-0.3,2.4-0.5,3.6c-0.4,2.3-0.8,4.5-1.4,6.3
		c-0.6,1.8-1.3,3.2-1.9,4.2c-0.3,0.5-0.6,0.8-0.7,1c-0.2,0.2-0.3,0.3-0.3,0.3s0.3-0.6,0.7-1.6s0.8-2.5,1.1-4.3
		c0.3-1.8,0.5-3.9,0.8-6.2c0.1-1.1,0.2-2.3,0.3-3.5c0.1-1.2,0.2-2.4,0.3-3.6s0.2-2.4,0.3-3.6c0.1-1.2,0.1-2.4,0.2-3.5
		c0.1-2.3,0.2-4.4,0.3-6.3c0.1-1.8,0.2-3.4,0.2-4.5C-186.8,352.6-186.8,352-186.8,352z"/>
</g>
<g id="XMLID_45_">
	<path id="XMLID_93_" class="st6" d="M-195,275.8c0,0,0-0.2-0.1-0.7c-0.1-0.4-0.3-1.1-0.6-1.8c-0.3-0.7-1-1.5-1.9-1.9
		c-0.9-0.4-2.3-0.2-2.9,0.7c-0.3,0.4-0.3,1.1-0.2,1.8c0.1,0.8,0.1,1.6,0.1,2.4c0,1.7,0,3.4-0.2,5.2c-0.2,1.8-0.5,3.7-0.9,5.5
		c-0.5,1.9-1,3.7-1.7,5.5c-0.7,1.8-1.6,3.5-1.5,4.9c0,0.7,0.4,1.5,0.7,2.5c0.1,0.3,0.1,0.5,0.1,0.8c0,0.3,0,0.5,0,0.8
		c0,0.5-0.1,1-0.1,1.4c-0.3,1.8-0.2,3.2,0.5,4.5c0.7,1.3,1.7,2.3,2.9,2.9c1.2,0.5,2.4,0.7,3.5,0.5c1.1-0.2,2-0.5,2.7-1
		c0.7-0.4,1.2-0.9,1.5-1.2c0.3-0.3,0.4-0.5,0.4-0.5s-0.1,0.2-0.3,0.6c-0.2,0.4-0.7,0.9-1.3,1.5c-0.7,0.5-1.6,1.1-2.8,1.4
		c-1.2,0.3-2.6,0.4-4.1-0.2c-1.5-0.5-2.8-1.6-3.8-3.2c-0.5-0.8-0.8-1.6-1-2.6c-0.1-0.3-0.1-0.5-0.1-0.7c0-0.3,0-0.5,0-0.7
		c0-0.5,0.1-0.9,0.1-1.4c0-0.4,0.1-0.9,0.1-1.2c0-0.2,0-0.4,0-0.5c0-0.2-0.1-0.4-0.1-0.6c-0.2-0.7-0.7-1.6-0.9-2.8
		c-0.1-1.1,0.1-2.2,0.5-3.2c0.3-1,0.7-1.8,1-2.7c0.7-1.7,1.3-3.5,1.7-5.3c0.4-1.8,0.8-3.5,1.1-5.3c0.2-1.7,0.4-3.4,0.5-5
		c0-0.8,0-1.6,0-2.3c0-0.8,0-1.7,0.6-2.5c0.5-0.8,1.4-1.1,2.1-1.2c0.7-0.1,1.4,0.1,2,0.4c1.2,0.6,1.7,1.7,2,2.4
		c0.3,0.8,0.3,1.5,0.4,1.9C-195,275.5-195,275.8-195,275.8z"/>
</g>
<g id="XMLID_46_">
	<path id="XMLID_91_" class="st6" d="M-85.8,293.6c0.3-0.3,0.7-0.7,1-1c0.4-0.3,0.7-0.6,1.1-0.9c0.4-0.3,0.8-0.5,1.2-0.7
		c0.4-0.2,0.9-0.4,1.3-0.6c0.9-0.3,1.9-0.6,2.8-0.7c1-0.1,2-0.1,3,0h0.3l0.1,0.4c0.5,1.2,0.6,2.5,0.2,3.7c-0.2,0.6-0.4,1.2-0.8,1.7
		c-0.3,0.5-0.7,1-1.1,1.4c-0.2,0.2-0.3,0.4-0.5,0.6c-0.1,0.1-0.2,0.2-0.2,0.3l-0.2,0.4c-0.2,0.4-0.3,0.8-0.4,1.3c-0.2,0.9-0.1,2,0,3
		c0.1,1.1,0.3,2.1,0.3,3.4c0,0.5,0,1.1,0,1.7c0,0.6-0.1,1.2-0.2,1.7c-0.3,2.3-1.1,4.5-1.9,6.5c-0.8,2.1-1.7,4.1-2.7,6.1
		s-2.4,4-4.2,5.4c-0.5,0.4-0.9,0.7-1.5,1c-0.3,0.1-0.5,0.2-0.8,0.3s-0.6,0.2-0.9,0.2c-1.2,0.2-2.4,0.2-3.5-0.1
		c-1.1-0.3-2.2-0.8-3-1.7c-0.8-0.8-1.3-1.9-1.3-3.1c0.2,1.1,0.8,2.1,1.6,2.7c0.8,0.7,1.8,1,2.9,1.2c1,0.2,2.1,0.1,3.1-0.2
		c0.5-0.1,0.9-0.3,1.4-0.6l0.6-0.4c0.2-0.2,0.4-0.3,0.6-0.5c1.6-1.3,2.6-3.2,3.5-5.1c0.5-1,0.9-2,1.3-3l1.2-3.1
		c0.8-2,1.4-4.1,1.7-6.2c0.1-0.5,0.1-1,0.2-1.6c0-0.5,0-1,0-1.6c0-1-0.2-2.1-0.3-3.2c-0.1-1.1-0.1-2.3,0.1-3.6
		c0.1-0.6,0.3-1.2,0.7-1.8l0.2-0.4c0.1-0.2,0.2-0.3,0.3-0.4c0.2-0.2,0.4-0.5,0.6-0.7c0.4-0.4,0.8-0.8,1-1.2c0.3-0.4,0.5-0.8,0.6-1.2
		c0.3-0.9,0.3-1.9,0-2.8l0.5,0.4c-0.9-0.2-1.8-0.3-2.7-0.2c-0.5,0-0.9,0-1.4,0.1s-0.9,0.1-1.3,0.3c-0.4,0.1-0.9,0.3-1.3,0.4
		c-0.4,0.2-0.9,0.3-1.3,0.5c-0.4,0.2-0.8,0.4-1.2,0.7C-85.1,293.1-85.5,293.3-85.8,293.6z"/>
</g>
<g id="XMLID_47_">
	<path id="XMLID_89_" class="st6" d="M-192.7,297.8c0,0-0.1,0.2-0.4,0.5c-0.3,0.3-0.7,0.7-1.4,1.1c-0.6,0.4-1.3,0.7-2.2,1
		c-0.5,0.1-0.9,0.3-1.7,0.1c-0.8-0.3-1.1-0.6-1.5-1.1s-0.6-1-0.8-1.5c-0.1-0.3-0.1-0.5-0.2-0.8c0-0.2,0-0.2,0-0.4v-0.4
		c0-1,0.2-1.9,0.6-2.6c0.4-0.7,0.8-1.1,1.1-1.4c0.2-0.1,0.3-0.2,0.4-0.3c0.1-0.1,0.2-0.1,0.2-0.1s-0.1,0.2-0.2,0.6
		c-0.1,0.4-0.2,0.9-0.2,1.6c0,0.6-0.1,1.3,0,2v0.2l0.1,0.3c0,0.2,0.1,0.3,0.1,0.5c0.1,0.3,0.2,0.7,0.4,0.9c0.1,0.3,0.4,0.6,0.5,0.7
		s0.6,0.1,0.9,0c0.8-0.1,1.5-0.2,2.2-0.4c0.6-0.2,1.2-0.3,1.5-0.5C-192.9,298-192.7,297.8-192.7,297.8z"/>
</g>
<g id="XMLID_48_">
	<path id="XMLID_85_" class="st6" d="M-93.9,314.5c0.7-0.1,1.4-0.2,2-0.3h0.2l0.2,0.3c0.5,1.1,0.9,2.2,1.3,3.2l-0.9-0.6
		c1-0.1,2-0.2,3.1-0.3l-0.7,0.3c0.8-0.9,1.4-1.9,1.8-3c0.1-0.3,0.2-0.6,0.3-0.9s0.2-0.6,0.2-0.9l0.1-0.9c0-0.3,0-0.6,0.1-0.9
		l0.6,0.4c-0.9,0-1.8-0.5-2.1-1.2c0.7,0.4,1.4,0.5,2,0.3l0.4-0.2l0.2,0.6c0.2,0.7,0.3,1.4,0.3,2.1c0,0.4,0,0.7,0,1.1
		c0,0.4-0.1,0.7-0.2,1.1c-0.2,0.7-0.4,1.4-0.8,2.1c-0.4,0.6-0.8,1.3-1.3,1.8l-0.3,0.3h-0.4c-1,0-2,0-3.1,0h-0.7l-0.1-0.6
		c-0.2-1.1-0.4-2.3-0.5-3.5l0.4,0.3C-92.6,314.9-93.3,314.8-93.9,314.5z"/>
</g>
<g id="XMLID_49_">
	<path id="XMLID_81_" class="st6" d="M-193.8,297.1c0,0,0,0.4-0.1,0.7c-0.1,0.4-0.4,0.7-0.7,0.9c-0.3,0.2-0.8,0.2-1.1,0.1
		c-0.4-0.1-0.7-0.3-0.7-0.3s0-0.4,0.1-0.7c0.1-0.4,0.4-0.7,0.7-0.9c0.3-0.2,0.8-0.2,1.1-0.1C-194.2,296.9-193.8,297.1-193.8,297.1z"
		/>
</g>
<g id="XMLID_50_">
	<path id="XMLID_77_" class="st6" d="M-177,273.9c3.1-0.5,6.2-1,9.3-1.1c1.6-0.1,3.1,0,4.7,0.1c1.5,0.2,3.1,0.5,4.7,1
		c1.5,0.5,3,1.1,4.4,2c1.4,0.8,2.6,1.9,3.7,3.2c0.5,0.6,1,1.3,1.4,2c0.4,0.7,0.7,1.5,1,2.3c0.5,1.6,0.8,3.2,0.7,4.9
		c-0.1,1.7-0.6,3.3-1.6,4.8c-0.9,1.4-2,2.5-2.7,3.7c-0.1,0.1-0.2,0.3-0.2,0.5c0,0.1-0.1,0.2-0.1,0.2l-0.1,0.3
		c-0.1,0.2-0.1,0.3-0.2,0.5l-0.1,0.5c-0.1,0.7-0.2,1.4-0.3,2.2c-0.1,0.8-0.1,1.6-0.2,2.4c-0.1,0.4-0.1,0.8-0.3,1.2
		c-0.1,0.2-0.1,0.4-0.2,0.7c-0.1,0.2-0.1,0.4-0.2,0.6c-0.7,1.7-1.8,2.9-2.9,4.1c-1,1.2-2.1,2.3-2.8,3.5c-0.7,1.1-1,2.6-0.9,3.9
		c0.1,1.3,0.8,2.4,1.8,2.7l-1.2,1.1c-0.2-1.6,0.1-3.3,1-4.7l0.3-0.5h0.6l3.6,0.2l1.8,0.1l-1.1,1.4c-0.6,0.8-0.5,2.2,0.3,3.1
		c0.2,0.2,0.4,0.4,0.6,0.6l0.2,0.1l0.2,0.1c0.1,0.1,0.3,0.1,0.4,0.2c0.6,0.2,1.2,0.2,1.9,0.1c0.6-0.1,1.3-0.3,1.8-0.7
		c0.3-0.2,0.6-0.4,0.9-0.6l1-0.6c0.7-0.4,1.4-0.8,2.3-1.1c0.4-0.1,1-0.2,1.5-0.1c0.5,0.1,1,0.4,1.4,0.7l0.2,0.2v0.3l0.2,3.7
		l-0.3-0.6c0.1,0.1,0.5,0.1,0.6-0.1l-0.1,0.1c0.2-0.5,0.5-0.9,0.6-1.4c0.2-0.5,0.3-1,0.4-1.5c0.1-0.5,0.2-1,0.2-1.5s0-1,0-1.6
		c-0.1-1-0.3-2.1-0.7-3.1c-0.2-0.5-0.4-1-0.6-1.4l-0.4-0.7l-0.5-0.7c-0.6-0.9-1.3-1.8-1.9-2.7c-0.3-0.5-0.6-1-0.8-1.5
		s-0.4-1.1-0.4-1.7s0-1.2,0.3-1.7c0.2-0.5,0.6-1,0.9-1.4c0.3-0.4,0.7-0.9,0.9-1.3c0.3-0.5,0.4-1,0.2-1.6c0.2,0.5,0.1,1.1-0.1,1.6
		c-0.2,0.5-0.5,1-0.8,1.4c-0.3,0.5-0.6,0.9-0.8,1.4s-0.2,1-0.2,1.5c0.1,1,0.7,2,1.3,2.8c0.6,0.9,1.3,1.7,2,2.6l0.5,0.7l0.5,0.7
		c0.3,0.5,0.6,1,0.8,1.5c0.4,1,0.7,2.2,0.9,3.3c0.1,0.6,0.1,1.1,0.1,1.7s-0.1,1.1-0.2,1.7c-0.1,0.6-0.2,1.1-0.4,1.7
		s-0.4,1.1-0.6,1.6v0.1l-0.1,0.1c-0.6,0.7-1.6,0.8-2.4,0.3l-0.3-0.2v-0.4l-0.3-3.7l0.2,0.5c-0.2-0.2-0.4-0.3-0.6-0.3
		c-0.2,0-0.5,0-0.8,0.1c-0.6,0.2-1.2,0.6-1.8,1l-0.9,0.6c-0.3,0.2-0.7,0.5-1,0.7c-0.7,0.5-1.6,0.8-2.4,1c-0.9,0.2-1.8,0.2-2.7-0.1
		c-0.2-0.1-0.4-0.1-0.7-0.2l-0.3-0.2l-0.3-0.1c-0.5-0.3-0.8-0.6-1.1-0.9c-0.6-0.7-1-1.6-1.1-2.6c-0.1-0.9,0.1-2,0.7-2.9l0.7,1.5
		l-3.6-0.2l0.9-0.5c-0.6,1-0.8,2.3-0.7,3.5l0.2,1.4l-1.4-0.3c-1-0.2-1.9-0.9-2.4-1.7c-0.6-0.8-0.8-1.8-0.9-2.6
		c-0.2-1.8,0.2-3.6,1.1-5.1s2-2.6,3.1-3.8c1-1.1,2-2.3,2.5-3.5c0.6-1.3,0.7-2.7,0.8-4.3c0.1-0.8,0.2-1.6,0.3-2.4
		c0-0.2,0.1-0.4,0.2-0.6c0.1-0.2,0.1-0.5,0.2-0.6l0.1-0.3c0.1-0.1,0.1-0.2,0.2-0.3c0.1-0.2,0.2-0.4,0.3-0.6c0.9-1.5,2.1-2.6,2.9-3.8
		c0.7-1.2,1.2-2.5,1.4-4c0.1-1.4,0-2.9-0.5-4.3c-0.2-0.7-0.5-1.4-0.8-2c-0.3-0.7-0.7-1.2-1.2-1.9c-0.9-1.1-2-2.2-3.3-3
		c-1.2-0.8-2.6-1.5-4-2s-2.9-0.9-4.4-1.1c-1.5-0.2-3.1-0.4-4.6-0.4C-170.8,273.4-173.9,273.6-177,273.9z"/>
</g>
<g id="XMLID_51_">
	<path id="XMLID_75_" class="st6" d="M-169.4,342.7c0,0,0.1,0,0.2,0c0.2,0,0.4,0,0.7-0.1c0.6-0.1,1.4-0.5,2.3-1.1
		c0.9-0.7,1.7-1.7,2.7-3c0.5-0.6,1.1-1.3,1.9-1.8s1.8-0.9,2.9-0.9c2.2-0.1,4.2,1,6.2,1.7c1,0.3,2,0.6,3,0.5c0.2,0,0.5-0.1,0.7-0.1
		c0.2-0.1,0.5-0.1,0.7-0.2c0.5-0.2,1.1-0.5,1.7-0.7c0.3-0.1,0.7-0.2,1-0.3c0.2,0,0.3,0,0.6-0.1h0.2h0.3c0.8,0,1.5,0.2,2.1,0.5
		c1.3,0.5,2.3,1.2,3.4,1.8c1.1,0.6,2.2,1.3,3.3,1.9l1.7,1l0.8,0.5c0.3,0.2,0.6,0.4,0.9,0.6c0.3,0.3,0.6,0.6,0.9,1.1
		c0.1,0.3,0.2,0.6,0.2,0.9c0,0.2,0,0.3-0.1,0.5v0.1c0,0.1-0.1,0.2-0.1,0.3c-0.3,0.6-0.8,0.9-1.3,1.1c-0.4,0.2-0.9,0.2-1.3,0.2
		c-0.4,0-0.8,0-1.2-0.1c-0.3-0.1-0.6-0.1-1-0.3c-0.7-0.2-1.3-0.4-1.9-0.7c-1.2-0.5-2.3-1.1-3.4-1.5c-1.1-0.5-2.2-0.8-3.3-0.9
		c-2.3-0.3-4.6-0.2-6.8-0.1c-2.2,0.1-4.5,0-6.4-1.2c-0.4-0.3-0.9-0.7-1.2-1c-0.2-0.1-0.2-0.2-0.4-0.3c-0.1,0-0.3-0.1-0.4,0
		c-0.3,0-0.7,0.2-1.1,0.4c-0.4,0.2-0.8,0.3-1.1,0.5c-1.5,0.5-2.9,0.8-4,0.9c-1.1,0.2-2,0.1-2.6,0.1
		C-169.1,342.7-169.4,342.7-169.4,342.7s0.3,0,0.9,0s1.5-0.1,2.6-0.4c1.1-0.2,2.4-0.6,3.8-1.2c0.4-0.2,0.7-0.3,1.1-0.5
		c0.4-0.2,0.8-0.4,1.3-0.6c0.3-0.1,0.5-0.1,0.9,0c0.3,0.1,0.6,0.3,0.8,0.5c0.4,0.4,0.6,0.6,1,0.8c1.5,0.8,3.6,0.8,5.8,0.6
		c2.2-0.1,4.6-0.4,7.1-0.1c1.3,0.1,2.6,0.5,3.8,0.9c1.2,0.5,2.4,1,3.5,1.5c0.6,0.2,1.1,0.4,1.7,0.6c0.3,0.1,0.5,0.1,0.9,0.2
		c0.2,0,0.5,0.1,0.7,0.1s0.5-0.1,0.6-0.1c0.2-0.1,0.2-0.2,0.2-0.1l0,0v-0.1c0,0.1,0,0,0,0l0,0c0-0.1-0.2-0.2-0.3-0.4
		c-0.2-0.2-0.4-0.3-0.7-0.4l-0.8-0.5l-1.7-1c-1.1-0.6-2.2-1.3-3.3-1.9c-1.1-0.6-2.2-1.3-3.2-1.8s-1.9-0.6-3-0.2
		c-0.5,0.2-1.1,0.4-1.7,0.6c-0.3,0.1-0.6,0.2-0.9,0.3c-0.3,0.1-0.7,0.1-1,0.1c-1.4,0.1-2.6-0.3-3.6-0.7c-2.1-0.8-3.9-1.9-5.7-1.9
		c-1.7-0.1-3.1,1-4.2,2.1c-1.1,1.1-2,2.2-3,2.8c-1,0.7-1.9,0.9-2.5,0.9c-0.3,0-0.5,0-0.7,0C-169.3,342.7-169.4,342.7-169.4,342.7z"
		/>
</g>
<g id="XMLID_52_">
	<path id="XMLID_71_" class="st6" d="M-168.6,342.6c2.5,1.6,5.5,2.2,8.5,2.6c1.5,0.2,3,0.3,4.5,0.5l4.5,0.4c3,0.3,6,0.5,9,0.7
		l4.5,0.3c0.8,0.1,1.3,0,2.1-0.1c0.7-0.1,1.4-0.4,2.2-0.6l2.1-0.5l-1.4,1.7c-0.6,0.8-1.3,1.3-2,1.8s-1.5,1-2.2,1.4
		c-0.8,0.4-1.6,0.7-2.5,1l-0.7,0.2l-0.6,0.1c-0.4,0.1-0.9,0.1-1.3,0.2c-1.7,0.2-3.5,0.1-5.1-0.1c-1.7-0.1-3.3-0.4-5-0.7
		c-1.7-0.3-3.3-0.6-4.9-1c-1.6-0.4-3.3-0.8-4.9-1.3s-3.3-1.1-4.7-2.1c-0.7-0.5-1.4-1.1-1.8-1.9c-0.5-0.7-0.8-1.6-0.7-2.5h0.2
		c0.1,0.8,0.5,1.5,1,2.1s1.1,1.1,1.8,1.4c1.4,0.8,3,1.1,4.6,1.5c1.6,0.3,3.2,0.7,4.9,0.9c1.6,0.3,3.3,0.5,4.9,0.8
		c1.6,0.2,3.3,0.4,4.9,0.6s3.2,0.3,4.8,0.2c0.4,0,0.8,0,1.2-0.1c0.2,0,0.4-0.1,0.6-0.1l0.5-0.1c0.7-0.2,1.5-0.4,2.2-0.8
		c0.7-0.3,1.4-0.7,2.1-1.1c0.6-0.4,1.3-0.9,1.7-1.4l0.8,1.2c-0.7,0.1-1.4,0.4-2.2,0.5c-0.4,0.1-0.8,0.1-1.2,0.1s-0.8,0-1.2-0.1
		l-4.5-0.4c-3-0.3-6-0.6-9-1l-4.5-0.6c-1.5-0.2-3-0.4-4.5-0.7c-1.5-0.3-3-0.6-4.4-1.1c-1.4-0.5-2.8-1.1-4.1-2L-168.6,342.6z"/>
</g>
<g id="XMLID_62_">
	<path id="XMLID_41_" class="st6" d="M-71,253.5c0.6-0.5,1.3-0.9,1.8-1.3l0.4-0.3l-0.1,0.5c-0.3,2-0.7,4.1-1,6.1
		c-0.4,2-0.8,4.1-1.2,6.1s-0.8,4-1.3,6.1c-0.2,1-0.5,2-0.7,3l-0.5,3c-0.4,2-0.7,4.1-1.3,6.1c-0.3,1-0.7,2-1.1,3
		c-0.5,1-1,1.9-1.7,2.8c-0.3,0.4-0.8,0.8-1.2,1.2c-0.4,0.3-0.9,0.7-1.3,0.9c-0.9,0.6-1.8,1.1-2.7,1.6l-2.7,1.4l-0.7,0.4
		c-0.1,0,0,0.1-0.3,0.1c-0.1,0-0.2-0.1-0.2-0.2v-0.1l-0.2-0.4l-0.6-1.4l0.9,1.3l0.2,0.3c0,0.1,0.1,0.1,0,0c-0.1,0,0,0,0-0.1l0.6-0.5
		c0.8-0.6,1.7-1.2,2.5-1.8s1.7-1.2,2.5-1.8c0.4-0.3,0.7-0.6,1.1-1c0.3-0.3,0.7-0.7,0.9-1.1c0.6-0.8,1-1.6,1.4-2.5s0.7-1.9,0.9-2.8
		c0.5-1.9,0.9-3.9,1.2-6c0.2-1,0.3-2,0.6-3.1c0.2-1,0.5-2,0.7-3c0.5-2,1-4,1.5-6c0.6-2,1.1-4,1.7-6c0.6-2,1.2-4,1.8-5.9l0.3,0.2
		C-69.7,252.9-70.4,253.1-71,253.5z"/>
</g>
<g id="XMLID_43_">
	<path id="XMLID_145_" class="st6" d="M-71,253.5c1-0.4,2-0.7,3.1-0.7l0,0c0.2-0.2,0.4-0.4,0.5-0.6c0.2-0.2,0.2-0.5,0.3-0.7l0.1-0.8
		c0-0.3,0.1-0.5,0.1-0.8c0.1-1.1,0.1-2.2,0.1-3.2v0.1c-1.4-3.9-3.3-7.6-5.4-11.2c-2-3.6-4.2-7.2-6.1-10.9l0,0l0,0L-79,223l-0.9-1.7
		l-1-1.6l-1.1-1.5c-0.4-0.5-0.8-1-1.2-1.4c-0.4-0.4-0.9-0.9-1.3-1.3c-0.5-0.4-0.9-0.9-1.4-1.3s-1-0.8-1.5-1.2
		c-2-1.5-4.1-2.9-6.4-4.1c-2.2-1.2-4.5-2.4-6.8-3.5l-0.1-0.1l-0.1-0.1l-3.3-3.2l-0.4-0.4c-0.1-0.1-0.3-0.3-0.4-0.3
		c-0.2-0.2-0.5-0.3-0.7-0.4c-0.5-0.2-1-0.1-1.6,0.2l-0.3,0.1l-0.3-0.1l-3.3-0.7l-3.4-0.5l-3.4-0.4l-3.4-0.3l-3.4-0.1h-3.4l-3.4,0.1
		l-3.4,0.2l-3.4,0.3l-3.4,0.4l-3.4,0.4l-3.4,0.5c-2.3,0.4-4.5,0.8-6.7,1.2c-2.2,0.5-4.5,0.9-6.7,1.5l0.1-1.9
		c0.2,0.1,0.3,0.1,0.6,0.3c0.2,0.1,0.6,0.6,0.6,1c0,0.5-0.2,0.7-0.3,0.9s-0.2,0.3-0.3,0.4c-0.4,0.4-0.8,0.7-1.2,0.9
		c-0.2,0.1-0.4,0.2-0.6,0.3c-0.2,0.1-0.4,0.2-0.6,0.3c-0.4,0.2-0.8,0.4-1.3,0.5c-1.7,0.6-3.3,1.1-4.8,1.7l-3.1,1.2l2-2.7
		c0.2-0.3,0.3-0.3,0.4-0.4c0.1-0.1,0.1-0.1,0.2-0.1c0.1-0.1,0.2-0.1,0.3-0.1l0.3-0.1l0.2-0.1h0.1h0.1h0.1c0.1,0,0.2,0,0.3,0
		c0.1,0,0.6,0.2,0.7,0.6c0.1,0.2,0.1,0.4,0.1,0.5c0,0.1,0,0.1,0,0.2c0,0.2-0.1,0.3-0.3,0.4l-0.1,0.1l0,0l0,0l-0.1,0.1l-0.1,0.1
		l-0.1,0.1l-0.3,0.1l-0.5,0.2l0.6-1.1c0,0.3,0.1,0.7,0,1c0,0.3-0.1,0.7-0.2,1c-0.2,0.6-0.6,1.2-1,1.6c-0.4,0.4-0.8,0.8-1.1,1.2
		c-0.4,0.4-0.7,0.7-0.9,1l-0.2,0.3l-0.4,0.1l-4.1,0.9l-0.3-1.9c0.8-0.1,1.6,0,2.2,0l3.6-0.1l-3.1,1.8l-5.3,3.1l-1.3-1.9
		c0.1,0,0.3-0.1,0.4-0.1c0.2,0,0.3-0.1,0.8,0c0.1,0,0.3,0.2,0.5,0.3c0.1,0.2,0.2,0.4,0.2,0.5c0,0.3,0,0.4-0.1,0.6
		c-0.1,0.2-0.2,0.3-0.2,0.5c-0.3,0.5-0.6,0.8-0.9,1.1c-0.3,0.3-0.6,0.6-1,0.9c-0.3,0.3-0.7,0.6-1,0.8c-1.4,1.1-2.8,2-4.3,2.9
		l-0.6-1.6l2.7-0.3l7.2-0.7l-6.8,2.4l-4.7,1.7l0.5-1c0,0.2,0.1,0.4,0.1,0.6s0,0.5,0,0.7c0,0.3-0.1,0.6-0.3,0.8
		c-0.1,0.3-0.4,0.5-0.5,0.6c-0.4,0.3-0.7,0.5-1.1,0.6c-0.3,0.2-0.6,0.3-0.9,0.5l-0.3-1.6c0.4,0.1,0.7,0.3,0.9,0.6
		c0.2,0.2,0.3,0.5,0.3,0.7c0.1,0.4,0.2,0.8,0.2,1.1c0,0.7,0,1.4,0,2c-0.1,1.3-0.3,2.5-0.5,3.8c-0.2,1.2-0.5,2.5-0.7,3.7l-0.4,1.8
		c-0.1,0.6-0.3,1.2-0.4,1.8l-0.8-0.8c0.4,0,1,0,1.5,0.3c0.3,0.2,0.5,0.5,0.6,0.7c0.1,0.3,0.2,0.5,0.2,0.7l0.1,0.5
		c0,0.1,0.1,0.2,0,0.2l0,0l0.1,0.1c0.1,0.1,0.1,0.1,0.2,0.1c0.1,0,0.3,0.1,0.4,0.1c0.6,0.1,1.3,0,2-0.1c0.7-0.1,1.4-0.3,2.1-0.5
		l0.5,1.2l-0.5,0.3l-0.3,0.1l-0.2,0.1h-0.1h-0.1h-0.1c0,0-0.1,0-0.2,0h-0.1c0,0-0.4-0.2-0.4-0.5s0-0.2,0-0.3c0,0,0-0.1,0.1-0.1
		c0.1-0.1,0.1-0.1,0.1-0.1l0.1-0.1h0.1l0.1-0.1l0.2-0.1l0.3-0.1c0.2-0.1,0.4-0.2,0.6-0.2l2.5-0.8l-1.8,1.9c-0.3,0.3-0.6,0.6-0.9,0.8
		c-0.2,0.1-0.4,0.2-0.5,0.3c-0.2,0.1-0.4,0.2-0.6,0.2c0,0-0.3,0.1-0.5,0.1c-0.2,0.1-0.4,0.1-0.6,0.1c-0.2,0-0.4,0-0.6,0
		s-0.4-0.1-0.6-0.1c-0.8-0.2-1.5-0.5-2.2-1c-0.3-0.2-0.6-0.5-0.9-0.8s-0.5-0.7-0.7-1l1.1-0.1c-1,3.3-1.7,6.7-2.3,10.2
		c-0.6,3.4-1,6.9-1.1,10.4c-0.1,1.7-0.1,3.5-0.1,5.2c0,1.7,0.1,3.5,0.1,5.2c0,1.7,0.1,3.5,0.3,5.2c0.1,0.9,0.3,1.7,0.4,2.6
		c0.1,0.9,0.1,1.8-0.4,2.6c0.4-0.8,0.4-1.7,0.3-2.5c-0.2-0.9-0.4-1.7-0.5-2.6c-0.3-1.7-0.4-3.5-0.4-5.2c-0.1-1.7-0.2-3.5-0.3-5.2
		c-0.1-1.8-0.1-3.5,0-5.3c0.1-3.5,0.4-7,0.8-10.5c0.5-3.5,1.2-6.9,2.2-10.3l0.4-1.4l0.7,1.3c0.2,0.3,0.3,0.5,0.5,0.8
		c0.2,0.2,0.4,0.4,0.7,0.6c0.5,0.4,1.1,0.6,1.7,0.7c0.2,0,0.3,0.1,0.5,0.1s0.3,0,0.5,0s0.3,0,0.5-0.1c0.1,0,0.3-0.1,0.4-0.1
		c0.1-0.1,0.3-0.1,0.4-0.2c0.1-0.1,0.3-0.1,0.4-0.2c0.3-0.2,0.5-0.4,0.7-0.6l0.7,1c-0.2,0.1-0.3,0.1-0.5,0.2h-0.4h-0.1l0,0l0,0l0,0
		c0,0,0,0,0.1-0.1l0.1-0.1c0-0.1,0,0,0-0.3s-0.4-0.5-0.4-0.5h-0.1c-0.1,0-0.2,0-0.2,0s0,0-0.1,0l0,0l0,0h0.1l0.2-0.1l0.5-0.3
		l0.5,1.2c-0.8,0.3-1.5,0.4-2.3,0.6c-0.8,0.1-1.6,0.2-2.4,0.2c-0.2,0-0.4-0.1-0.7-0.1c-0.1,0-0.3-0.1-0.3-0.1l-0.1-0.1
		c-0.1-0.1-0.2-0.1-0.3-0.2c-0.3-0.3-0.4-0.6-0.5-0.8c-0.1-0.2-0.1-0.4-0.1-0.6c-0.1-0.3-0.2-0.5-0.2-0.5c-0.1-0.1-0.3-0.1-0.6-0.1
		l-0.9-0.1l0.1-0.9c0.1-0.7,0.2-1.3,0.3-1.9l0.4-1.8c0.2-1.2,0.5-2.4,0.7-3.7c0.2-1.2,0.4-2.4,0.5-3.6c0-0.6,0.1-1.2,0-1.7
		c0-0.3-0.1-0.5-0.1-0.7c0-0.1-0.1-0.2-0.1-0.2s0,0.1,0.1,0.1l-0.3-1.6c0.3-0.2,0.7-0.4,1-0.5c0.3-0.2,0.6-0.3,0.7-0.4
		c0.1-0.1,0.1-0.1,0.1-0.2c0,0,0-0.1,0.1-0.2c0-0.1,0-0.2,0-0.3c0-0.1,0-0.3-0.1-0.4l-0.1-0.9l0.7-0.3l4.7-1.7l0.4,1.7l-2.7,0.3
		l-3.9,0.4l3.4-2.1c1.4-0.9,2.8-1.8,4.1-2.8c0.3-0.3,0.6-0.5,1-0.8c0.3-0.2,0.6-0.5,0.8-0.8c0.3-0.3,0.5-0.6,0.7-0.8
		c0-0.1,0.1-0.1,0.1-0.1s0,0,0,0.2c0,0.1,0.1,0.3,0.2,0.4c0.1,0.1,0.3,0.2,0.3,0.3c0.3,0.1,0.2,0,0.2,0c-0.1,0-0.1,0-0.2,0.1l-8.6,3
		l7.8-4.6l5.3-3.1l0.5,1.7c-0.8,0-1.5-0.1-2,0l-0.3-1.9l4.1-0.9l-0.6,0.4c0.4-0.5,0.8-0.9,1.2-1.3c0.4-0.4,0.7-0.7,1-1.1
		c0.3-0.3,0.5-0.7,0.6-1c0-0.1,0.1-0.2,0.1-0.3c0-0.1,0-0.2,0-0.3c0-0.2,0-0.4,0-0.5l-0.1-0.8l0.7-0.3l0.5-0.2l0.2-0.1h0.1l0,0l0,0
		l0,0l-0.3,0.2c-0.1,0.1-0.2,0.3-0.2,0.4c0,0.1,0,0,0,0.2c0,0.1,0,0.3,0.1,0.5c0.1,0.4,0.7,0.6,0.7,0.6c0.1,0,0.2,0,0.3,0l0,0l0,0
		l0,0h-0.1l-0.2,0.1l-0.2,0.1l0,0c0,0,0,0,0.2-0.2l-1.2-1.4c1.7-0.7,3.3-1.1,4.9-1.7c0.4-0.1,0.8-0.3,1.1-0.5l0.5-0.3
		c0.2-0.1,0.3-0.2,0.5-0.3c0.3-0.2,0.7-0.4,0.8-0.6l0.1-0.1c0,0-0.1,0-0.1,0.3c0,0.3,0.2,0.5,0.2,0.5c0.1,0,0,0,0,0l-3.3-1.2
		l3.4-0.8c2.2-0.5,4.5-1,6.8-1.4c2.3-0.4,4.5-0.8,6.8-1.2l3.4-0.5l3.4-0.4l3.4-0.4l3.5-0.3l3.5-0.2l3.5-0.1h3.5l3.5,0.1l3.5,0.3
		l3.5,0.4l3.4,0.6l3.4,0.7l-0.6,0.1c0.4-0.2,0.9-0.4,1.4-0.4c0.5-0.1,1,0,1.5,0.2s0.9,0.4,1.3,0.7c0.2,0.2,0.3,0.3,0.5,0.4l0.4,0.4
		l3.2,3.3l-0.2-0.1c2.3,1.2,4.6,2.4,6.8,3.7s4.4,2.7,6.4,4.3c0.5,0.4,1,0.8,1.5,1.3c0.5,0.4,1,0.9,1.4,1.3c0.5,0.5,0.9,1,1.3,1.4
		c0.4,0.5,0.8,1,1.2,1.5l1.1,1.6l1,1.7l0.9,1.8l0.7,1.8l0,0c1.8,3.7,3.9,7.4,5.8,11.1c1.9,3.7,3.8,7.5,5.1,11.5l0,0l0,0
		c0,1.1-0.1,2.2-0.2,3.3c0,0.3-0.1,0.5-0.2,0.8l-0.2,0.8c-0.1,0.3-0.2,0.6-0.3,0.8c-0.2,0.2-0.4,0.4-0.6,0.6l0,0l0,0
		C-69,252.9-70.1,253.2-71,253.5z"/>
</g>
<g id="XMLID_60_">
	<path id="XMLID_37_" class="st6" d="M-167.8,231.6c-0.8,0.4-1.6,0.9-2.3,1.4c-0.7,0.5-1.4,1.1-2,1.8c-0.6,0.6-1.1,1.3-1.6,2.1
		c-0.5,0.7-0.8,1.5-1.1,2.3l-1.5,4l0.5-4.3c0.3-2.4,0.6-4.8,0.9-7.2l1.1,0.8c-0.4,0.3-0.9,0.6-1.3,0.9c-0.4,0.4-0.8,0.7-1.2,1.1
		c-0.7,0.8-1.4,1.6-2,2.5c-1.2,1.8-2,3.9-2.7,6c-0.7,2.1-1.2,4.3-1.6,6.5l-1.3,6.7c-0.4,2.2-0.9,4.5-1.4,6.7c-0.5,2.2-1,4.5-1.6,6.7
		c-0.6,2.2-1.3,4.4-2,6.6c-0.7,2.2-1.6,4.3-2.6,6.4l-0.3,0.6l-0.2-0.6l-1.1-2.9l0.3-0.1c0.1,0.4,0.1,0.9-0.2,1.2
		c-0.2,0.4-0.5,0.6-0.7,1c0.1-0.4,0.4-0.7,0.6-1.1c0.2-0.4,0.1-0.7,0-1.1l0.3-0.1l1.4,2.8h-0.5c0.4-1.1,0.7-2.2,1.1-3.2
		c0.3-1.1,0.7-2.2,1-3.3c0.6-2.2,1.1-4.4,1.6-6.6c1-4.4,1.8-8.9,2.6-13.4c0.4-2.2,0.8-4.5,1.3-6.8s1-4.5,1.8-6.8
		c0.7-2.2,1.7-4.4,3.1-6.4c0.7-1,1.5-1.9,2.4-2.7c0.4-0.4,1-0.8,1.4-1.1c0.5-0.3,1-0.6,1.6-0.9l1.4-0.8l-0.3,1.6
		c-0.4,2.4-0.9,4.8-1.3,7.1l-1-0.3c0.8-1.7,1.9-3.2,3.3-4.4c0.7-0.6,1.4-1.2,2.2-1.6C-169.5,232.3-168.7,231.9-167.8,231.6z"/>
</g>
<g id="XMLID_59_">
	<path id="XMLID_35_" class="st6" d="M-147.2,228.1c-2.2,1.5-4.6,2.7-7.2,3.5c-0.6,0.2-1.3,0.4-2,0.5c-0.7,0.1-1.4,0.2-2,0.3
		c-1.3,0.2-2.6,0.3-3.8,0.5c-0.6,0.1-1.2,0.3-1.7,0.5c-0.3,0.1-0.6,0.2-0.8,0.4c-0.3,0.2-0.6,0.3-0.8,0.5c-0.4,0.3-0.9,0.8-1.3,1.2
		c-0.4,0.5-0.8,1-1.2,1.5c-0.8,1-1.6,2.1-2.6,3.1c-0.5,0.5-1.1,1-1.7,1.4c-0.6,0.4-1.3,0.7-2.1,0.9l-2.9,0.8l2-2.2
		c1.6-1.7,3.2-3.5,4.8-5.1c0.8-0.8,1.6-1.7,2.5-2.5c0.8-0.8,1.7-1.7,2.5-2.5l0.1,0.1l-0.6,0.1l0.6-0.2l0.2-0.1l-0.1,0.2
		c-0.7,1-1.4,1.9-2,2.9c-0.7,0.9-1.4,1.9-2.1,2.8c-1.4,1.9-2.9,3.7-4.3,5.5l-0.9-1.4c0.5-0.2,1.1-0.4,1.5-0.7
		c0.5-0.3,0.9-0.7,1.3-1.1c0.8-0.9,1.6-1.9,2.4-3c0.4-0.5,0.9-1.1,1.3-1.6c0.5-0.5,1-1,1.6-1.5c0.3-0.3,0.6-0.4,0.9-0.6
		c0.4-0.2,0.7-0.3,1-0.5c0.7-0.3,1.4-0.4,2.1-0.5c1.4-0.2,2.7-0.3,4-0.3c0.6,0,1.3-0.1,1.9-0.1c0.6-0.1,1.3-0.2,1.9-0.3
		C-152.1,229.9-149.6,229.1-147.2,228.1z"/>
</g>
<g id="XMLID_80_">
	<path id="XMLID_33_" class="st6" d="M-94.1,247c-0.1-0.1-0.2-0.2-0.3-0.3c-0.1-0.1-0.2-0.2-0.3-0.3c-0.2-0.2-0.4-0.4-0.5-0.6
		c-0.3-0.4-0.7-0.8-1-1.3c-0.6-0.8-1.2-1.7-1.7-2.6l1.5,0.2l-2.2,2.2l-5.2,5.3l3.7-6.4l1.7-2.9l1.2,1.3l-4.5,1.8l-3.4,1.4l2.3-2.8
		l3.5-4.2l1.1,1.4l-2.4,1.1l-3.1,1.4l2-2.7l2.7-3.7l3.7-5.3l-2.2,6.1c-0.3,0.9-0.9,1.9-1.9,2.6c-0.9,0.6-2.1,0.8-3,0.8
		c-2,0-3.7-0.5-5.4-0.6h-1.6l1-1.3l2.7-3.4l0.9,1.2c-1.3,0.5-2.6,0.8-3.9,1l-3.9,0.6c-1.3,0.2-2.5,0.5-3.6,0.9
		c-1.1,0.4-2.1,1.1-2.9,2l-1.3,1.5v-2c0-2.1,0.6-4.2,1.7-5.9l0.9,1c-10,4.5-19.3,10.4-27.7,17.5l-0.8-0.8l16.5-17.2l0.7,0.6
		c-0.4,0.6-1.1,1-1.8,1.2s-1.4,0.2-2,0.2s-1.3,0-1.8,0.1c-0.5,0.1-1,0.4-1.2,0.9l-0.3,0.5l-0.4-0.4l-1.2-1.2l0.3,0.1
		c-0.5,0-1.1,0-1.6,0.1c-0.3,0-0.5,0.1-0.8,0.2c-0.3,0-0.5,0.1-0.8,0.2c-0.5,0.2-1,0.4-1.5,0.6s-0.9,0.5-1.4,0.8
		c-1.8,1.1-3.4,2.6-5,4.2l0,0c-0.4,0.6-0.9,1.1-1.4,1.7c-0.5,0.5-1,1-1.5,1.5c-1,1-2.2,1.9-3.3,2.7c-2.3,1.7-4.7,3.2-7,4.9l-0.3-0.4
		c1.7-1.1,3.4-2.2,5.1-3.4c0.8-0.6,1.6-1.2,2.4-1.8c0.8-0.6,1.6-1.3,2.3-2l1.1-1.1l1-1.1l1-1.2l0.9-1.2l0.8-1.3l0.8-1.3l0.7-1.4
		l0.6-1.4l0.3,0.2l-8.4,7.3l-0.2,0.2l0.1-0.3c0.4-1.7,1.5-3.2,2.9-4.3l0.1,0.1l-3.2,1.7l-0.4,0.2l0.3-0.3c3.4-3.4,6.1-7.5,7.8-12.1
		c-1.6,4.6-4.3,8.7-7.7,12.2l-0.1-0.1l3.1-1.8l0.1,0.1c-1.4,1-2.4,2.5-2.8,4.2l-0.2-0.1l8.3-7.4l0.5-0.4l-0.2,0.6l-0.5,1.4l-0.7,1.4
		l-0.8,1.3l-0.8,1.3l-0.9,1.2l-1,1.2l-1,1.1l-1.1,1.1c-0.8,0.7-1.5,1.4-2.3,2c-0.8,0.6-1.6,1.3-2.4,1.9c-1.6,1.2-3.3,2.3-5,3.5
		l-0.3-0.4c2.3-1.8,4.7-3.3,6.9-5c1.1-0.8,2.2-1.7,3.2-2.7c0.5-0.5,1-1,1.5-1.5s0.9-1.1,1.3-1.6l0,0l0,0c1.5-1.6,3.1-3.1,5-4.3
		c0.5-0.3,1-0.6,1.5-0.8c0.5-0.3,1-0.5,1.6-0.6c0.3-0.1,0.5-0.2,0.8-0.2c0.3-0.1,0.6-0.1,0.8-0.2c0.6-0.1,1.1-0.1,1.7-0.2h0.2
		l0.1,0.1l1.2,1.2l-0.7,0.1c0.2-0.3,0.4-0.7,0.7-0.9s0.7-0.4,1-0.5c0.7-0.2,1.4-0.1,2-0.1s1.2,0,1.8-0.2c0.5-0.1,1-0.4,1.3-0.9
		l0.7,0.6l-16.3,17.3l-0.8-0.8c8.3-7.3,17.7-13.3,27.8-18l2.1-1l-1.2,2c-1,1.6-1.5,3.4-1.4,5.2l-1.3-0.5c0.5-0.5,1-1,1.6-1.4
		c0.6-0.4,1.2-0.7,1.9-1c1.3-0.5,2.6-0.8,3.9-1.1c2.6-0.5,5.2-0.6,7.5-1.5l2.8-1.1l-1.8,2.4l-2.7,3.4l-0.6-1.3
		c1.9,0.1,3.7,0.5,5.3,0.5c0.8,0,1.5-0.2,2.1-0.5c0.5-0.4,0.9-1,1.2-1.7l1.5,0.8l-2.6,3.7l-1.1-1.3l2.4-1.1l3.6-1.7l-2.5,3.1
		l-3.4,4.2l-1.1-1.4l4.4-2l2.5-1l-1.3,2.4l-1.7,3l-1.5-1.1l2.2-2.3l0.8-0.9l0.7,1c0.5,0.8,1.1,1.7,1.7,2.5c0.3,0.4,0.6,0.8,0.9,1.2
		c0.2,0.2,0.3,0.4,0.5,0.5l0.2,0.2c0.1,0.1,0.2,0.2,0.3,0.2L-94.1,247z"/>
</g>
<g id="XMLID_57_">
	<path id="XMLID_31_" class="st6" d="M-87.8,294.7l-0.3-2.8c0-0.9-0.1-1.9-0.1-2.8c0-1.9,0-3.7,0-5.6c0.1-3.7,0.3-7.5,0.4-11.2
		c0.1-1.9,0.2-3.7,0.2-5.6c0.1-1.9,0.1-3.7,0.1-5.6l-0.1-2.8l-0.1-2.8l-0.3-2.7l-0.4-2.7l1.6-0.1c0,0.6,0,1.1-0.1,1.7
		c-0.1,0.6-0.2,1.1-0.4,1.7c-0.3,1.1-0.9,2.2-1.6,3.1c-0.4,0.5-0.8,0.9-1.2,1.3s-0.9,0.7-1.4,1.1c-0.9,0.6-2,1.1-3,1.6
		c-2.1,0.8-4.3,1.3-6.4,1.5c-2.2,0.2-4.4,0.3-6.6,0.1v-1.9l1.3-0.1l1.3-0.2l1.3-0.3l1.3-0.4l1.3-0.5l1.2-0.6l1.2-0.7l1.2-0.8
		c0.8-0.5,1.5-1.1,2.2-1.7c0.7-0.6,1.4-1.2,2.1-1.8c1.4-1.3,2.8-2.6,4.1-3.9l1.3,1.4l-1.1,0.9l-1.1,0.9l-1.2,0.8l-1.2,0.7l-1.2,0.7
		l-1.3,0.6l-1.3,0.6l-1.3,0.5l-1.3,0.4l-1.4,0.4l-1.4,0.3l-1.4,0.2l-1.4,0.1l-1.4,0.1h-1.4l-1.4-0.1l0.1-1.7h1.2h1.3l1.2-0.1
		l1.2-0.2l1.2-0.3l1.2-0.3l1.2-0.4l1.2-0.5l1.1-0.5l1.1-0.6l1.1-0.7l1-0.7l1-0.8l0.9-0.8l0.9-0.9l0.8-1l0.7,0.9l-6.7,2.9l-6.7,2.9
		l-0.3-0.6c2-1.2,4-2.5,5.8-4.1c0.9-0.8,1.7-1.6,2.6-2.4c0.4-0.4,0.8-0.8,1.2-1.3s0.8-0.9,1.2-1.4c-0.3,0.5-0.7,0.9-1.1,1.4
		c-0.4,0.5-0.8,0.9-1.2,1.4c-0.8,0.9-1.6,1.8-2.5,2.6c-1.7,1.6-3.6,3.1-5.7,4.4l-0.3-0.6l6.6-3.2l6.6-3.1l2.4-1.1l-1.7,2.1l-0.8,1
		l-0.9,1l-1,0.9l-1,0.9l-1.1,0.8l-1.1,0.7L-97,255l-1.2,0.6l-1.2,0.5l-1.3,0.5l-1.3,0.4l-1.3,0.3l-1.3,0.2l-1.3,0.1l-1.4,0.1h-1.4
		l0.1-1.7l1.3,0.1h1.3l1.3-0.1l1.3-0.2l1.3-0.2l1.3-0.3l1.3-0.3l1.3-0.4l1.2-0.5l1.2-0.5l1.8-0.8l1.1-0.6l1.1-0.7l1.1-0.8l1-0.8
		l1-0.9l1.3,1.4c-1.3,1.4-2.7,2.7-4.2,4c-0.7,0.7-1.5,1.3-2.2,1.9c-0.8,0.6-1.6,1.2-2.4,1.7l-1.2,0.8l-1.3,0.7l-1.3,0.7l-1.4,0.6
		l-1.4,0.5l-1.5,0.4l-1.5,0.2l-1.5,0.1v-1.9c2.1,0.2,4.1,0.2,6.2,0c2.1-0.2,4.1-0.6,6-1.3c0.9-0.4,1.8-0.8,2.7-1.4
		c0.4-0.3,0.8-0.6,1.2-0.9c0.4-0.3,0.7-0.7,1-1c0.3-0.4,0.6-0.8,0.8-1.2s0.4-0.9,0.6-1.3c0.2-0.5,0.3-0.9,0.3-1.4
		c0.1-0.5,0.1-1,0.1-1.5l1.6-0.1l0.3,2.8l0.2,2.8l0.1,2.8v2.8c0,1.9-0.1,3.7-0.2,5.6c-0.1,1.9-0.2,3.7-0.4,5.6
		c-0.3,3.7-0.6,7.4-0.9,11.1c-0.1,1.9-0.2,3.7-0.2,5.6c0,0.9,0,1.9,0,2.8L-87.8,294.7z"/>
</g>
<path id="XMLID_55_" class="st18" d="M-154.2,286.1c-1.1-2.3-2.3-4.5-3.8-6.5c-0.7-0.9-1.4-1.8-2.4-2.3c-0.8-0.4-1.8-0.5-2.7-0.5
	c-2.3-0.2-4.6-0.3-6.9,0.1s-4.5,1.4-5.9,3.3c-1.6,2-1.9,4.7-1.9,7.3c0,1.7,0.1,3.4,0.7,5c1,3,3.6,5.2,6.6,6.3c3,1,6.3,0.8,9.2-0.3
	c2.6-1,5-2.6,6.4-5s1.7-5.5,0.4-7.9"/>
<path id="XMLID_56_" class="st18" d="M-110.3,290.1c-1.1-2.3-2.3-4.5-3.8-6.5c-0.7-0.9-1.4-1.8-2.4-2.3c-0.8-0.4-1.8-0.5-2.7-0.5
	c-2.3-0.2-4.6-0.3-6.9,0.1c-2.3,0.4-4.5,1.4-5.9,3.3c-1.6,2-1.9,4.7-1.9,7.3c0,1.7,0.1,3.4,0.7,5c1,3,3.6,5.2,6.6,6.3
	s6.3,0.8,9.2-0.3c2.6-1,5-2.6,6.4-5s1.7-5.5,0.4-7.9"/>
<g id="XMLID_1_">
	<path id="XMLID_29_" class="st6" d="M-188.3,244h-0.6h-0.1v-0.1l-0.2-0.9l0.2,0.2c-0.1,0.1-0.2,0.2-0.2,0.2l0,0l0,0v-0.1l0,0l0,0
		l-0.1,0.1l0.4,0.2l-0.4,0.3l-0.4,0.3l-0.1-0.5l-0.1-0.8l0.3,0.3c-0.1,0-0.3,0.1-0.4,0.2l-0.6,0.9l-0.1-1.2
		c-0.1-0.6-0.4-1.1-0.8-1.4l1-0.5l0.3,1.3l0.4,1.7l-1.4-1.1c-0.4-0.3-0.6-0.9-0.4-1.4l1.2-3.8l0.2,4v0.5h-1.4v-0.8l1.4,0.3
		c-0.1,0.3-0.1,0.7-0.1,1l-1.7,0.1v-1v-4.4l1.6,4.1c0.1,0.1,0.1,0.3,0,0.5c0,0.2-0.2,0.4-0.3,0.5c-0.2,0.2-0.4,0.3-0.6,0.3
		s-0.4,0-0.6,0c-0.1,0-0.2-0.1-0.3-0.2c-0.1,0-0.1-0.1-0.1-0.2l0,0v-0.1l0,0c0,0-0.1-0.2-0.1-0.3s0-0.2,0-0.2c0-0.1,0-0.3,0-0.4
		c0-0.2,0.1-0.3,0.1-0.5l1.7-4.2v4.6v1.1l-1.8-0.2l0.2-1.1l0.7-4l1.1,4c0.2,0.6,0.2,1.2,0.1,1.8l-1.9-0.3l0.3-1.4l1.6-8.3l0.3,8.5
		l0.1,2.3l-1.9-0.5c0.3-0.5,0.6-1,1-1.4l1.4-1.5l0.3,2c0.1,0.7,0,1.5-0.2,2.1l-3.1,8.3l1.2-8.8c0.1-0.9,0.6-1.6,1.4-2l2.3-1.3
		l-0.9,2.5l-0.6,1.7l-1.9,4.9l0.1-5.2c0-1,0.5-1.8,1.4-2.2l1.1-0.6l0.1,1.2c0.1,0.5,0,0.9-0.3,1.4l-1,1.9l-0.5-2
		c-0.2-0.7,0.1-1.3,0.6-1.7l1.2-0.9l0.1,1.5v0.9l-1.2-0.6c0.1-0.1,0.2-0.2,0.3-0.3l0.9-1.8l0.5,1.8c0.1,0.6,0,1.1-0.4,1.5l-1-0.8
		c0.2-0.3,0.6-0.6,0.9-0.7l0.9-0.3v0.9v0.5l-1.2-0.2c0.1-0.4,0.4-0.7,0.7-0.9l0.9-0.7v1.1c0,0.5-0.2,0.9-0.4,1.3l-0.9-0.4
		c0.4-0.8,0.9-1.5,1.5-2.1l0.6-0.6l-0.1,0.7c0,0.5-0.3,0.9-0.7,1.2h-0.1h-0.1c-0.4-0.2-0.9-0.3-1.4-0.1c0.4-0.3,1-0.4,1.5-0.2h-0.2
		c0.2-0.2,0.4-0.6,0.3-0.9l0.5,0.2c-0.4,0.7-0.8,1.4-1,2.1l-0.9-0.4c0.1-0.2,0.2-0.5,0.1-0.7l0.9,0.4c-0.1,0.1-0.2,0.3-0.2,0.4
		l-0.8,4.7l-0.3-4.9v-0.5l0.9,0.6c-0.1,0.1-0.2,0.2-0.3,0.3l-1.1-0.8c0-0.1,0-0.2,0-0.2l1.4,0.1c-0.1,0.4-0.4,0.8-0.8,1l-1,0.8
		l-0.2-1.3l-0.1-0.9l1.3,0.6C-188.4,244.1-188.4,244.1-188.3,244l-1.6-0.2c0-0.1,0.1-0.2,0-0.3l1.3,0.7c-0.2,0.1-0.4,0.4-0.3,0.6
		l-1.8-0.3l0.5-1.7l1.4,1.2c-0.2,0.1-0.4,0.4-0.4,0.6l-1.8-0.6c0.1-0.4,0.2-0.8,0.1-1.2l1.7,0.5c-0.3,0.3-0.5,0.7-0.8,1.1l-1.8,3
		l-0.1-3.5l-0.1-2.3l2,0.2l-0.3,1.4l-1.9-0.3c0.1-0.4,0-0.7,0-1.1h1.8l-0.2,1l-1.8-0.2l0.1-1.1l1.7,0.4c0,0.1,0,0.1,0,0.1s0,0,0-0.1
		v-0.1c0,0-0.1-0.2-0.1-0.1l0,0l0,0v-0.1l0,0l-0.1-0.1c-0.1-0.1-0.1-0.1-0.2-0.1s-0.2,0-0.3,0c-0.1,0-0.2,0-0.3,0.2
		c-0.1,0.1-0.2,0.2-0.2,0.4s0,0.3,0,0.4l1.6-0.3l-0.1,1l-1.7,0c-0.1-0.6,0-1.2,0.3-1.8l1.6-3.7l-0.2,4v0.8h-1.4v-0.5l1.3,0.2
		c0-0.1,0-0.1-0.1-0.1l-1.1,0.6l-0.1-1.3l-0.1-1.6l1.1,1.1c0.6,0.6,0.9,1.4,0.9,2.3l-0.7-0.3c0.3-0.3,0.7-0.4,1.1-0.3l0.3,0.1v0.3
		v0.8l-0.5-0.2l0.4-0.2l0.4-0.2v0.4c0,0.1-0.2,0.3-0.3,0.3c-0.1,0-0.2,0-0.3,0s-0.1-0.1-0.2-0.2c0,0,0-0.1,0-0.2l0,0
		c0-0.1,0,0,0-0.1c0-0.1,0.1-0.2,0.2-0.3c0.1-0.1,0.2-0.1,0.2-0.1l0.3-0.1v0.2v0.9l-0.1-0.1L-188.3,244z"/>
</g>
<g id="XMLID_68_">
	<path id="XMLID_27_" class="st6" d="M-165.3,289.4c0,0-0.4,0-0.7-0.1c-0.3-0.1-0.6-0.2-0.7-0.5c-0.1-0.2-0.1-0.6,0-0.9
		s0.4-0.6,0.4-0.6s0.4,0,0.7,0c0.3,0.1,0.6,0.2,0.7,0.5c0.1,0.2,0.1,0.6,0,0.9C-165,289.2-165.3,289.4-165.3,289.4z"/>
</g>
<g id="XMLID_69_">
	<path id="XMLID_25_" class="st6" d="M-121.9,293.6c0,0-0.4,0-0.7-0.1s-0.6-0.2-0.7-0.5c-0.1-0.2-0.1-0.6,0-0.9
		c0.1-0.3,0.4-0.6,0.4-0.6s0.4,0,0.7,0c0.3,0.1,0.6,0.2,0.7,0.5c0.1,0.2,0.1,0.6,0,0.9C-121.7,293.4-121.9,293.6-121.9,293.6z"/>
</g>
<g id="XMLID_73_">
	<path id="XMLID_143_" class="st6" d="M-153,382.1v0.1c0,0.1-0.1,0.2-0.1,0.4c0,0.3,0,0.8,0.1,1.3c0.2,0.5,0.4,1,0.9,1.5
		c0.2,0.2,0.4,0.4,0.7,0.6c0.2,0.2,0.5,0.3,0.7,0.4c0.4,0.2,0.6,0.2,1,0.3c0.3,0.1,0.7,0.2,1,0.2c0.7,0.1,1.3,0.2,1.9,0.2
		c0.6,0,1.1,0.1,1.5,0.1c0.4,0.1,0.6,0.1,0.6,0.1s-0.7,0.5-1.9,0.9c-0.6,0.2-1.3,0.4-2.2,0.4c-0.4,0-0.9,0-1.3-0.1
		c-0.4-0.1-1-0.2-1.3-0.4c-0.5-0.2-0.9-0.5-1.3-0.8c-0.3-0.3-0.6-0.7-0.9-1.1c-0.5-0.8-0.6-1.6-0.5-2.4c0-0.4,0.1-0.7,0.2-0.9
		c0.1-0.3,0.3-0.5,0.4-0.6c0.1-0.2,0.3-0.2,0.3-0.3C-153.1,382.1-153,382.1-153,382.1z"/>
</g>
<g id="XMLID_74_">
	<path id="XMLID_180_" class="st6" d="M-159.3,355.7c0,0,0.2-0.1,0.6-0.4c0.2-0.1,0.5-0.2,0.8-0.3c0.3-0.1,0.7-0.2,1.1-0.3
		s0.8-0.2,1.3-0.2s1,0,1.5,0c0.5,0.1,1.1,0.1,1.6,0.2c0.5,0.1,1.1,0.3,1.6,0.5c0.5,0.2,1,0.4,1.5,0.7c0.5,0.3,0.9,0.6,1.3,0.9
		c0.4,0.3,0.8,0.7,1.1,1c0.3,0.3,0.6,0.7,0.8,1c0.2,0.3,0.4,0.7,0.6,1c0.2,0.3,0.3,0.6,0.3,0.8c0.2,0.5,0.2,0.7,0.2,0.7
		s-0.2-0.2-0.6-0.5c-0.3-0.3-0.8-0.7-1.4-1.2c-0.3-0.2-0.6-0.5-1-0.7c-0.3-0.3-0.7-0.5-1.1-0.7c-0.8-0.5-1.7-0.9-2.6-1.2
		c-0.5-0.2-0.9-0.3-1.4-0.5c-0.5-0.2-0.9-0.3-1.3-0.4c-0.4-0.1-0.9-0.2-1.3-0.3s-0.8-0.1-1.2-0.2c-0.8-0.1-1.4-0.1-1.9-0.1
		C-159,355.7-159.3,355.7-159.3,355.7z"/>
</g>
</svg>
