<?xml version="1.0" encoding="utf-8"?>
<!-- Generator: Adobe Illustrator 19.0.0, SVG Export Plug-In . SVG Version: 6.00 Build 0)  -->
<svg version="1.1" id="Layer_1" xmlns="http://www.w3.org/2000/svg" xmlns:xlink="http://www.w3.org/1999/xlink" x="0px" y="0px"
	 viewBox="0 0 283.5 283.5" style="enable-background:new 0 0 283.5 283.5;" xml:space="preserve">
<style type="text/css">
	.st0{fill:#FFFFFF;}
	.st1{fill:#A4A4A4;}
	.st2{fill:#646464;}
	.st3{fill:#5C5C5C;}
	.st4{fill:#393939;}
	.st5{opacity:0.2;}
	.st6{fill:#202020;}
	.st7{opacity:0.25;}
	.st8{opacity:0.5;fill:#202020;}
	.st9{opacity:0.4;}
	.st10{opacity:0.9;fill:#202020;}
	.st11{opacity:0.25;fill:#202020;}
	.st12{opacity:0.2;fill:#202020;}
	.st13{fill:#4E4E4E;}
	.st14{fill:none;}
	.st15{opacity:0.75;fill:#202020;}
	.st16{opacity:0.25;fill:#FFFFFF;}
	.st17{opacity:0.1;fill:#FFFFFF;}
	.st18{fill:none;stroke:#202020;stroke-miterlimit:10;}
</style>
<g id="XMLID_4_">
	<circle id="XMLID_2_" class="st0" cx="141.7" cy="141.7" r="141.7"/>
</g>
<path id="XMLID_183_" class="st1" d="M196.6,122.8c2.7-5.8,5.5-11.6,8.2-17.4c1.4-3-4.3-8.8-9.4-11.5c0.1-0.6,0.2-1.2,0.1-1.7
	c-0.3-2.4-2.4-4.5-4.1-6.1c-1.4-1.3-2.9-2.5-4.6-3.5c-0.5-3.6-12.2-12.3-15.4-11.6c-3.7,0.8-7.3,1.7-10.9,2.7
	c-3.4-2.4-7.1-4-8.6-3.5c-0.3,0.1-0.6,0.2-0.8,0.3c-0.1-0.5-1.2-1.2-1.5-1.1c-0.4,0.2-0.8,0.5-1.2,0.7c-0.2-0.5-1.2-1.2-1.6-1
	l-0.9,0.6c-2.9-2-5.9-3.2-7.7-2.5l-3,1.3c-3.2-2.3-6.7-3.9-8.6-3.2c-2.6,0.9-5.1,2.1-7.6,3.4l4.4-5.2c0.3-0.3-1.2-1.6-1.6-1.2
	c-2.6,2.3-5.2,4.6-7.9,6.9c-1.3-0.5-2.5-0.6-3.3-0.2c-8.9,3.6-16.3,9.5-21.7,17.4c-0.3,0.5-0.4,1.1-0.3,1.7c0.1,0.7,0.1,1.5,0.2,2.2
	c-0.3,1.4-0.6,2.8-0.6,4.2c-0.1,0.1-0.3,0.2-0.3,0.4c-3.1,9-1.5,18.7-4.2,27.7c-0.3-2.4-0.6-5.1-2.6-6.7c-1.1-0.9-3-1.1-4,0.1
	c-1.3,1.5-1,4.2-1,6c0,1.9,0.1,3.8-0.1,5.7c-0.2,1.4-0.6,2.8-0.6,4.2c0,0,0,0,0,0c0,0.2-0.1,0.5-0.1,0.7c-0.3,1.2-0.6,2.4-1,3.6
	c-0.6,1.8-1.7,3.7-1.9,5.6c-0.1,2.2,0.7,4.2,0.5,6.4c-0.2,3.4,0.9,6.5,4.5,7.2c2.9,0.6,6.5-0.5,8.1-3c0,0,0,0,0,0
	c0.1,6.6-1.1,13.2-0.3,19.8c1,9.1,3.5,17.5,7.3,25.8c-0.7,0.3-1.3,1.1-1.2,2.2c0.3,5.1,0.6,10.3-0.1,15.4
	c-0.6,5.4-3.6,10.5-4.9,14.7c-0.7,2.3-1.8,3.7,0.6,4.8c4,1.9,12.3,2.8,16.7,3.4c20.5,3,41.3,4.6,61.6-0.4c1.1-0.3,2-1.3,2-2.4
	c0.3-6.1,0.4-13.3,1-19.7c0.9-9.5,2.6-18.5,5.2-27.8c0.2-0.7,0.1-1.3-0.2-1.8c3-5.7,5.5-11.1,7.2-17.3c2.7,5.4,9.2,3.8,12.6-0.1
	c3.2-3.6,4.3-7.4,4.9-11.4c0.1-0.1,0.1-0.2,0.2-0.2c0.3-1.2,0.5-2.3,0.7-3.5c0,0,0,0,0,0c0,0,0,0,0,0c0.1-0.1,0.3-0.3,0.3-0.4
	c0.2-0.7,0.2-1.4,0.1-2.1c0-0.1,0-0.1-0.1-0.2c0-0.5,0-1.1,0-1.6c0,0,0,0,0-0.1c0.1-0.6,0.2-1.2,0.4-1.8c0.2-0.7,0.1-1.3-0.2-1.7
	c-0.1-0.6-0.2-1.1-0.3-1.7c0.8-1.5,1.8-3,2.6-4.1c0.9-1.2,1.3-1.8,1.1-3.2c0-0.1,0-0.2,0-0.3c0-0.3,0-0.5,0-0.8
	c0.2-0.2,0.3-0.4,0.2-0.5c-1-2.1-4-1.2-6.1-0.2c0,0-0.1,0-0.1,0c0,0,0,0-0.1,0c-0.4,0.2-0.8,0.4-1.2,0.6c-0.1,0-0.2,0.1-0.3,0.1
	c-0.8-4.1-0.8-8.4-0.9-12.6C195.5,123.6,196.3,123.4,196.6,122.8z"/>
<path id="XMLID_84_" class="st2" d="M142.1,192.6c-0.1,0-0.4,0-0.5,0.1c-0.1,0-1,0-1.1,0c-1.7-0.1-3.3-0.6-5-0.7c-0.2,0-0.4,0-0.6,0
	c-1.9-0.1-3.7-0.3-5.5-0.6c-3.3-0.5-6.6-0.5-9.9-1.1c-0.2,0-0.3-0.1-0.4-0.1c-0.7-0.2-1.4-0.2-2.1-0.3c-2.6-0.6-6.2-2-7.2-2.7
	c-0.1-0.1-0.2-0.1-0.2-0.1c-0.1-0.1-0.1-0.1-0.2-0.1c-0.5,0-0.5,0-0.5,0c0,0.1,0,0.2,0,0.2c0,0.1,0,0.2,0.1,0.3c0,0.1,0,0.2,0.1,0.3
	c0.1,0.3,0.1,0.5,0.2,0.7c0.5,0.9,0.9,1.3,1.6,1.8c0.6,0.7,1.5,1.4,2.4,1.4c0.1,0,0.2,0,0.3-0.1c0.3,0.1,0.5,0.3,0.8,0.4
	c2.2,0.9,4.6,1,6.9,1.4c0.6,0.1,1.3,0.3,1.9,0.4c0.1,0,0.1,0,0.2,0c4.1,0.9,8.5,1.3,12.7,0.9c0,0,0,0,0,0c1.1,0,2.1-0.2,3-0.5
	c1.2,0,2.3-0.1,2.5-0.9C141.7,192.9,142.5,192.5,142.1,192.6z"/>
<path id="XMLID_87_" class="st3" d="M145.2,188.6c0-0.2,0-0.3-0.2-0.4c-0.6-0.4-0.6-0.4-1.3-0.7c-0.1,0-0.2,0-0.3,0
	c-0.9-0.5-1.8-1-2.7-1.5c-0.8-0.6-1.6-1.1-2.4-1.6c-1.1-0.7-2.1-1.3-3.3-1.7c-0.8-0.3-1.7-0.6-2.6-0.6c-0.1,0-0.1,0-0.1,0
	c-0.1-0.1-0.3-0.1-0.4-0.1c-0.2,0.1-0.4,0.1-0.5,0.2c-0.7-0.1-1.4,0-1.8,0.8c-0.1,0-0.2-0.1-0.3,0c-0.4,0.1-0.7,0.1-1.1,0.3
	c0,0-0.1,0-0.1,0.1c-0.1,0-0.3,0.1-0.4,0.1c-0.1,0-0.2,0.1-0.2,0.2c0-0.2-0.2-0.3-0.4-0.4c0,0,0,0-0.1,0c0-0.3-0.3-0.5-0.6-0.4
	c0-0.1-0.1-0.3-0.3-0.3c0,0-0.1,0-0.1,0c0,0,0,0,0,0c0,0,0,0,0,0c-0.1,0-0.2-0.1-0.4-0.1c-0.4-0.1-0.9-0.2-1.3-0.3c0,0-0.1,0-0.1,0
	c-0.9-0.6-1.9-0.9-2.9-1c-1.7-0.6-3.5-0.9-5,0.2c-0.1,0.1-0.2,0.2-0.2,0.4c0,0-0.1,0-0.1,0c-0.7,0.3-0.9,1-1.4,1.5
	c-0.7,0.9-1.6,1.6-2.4,2.2c-0.1,0.1-0.2,0.2-0.2,0.4c-0.1,0-0.3,0.1-0.4,0.1c-0.2,0-0.4,0.2-0.5,0.4c0,0,0,0.1-0.1,0.1c0,0,0,0,0,0
	c-0.3,0-1.1,0.3-0.5,0.3c0.1,0,0.2,0,0.4-0.1c0,0,0,0,0,0c0.4-0.1,0.7-0.2,1.1-0.1c0.1,0,0.2-0.1,0.3-0.2c0.1,0,0.2,0,0.3,0
	c0.4-0.2,0.8-0.2,1.3-0.2c0.1,0,0.2,0,0.3-0.1c0,0,0.1,0,0.1,0c0.7-0.3,1.4-0.5,2.1-0.7c0.8-0.3,1.3-0.8,2.3-0.8
	c0.2,0,0.3-0.1,0.3-0.2c0.1,0.1,0.2,0.1,0.3,0.2c0.1,0.1,0.2,0.1,0.3,0c1,0.8,2,1.5,3.2,1.8c1.3,0.3,2.7,0.1,4,0.2
	c0.2,0,0.3-0.1,0.4-0.2c0.4,0,0.9-0.1,1.3-0.2c0.7,0.1,1.4,0.1,2.1,0.2c0.1,0,0.1,0.1,0.2,0.1c0.1,0,0.3,0,0.4,0
	c0.2,0,0.3-0.1,0.4-0.2c0,0,0.1-0.1,0.1-0.1c0,0,0.1,0,0.2,0.1c0.1,0.2,0.2,0.3,0.4,0.3c0.9,0.1,1.7,0.1,2.6,0.1
	c0.2,0,0.5,0,0.7,0.1c0.1,0.1,0.2,0.2,0.3,0.2c1.1,0.2,1.7,0.4,2.7,0.9c0.1,0,0.1,0.1,0.2,0.1c0,0,0.1,0,0.1,0.1
	c0.1,0.1,0.3,0.1,0.4,0.1c0,0,0,0,0,0c0.1,0.1,0.2,0.1,0.3,0c0.6,0.5,1.2,0.9,2,1.1c0.1,0.1,0.2,0.2,0.3,0.2
	c0.5,0.1,0.9,0.1,1.4,0.2c0.2,0,0.3,0.1,0.5,0.1c0.1,0,0.2,0,0.3,0c0.3,0,0.6,0.1,0.8,0.1C145.4,189.6,145.6,188.8,145.2,188.6z"/>
<path id="XMLID_98_" class="st4" d="M211.3,91c0.1-0.1,0.1-0.2,0-0.3c-0.1-0.2-0.2-0.3-0.2-0.5c0-0.1,0-0.1-0.1-0.2
	c0,0-0.1-0.3-0.2-0.5c0-0.1-0.1-0.2-0.1-0.4c0,0,0,0,0,0c-1-3.1-2.6-6-4.2-8.8c-0.4-0.7-1-1.4-1.3-2.2c0.1,0.2-0.9-2.1-1-2.2
	c-0.3-0.3-0.6-1.1-1.2-1.8c-0.4-0.7-0.1,0-0.4-0.7c0-0.1-0.4-0.7-0.5-0.8c-0.6-1.1-1-1.6-1.5-2.6c0,0,0,0-0.1-0.1
	c-0.1-0.2-0.2-0.4-0.3-0.7c-1.2-3.9-3.3-8.7-6.9-10.8c0,0,0,0,0,0c-0.2-0.2-0.4-0.4-0.5-0.6c0,0-0.1,0-0.1-0.1
	c0.1-0.2,0-0.3-0.1-0.5c0,0-0.1-0.1-0.1-0.1c0,0,0,0,0,0c0,0,0,0,0,0c-1.8-1.5-3.8-2.8-5.8-3.8c-0.5-0.5-1.1-0.8-1.8-1
	c-0.9-0.5-1.7-1-2.6-1.4c-1.2-0.8-2.5-1.4-3.9-1.9c0-0.2-0.1-0.4-0.3-0.5c-0.2,0-0.4-0.1-0.6-0.1c0-0.1-0.1-0.2-0.2-0.3
	c-0.3-0.2-0.5-0.3-0.8-0.5c-0.8-0.9-1.5-1.8-2.5-2.4c-0.3-0.2-0.3-0.3-0.6-0.4c-0.1-0.1-0.5-0.2-0.6-0.4c-0.2-0.2-0.4-0.2-0.6-0.1
	c-0.1,0-1.1-0.1-1.2,0c-0.6-0.1-0.2,0-0.8,0c-0.1-0.1-0.2-0.1-0.3-0.1c-0.7,0-1.4,0-2.1-0.1c-1.9-0.4-3.8-0.8-5.6-1.4
	c-0.1,0-0.2,0.1-0.3,0.2c-2.1-0.4-4.3-0.7-6.5-0.7c0,0-0.1,0-0.2,0.1c-3.8-0.2-7.7,0-11.5,0.3c0,0,0,0,0,0c-5,0.1-5,0.1-8.9,0.7
	c-2.2,0.3-6,0.8-9.3,1.4c-0.2,0-0.4,0.1-0.6,0.1c-0.3,0.1-0.6,0.1-0.9,0.2c-1.2,0.2-2.5,0.4-3.7,0.8c-0.6,0.1-1.1,0.4-1.5,0.7
	c-0.1-0.2-0.5-0.3-0.7-0.2c-0.1,0-0.1,0.1-0.2,0.1c-0.2-0.1-0.6-0.1-0.7,0.2c-0.1,0.2-0.2,0.4-0.3,0.6c-0.6,0.6-1,1.2-1.7,1.7
	c-0.7,0.4-1.5,0.7-2.2,1c-1.2,0.3-2.3,0.7-3.5,1.2c-0.2,0-0.3,0-0.5,0.2c-0.6,0.3-1.3,1.1-1.4,1.8c-0.2,1.4-1.4,1.9-2.2,2.7
	c-1.2,1.2-3.4,1.2-3.9,2.7c-0.3,0.2-0.7,0.5-0.9,0.8c0,0,0,0,0-0.1c0.7-0.6-1.7,0.8-2,1.3c-0.9,1.5-1.2,1.1-2.5,2.3
	c-0.7,0.7-1.4,0.9-2.4,1.8c-0.1,0.1-1.3,0.7-1.2,0.8c-0.6,0.3-0.9,0.6-1.2,0.8c0,0-0.5,0.3-0.6,0.4c-0.2-0.1-1.4,0.2-1.6,0.5
	c-0.5,0.8,0.7,1.7-2.1,3c-0.9,0.4,0.6,2.6,0.6,3.6c-0.1,2.9-0.7,2.3-0.7,5.3c0,0.1-1,4.3-0.9,4.4c-0.3,1.2,0.8,1.4,1,2.4
	c-0.2,0.3-0.4,0.7-0.5,1c-0.3-0.3-0.9-0.2-0.8,0.3c0.2,2.3-1.2,4.2-1.1,6.4c0,0,0,0,0,0c-1.3,5.2-1.9,10.5-1.9,15.8
	c0,5.1,0,10.5,1.1,15.5c0.1,0.6,1.1,0.4,1-0.3c-0.1-0.3-0.1-0.5-0.2-0.8c0.3,0.7,0.7,1.3,1.2,2c0.3,0.4,0.8,0.3,0.9-0.1
	c1-3,1.9-5.9,2.6-9c0-0.1,0-0.2,0-0.3c0,0,0,0,0,0c0.1-0.5,0.2-1,0.2-1.4c0.3-1.5,0.9-3,1.3-4.5c0.5-2,0.6-4.1,0.9-6.1
	c0.5-3.3,1.4-6.4,1.8-9.7l0,0c0,0,0,0,0,0c0,0,0-0.1,0-0.1c0-0.1,0-0.1,0-0.2c0-0.1,0.1-0.1,0.1-0.2c0.3-0.9,0.4-1.5,0.5-2.1
	c0.2-0.8,0.4-1.6,0.7-2.4c0.2,0,0.4-0.1,0.5-0.3c0.3-1.4,0.6-2.7,1-4.1c0.3-0.7,0.5-1.4,0.8-2.2c0-0.1,0-0.2,0-0.3
	c0-0.1,0.1-0.2,0.1-0.3c0.6-1.2,1.6-2.4,2.6-3.4c0.5-0.2,1-0.4,1.5-0.6c1.2-0.4,1.8-1.3,2-2.3c0,0,0-0.1,0-0.1c0.3,0,0.7,0,1.1-0.2
	c-0.3,1.6-0.7,3.1-0.8,4.7c0,0.3,0.3,0.5,0.5,0.5c0,0,0,0,0,0c0,0.1,0,0.1,0.1,0.2c-0.9,1.4-1.8,3-2,4.6c-0.1,0.6,0.8,0.6,1,0.1
	c0,0,0,0,0.1,0c0.4-0.2,0.7-0.4,1-0.7c-0.1,0.2,0,0.3,0.2,0.1c2.8-2.5,4.9-5.8,7.9-8.2c0,0.1,0.1,0.2,0.3,0c0.1-0.1,0.2-0.2,0.3-0.3
	c1-0.3,1.9-0.9,2.9-1.2c0.6-0.1,1.1-0.1,1.7-0.2c0.1,0.1,0.2,0.1,0.3,0.1c1.4,0.1,2.8,0,4.2-0.2c0.8,0,1.5-0.1,2.3-0.1
	c0.3,0,0.5-0.3,0.5-0.6c0.3-0.1,0.5-0.2,0.8-0.3c0.1,0.1,0.3,0.2,0.5,0.1c0.7-0.3,1.4-0.7,2.1-1c0.1,0.1,0.3,0.2,0.5,0
	c0.2-0.1,0.4-0.3,0.6-0.4c1.5-0.8,2.3-1.1,2.7-1.2c0,0.2-0.1,0.7-0.3,1.2c0,0,0,0,0,0c-0.1,0.2-0.2,0.3-0.2,0.5c0,0.1,0,0.1,0,0.1
	c-0.1,0.2-0.2,0.5-0.3,0.7c0,0,0,0.1,0,0.1c-0.1,0.1-0.1,0.3-0.2,0.4c0,0,0,0.1,0,0.1c0,0,0,0,0,0.1c0,0.1-0.1,0.1-0.1,0.2
	c0,0,0,0.1,0,0.1c0,0,0,0,0,0c-0.1,0.1-0.1,0.3-0.2,0.4c0,0,0,0.1-0.1,0.1c0,0,0,0.1,0,0.1c-0.1,0.2-0.1,0.2-0.2,0.4
	c0,0,0,0.1-0.1,0.1c0,0,0,0,0,0c0,0,0,0,0,0.1c-0.1,0.1-0.1,0.1-0.1,0.2c0,0,0,0,0,0.1c-0.1,0.1-0.2,0.4-0.4,0.7
	c0,0-0.1,0.2-0.1,0.2c-0.3,0.5-0.5,0.8-1,1.6c0,0-0.6,0.9-0.6,0.9c0,0,0,0-0.1,0.1c0,0-0.3,0.5-0.5,0.6c-0.1,0.1-0.1,0.1-0.1,0.2
	c0,0-0.1,0.1-0.1,0.1c-0.2,0.2-0.3,0.4-0.5,0.6c-0.1,0.1-0.2,0.1-0.2,0.2c-0.3,0.3-0.5,0.6-1,1.1c-0.2,0.2-0.5,0.5-0.6,0.6
	c-0.1,0.1-0.4,0.3-0.3,0.4c0,0,0.4-0.2,0.6-0.3c0.6-0.3,1.6-0.9,2.2-1.2c-0.3,0.3-0.8,0.7-1.2,1.2c-0.1,0.1-0.2,0.2-0.3,0.3
	c-0.1,0.1,0,0.1-0.1,0.2c-0.1,0.1-0.1,0.2-0.2,0.2c-0.1,0-0.2,0.3-0.2,0.4c-0.2,0.4-0.3,0.5-0.4,0.8c-0.3,0.9-0.3,0.9-0.1,0.7
	l0.8-0.7c0.1-0.1,0.5-0.5,0.5-0.5c0.1,0,0.5-0.3,0.5-0.4c0.1-0.2,0.8-0.7,0.9-0.8c0.7-0.6,0.9-0.7,1.3-1.2c0,0,2.3-2,2.4-2
	c0.4-0.3,0.7-0.6,1.6-1.3c-0.2,0.5-0.2,0.6-0.4,1.1c-0.1,0.3-0.3,0.9-0.5,1.2c-0.2,0.4-0.9,1.8-1.2,2.1c-0.4,0.5-5.2,6.1-4.7,5.6
	c0.3-0.3,5.6-5.7,6.1-6.2c0.3-0.2,0.8-0.7,1-0.8c0.7-0.5,1.4-0.9,2.2-1.4c0.1-0.1,0.4-0.2,0.5-0.3c0.1-0.1,1.1-0.5,1.2-0.6
	c0.9-0.2,3.2-0.8,3.5-0.6c0.4,0.3,1,1.3,1.3,1.3c0.1,0,0.4-0.5,0.9-0.9c0,0,1.6-0.4,2.6-0.4c1,0,1.4,0.1,1.6,0
	c-0.2,0.2,0.2-0.1,0,0.1c-0.6,0.7-1.2,1.4-1.8,2.1c-0.3,0.1-0.5,0.3-0.8,0.5c-0.5,0.4-0.8,0.8-1.2,1.3c-8.6,9.3-6,7.8,1.5,2.6
	c0.5-0.3,0.9-0.9,1.3-1.4c0.1,0,0.1,0,0.2-0.1c1-0.4,1.8-0.8,2.7-1.4c0.1-0.1,0.3-0.2,0.4-0.3c1.8-1,3.5-2,5.3-3
	c0.2-0.1,0.3-0.2,0.5-0.4c1.2-0.5,2.5-0.9,3.7-1.4c0.1,0,0.3,0.1,0.4,0.1c-0.2,0.4-0.5,0.8-0.6,1.2c-0.7,1.3,0.6,2.5,1.7,2.2
	c0.2,0,0.5,0.1,0.7,0c1.3-0.4,2.5-1,3.8-1.5c1.9-0.1,4.1-0.7,5.9-0.6c0.5,0,0.8,0.1,1,0.3c-0.5,0.9-0.2,2.4,1.2,2.2
	c0.1,0,0.2,0,0.3,0c0.8,0.1,1.6,0,2.4,0c0.6,0.6,1.2,1.2,1.7,1.9c0,0,0,0.1,0.1,0.1c0.2,0.3,0.5,0.5,0.8,0.7
	c-0.1,0.1-0.1,0.1-0.2,0.2c-0.1,0.1-0.5,0.8-0.1,0.5c0.2-0.1,0.5-0.3,0.7-0.4c0.3,0.2,0.6,0.4,0.9,0.5c0.2,0.1,0.3,0.1,0.5,0.2
	c-0.2,0.2-0.3,0.4-0.5,0.6c-0.4,0.4-0.1,0.7,0.3,0.2c0.1-0.2,0.3-0.3,0.4-0.5c-0.1,0.2,0.1,0.2,0.3,0.1c0,0,0.1-0.1,0.1-0.1
	c0.5,0.3,0.8,0.6,1.2,0.9c-0.1,0.1-0.1,0.2,0,0.3l1.3,1.1c0.4,0.5,0.8,0.9,1.3,1.4c0,0,0,0,0,0c0.1,0.3,0,0.1,0.1,0.4
	c-0.1,0.2,0,0.3-0.1,0.4c-0.2,0.5-1.3,1.6-1.9,2.2c-0.2,0.1-0.3,0.3-0.5,0.5c-0.7,0.5-1.3,1.2-1.8,1.7c0,0,0,0,0,0
	c-0.4,0.3-0.8,0.5-1.2,0.8c-0.5,0.4,0,1.2,0.5,0.9c0.5-0.4,1.1-0.7,1.6-1.1c0.2,0.2,0.4,0.3,0.6,0.1c0.4-0.3,0.7-0.5,1.1-0.7
	c1.3-0.5,2.6-1,3.9-1.6c0,0.4,0,0.7,0,1.1c-0.2,0.3-0.5,0.5-0.7,0.8c0,0,0,0,0,0c0,0,0,0,0,0c0,0-0.1,0.1-0.1,0.1
	c-0.4,0.5,0.4,1,0.8,0.6c0,0,0,0,0,0c0,0,0,0.1,0,0.1c0,0.2,0.6-0.4,0.6-0.4c0.1-0.1,0.1-0.3,0.2-0.4c0.1-0.1,0.2-0.1,0.2-0.2
	c0,0.3,0,0.5,0,0.8c0,0,0,0.1,0.1,0c0.1,0.3-1.2,0.8-1.1,1.1c-2.8,2.6-5.7,4.4-9,6.4c-0.5,0.3-4.7,2.1-4.1,1.8
	c0.1,0,2.2,0.3,2.3,0.2c0.1,0.1,4.3-0.5,4.5-0.6c4.6-1.4,6.6-2.5,8.4-4.8c0.3-0.4,0.8-1.2,0.8-1.3c0,0,0.2-0.4,0.2-0.4
	c0.1,0,0.1-0.5,0.3-0.6c0,0,0,0,0,0c0,0.1,0.1,0,0.3-0.1c0,0.2,0.1,0.3,0.1,0.5c0,0.1,0.1,0,0.3-0.1c0.1,0.1,0.1,0.2,0.2,0.3
	c0,0,0.1,0,0.2-0.1c0.2,1,0.3,2.1,0.3,3.1c0,0.4,0,0.7,0,1.1c-0.2,0.6-0.1,1.3-0.1,1.9c0,0,0,0,0.1,0c-0.2,2.4,0.2,4.9,0.1,7.3
	c0,0.1,0,0.2,0.1,0.3c0,0,0,0.1-0.1,0.2c-0.5,2.4-0.4,5-0.6,7.4c0,0.1,0,0.2,0,0.2c0,0,0,0.1,0,0.1c-0.2,2.1-0.4,4.2-0.5,6.3
	c0,0,0,0.1,0,0.1c-0.1,0.1-0.2,0.2-0.2,0.4c0,0.2,0,0.3,0.1,0.4c-0.1,0.1-0.1,0.2-0.1,0.3c0.1,2.1-0.1,4.2,0,6.3c0,0,0,0.1,0,0.1
	c0,0.1-0.1,0.1,0,0.2c0,0.8,0.1,1.6,0.1,2.4c0,0.6,1,0.6,1,0c-0.1-0.8-0.1-1.6-0.1-2.4c0,0,0-0.1,0-0.1c0-0.1,0.1-0.1,0.1-0.2
	c0,0,0,0,0-0.1c0.2,0,0.5-0.2,0.5-0.5c0.2-1.9,0.6-3.8,1-5.7c0-0.1,0-0.2-0.1-0.3c0.2-0.1,0.4-0.2,0.4-0.4c0,0,0,0,0,0
	c0-0.2-0.1-0.3-0.2-0.4c0.3-0.9,0.3-1.7,0.4-2.7c0.1-1.4,0.5-2.8,0.7-4.3c0-0.2-0.1-0.3-0.3-0.4c0.1-0.2,0.1-0.5,0.1-0.7
	c0.1-1,0-2.1,0-3.1c0.2-0.1,0.3-0.2,0.3-0.4c0-0.3,0-0.6,0-0.9c0-0.2-0.1-0.4-0.3-0.4c0-0.1,0-0.3,0-0.4c0.2,0,0.5-0.2,0.5-0.5
	c0-0.7-0.1-1.3-0.1-2c0.2,1.2,0.5,2.5,0.9,3.7c-0.3,0.2-0.5,0.6-0.5,1.1c-0.1,1-0.1,1.9,0,2.8l0,0.8c0,0.1,0,0.2,0.1,0.3
	c0,0.4,0.1,0.8,0.2,1.1c-0.1,2.1-0.5,4.1-1,6.2c0,0.1,0,0.2,0,0.3c0,0,0,0.1,0,0.1c0,0.5,0,1,0,1.5c-0.2,0.8-0.3,1.6-0.5,2.4
	c-0.3,1.4-0.7,2.8-1,4.2c-0.3,0.5-0.6,0.9-0.9,1.4c-0.2,0.3,0,0.6,0.2,0.7c0.1,0.3,0.4,0.5,0.7,0.4c0.1,0,0.2-0.1,0.3-0.1
	c2.8-1,5.5-2.3,7-5.1c0.1-0.2,0.1-0.3,0-0.2c0.2-0.3,0.4-0.6,0.5-0.9c1.1-1.5,1.6-3.7,1.9-5.5c0.1-0.1,0.1-0.1,0.1-0.2
	c0.1-0.1,0.2-0.2,0.2-0.4c0.3-2.8,1.5-5.1,1.8-7.8c0.6-2.3,0.4-4.9,1.2-7.2c0-0.1,0-0.2,0-0.3c0.2,0,0.3-0.1,0.4-0.3
	c0.4-1.1,0.8-2.1,1.2-3.2c0.2-0.7,0.3-1.5,0.4-2.2c0.1-0.1,0.3-0.3,0.3-0.4c0.5-1.8,0.9-3.7,1.2-5.6c0.2-0.4,0.3-0.7,0.4-1.1
	c0.3,0,1,0,1-0.1c0.1,0,0.3-0.4,0.4-0.5c0.1-0.1,0.2-0.3,0.2-0.4c0.1-0.2,0.2-0.5,0.3-0.7c0.1-0.4,0.2-0.7,0.3-1.3
	c0,0,0.1-0.6,0.1-0.6c0.1-0.7,0.1-1.1,0-1.3c0,0,0-0.4,0-0.4c0-0.2,0-0.6,0-0.6C211.3,91.2,211.3,91.1,211.3,91z"/>
<path id="XMLID_63_" class="st0" d="M123.9,132.5c0-0.4-0.1-0.8-0.1-1.2c-0.5-2.4-1.8-4.1-2.8-5.7c-0.9-1.4-2-3-3.8-4
	c-2.4-1.2-5.8-0.9-8.4-0.7c-5.8,0.6-8,4.8-8.5,10.1c-0.4,4.7,2.7,10.5,7.5,11.8c0.9,0.2,1.7,0.2,2.4,0.1c2.2,0.4,4.4,0,6.5-0.8
	c1.6-0.6,2.7-1.7,4-2.6c0.8-0.3,1.6-0.8,2.2-1.6C124.2,136.3,124.7,134.3,123.9,132.5z"/>
<path id="XMLID_64_" class="st0" d="M166.9,132.6c-0.3-0.6-0.7-1.1-1.2-1.5c-0.3-0.5-0.5-1-0.8-1.5c-1.7-2.9-3.6-4.2-6.9-4.6
	c-0.4-0.1-0.8,0-1.2,0c-2.2-0.3-4.4-0.2-6.9,0.8c-4.5,1.7-5.8,5.6-5.8,10.1c0,4,1.7,7.5,5,9.8c2.9,2,7.1,2.7,10.3,0.9
	c2.5-0.9,4.5-2.3,6.2-4.3c0,0,0.1,0,0.1-0.1c0.1-0.1,0.2-0.2,0.3-0.4c0,0,0,0,0,0c0.3-0.3,0.5-0.7,0.8-1c0.7-1,0.9-2,0.8-2.9
	C168.1,136.1,167.8,134.4,166.9,132.6z"/>
<g id="XMLID_42_" class="st5">
	<path id="XMLID_191_" class="st6" d="M167.4,134.7c0,0,0.1,0.4,0.2,1.1c0.1,0.7,0.3,1.7,0.2,2.9c0,0.1,0,0.3-0.1,0.5
		c0,0.2-0.1,0.3-0.1,0.5c0,0.2-0.1,0.3-0.2,0.5c-0.1,0.2-0.2,0.3-0.2,0.5c-0.3,0.6-0.6,1.3-1.1,1.9c-0.4,0.6-1,1.2-1.6,1.7
		c-0.6,0.5-1.4,0.9-2.1,1.2c-0.4,0.2-0.8,0.3-1.1,0.4c-0.3,0.1-0.7,0.3-1,0.4c-0.4,0.2-0.7,0.3-1.1,0.5l-0.5,0.2
		c-0.2,0.1-0.4,0.1-0.6,0.1c-0.4,0-0.8,0-1.1,0c-0.3,0-0.7,0-1,0c-0.7,0.1-1.3,0.1-1.9,0.1c-0.6,0-1.1-0.2-1.6-0.3
		c-0.5-0.1-0.9-0.3-1.2-0.4c-0.6-0.3-1-0.5-1-0.5s0.4,0.2,1,0.4c0.6,0.2,1.6,0.4,2.8,0.4c0.6,0,1.2-0.1,1.8-0.2
		c0.7-0.1,1.5-0.1,2.1-0.2c0.2,0,0.3-0.1,0.4-0.1l0.5-0.2c0.3-0.2,0.7-0.3,1-0.5c0.4-0.2,0.7-0.3,1.1-0.5c0.4-0.2,0.8-0.2,1.1-0.4
		c0.7-0.3,1.3-0.6,1.9-1.1c0.6-0.5,1.1-0.9,1.5-1.5c0.4-0.6,0.8-1.1,1.1-1.7c0.1-0.1,0.2-0.3,0.2-0.4c0.1-0.1,0.1-0.3,0.2-0.4
		c0.1-0.1,0.1-0.3,0.2-0.4c0.1-0.1,0.1-0.2,0.1-0.4c0.1-1.1,0.2-2.1,0.1-2.8C167.4,135.1,167.4,134.7,167.4,134.7z"/>
</g>
<g id="XMLID_53_" class="st5">
	<path id="XMLID_189_" class="st6" d="M123.6,134.5c0,0,0,0.4,0,1c-0.1,0.6-0.3,1.5-0.8,2.5c-0.3,0.5-0.6,1-1.1,1.5
		c-0.4,0.4-0.9,0.9-1.5,1.3c-1.1,0.8-2.4,1.6-3.7,2.1c-1.4,0.5-2.8,0.8-4.2,0.9c-0.7,0-1.4,0-2-0.1c-0.6-0.1-1.2-0.3-1.7-0.5
		c-0.5-0.2-1-0.4-1.3-0.6c-0.4-0.2-0.7-0.4-1-0.6c-0.2-0.2-0.4-0.4-0.5-0.5c-0.1-0.1-0.2-0.1-0.2-0.1s0.1,0,0.3,0
		c0.2,0,0.4,0.2,0.7,0.3c0.2,0.1,0.6,0.2,1,0.2c0.4,0.1,0.9,0.1,1.4,0.2c0.5,0.1,1,0.1,1.6,0.1c0.5,0,1.1-0.1,1.7-0.2
		c1.2-0.2,2.5-0.6,3.7-1c1.2-0.5,2.4-1,3.4-1.6c0.5-0.3,1-0.6,1.5-1c0.4-0.3,0.8-0.7,1.1-1c0.6-0.7,1.1-1.4,1.4-2
		C123.5,134.9,123.6,134.5,123.6,134.5z"/>
</g>
<g id="XMLID_65_" class="st7">
	<path id="XMLID_186_" class="st6" d="M116.3,162.1c0,0,0-0.3-0.1-0.8c-0.1-0.5-0.2-1.2-0.2-2.2c0-0.9,0.3-2.2,1-3.3
		c0.7-1.1,1.7-2.2,2.6-3.5c0.5-0.6,1-1.3,1.5-1.9c0.2-0.3,0.4-0.6,0.6-1.1c0.2-0.4,0.3-0.7,0.4-1.1c0.5-1.6,0.7-3.5,1.1-5.5
		c0.2-1,0.4-2,0.9-3.1c0.4-1,1.1-2,1.7-2.9c0.6-0.8,1.2-1.6,1.6-2.5c0.4-0.9,0.6-1.8,0.7-2.7c0.2-1.9-0.3-3.9-1.2-5.5
		c-0.9-1.7-2.3-3.1-3.8-4.2c-1.5-1-3.3-1.8-4.9-2.4c-1.7-0.6-3.3-1-4.8-1.3c-3.1-0.5-5.7-0.6-7.5-0.5c-1.8,0.1-2.9,0.3-2.9,0.3
		s0.3-0.1,0.7-0.2c0.5-0.1,1.2-0.3,2.1-0.5c1.8-0.3,4.5-0.6,7.8-0.3c1.6,0.2,3.3,0.5,5.1,1c1.8,0.6,3.6,1.2,5.4,2.4
		c1.8,1.1,3.4,2.7,4.5,4.7c1.1,2,1.7,4.3,1.5,6.6c-0.1,1.2-0.4,2.3-0.9,3.4c-0.5,1.1-1.2,2-1.8,2.8c-0.6,0.8-1.2,1.6-1.5,2.4
		c-0.4,0.8-0.6,1.8-0.8,2.7c-0.4,1.9-0.7,3.8-1.4,5.7c-0.2,0.4-0.4,0.9-0.6,1.3c-0.2,0.4-0.5,0.8-0.8,1.2c-0.6,0.7-1.1,1.3-1.7,1.9
		c-1,1.2-2.1,2.2-2.9,3.2c-0.8,1-1.1,2-1.2,2.9c-0.1,0.9-0.1,1.6-0.1,2.1C116.3,161.9,116.3,162.1,116.3,162.1z"/>
</g>
<g id="XMLID_78_" class="st5">
	<path id="XMLID_180_" class="st6" d="M78.7,115.5c0,0,0.2-0.1,0.5-0.1c0.3,0,0.9,0,1.4,0.3c0.6,0.3,1.2,0.8,1.7,1.6
		c0.4,0.8,0.7,1.8,0.9,2.9c0.2,1.1,0.3,2.2,0.5,3.4c0.1,0.6,0.2,1.3,0.2,2c0,0.7-0.2,1.5-0.4,2.1c-0.2,0.6-0.2,1-0.1,1.6
		c0.1,0.6,0.3,1.3,0.5,2c0.3,1.4,0.6,2.8,0.8,4.3c0.4,2.9,0.5,5.8,0.5,8.5c0,1.4-0.1,2.7-0.2,3.9c-0.1,1.2-0.2,2.4-0.3,3.5
		c-0.1,0.5-0.2,1.1-0.3,1.5c0,0.3-0.2,0.6-0.4,0.8c-0.2,0.2-0.4,0.3-0.6,0.4c-0.4,0.2-0.7,0.4-1.1,0.6c-0.2,0.1-0.3,0.2-0.5,0.2
		c-0.2,0.1-0.4,0.1-0.5,0.1c-0.6,0.1-1.1,0-1.5,0c-0.3,0-0.5,0-0.5,0s0.2,0,0.5,0c0.3,0,0.8-0.1,1.4-0.2c0.2,0,0.3-0.1,0.4-0.2
		c0.1-0.1,0.3-0.2,0.4-0.3c0.3-0.2,0.6-0.4,1-0.7c0.2-0.1,0.4-0.3,0.5-0.4c0.1-0.1,0.1-0.3,0.1-0.5c0-0.5,0-1,0-1.5
		c0-1-0.1-2.2-0.1-3.4c0-1.2-0.1-2.5-0.2-3.8c-0.1-1.3-0.2-2.7-0.3-4.1c-0.1-1.4-0.3-2.8-0.5-4.2c-0.2-1.4-0.4-2.8-0.7-4.1
		c-0.1-0.7-0.3-1.3-0.4-2.1c-0.1-0.7-0.1-1.8,0.2-2.4c0.3-0.7,0.4-1.1,0.5-1.7c0.1-0.6,0-1.2,0-1.8c0-1.2,0-2.4,0-3.5
		c0-0.6,0-1-0.1-1.5c-0.1-0.5-0.2-0.9-0.4-1.3c-0.3-0.8-0.8-1.3-1.3-1.6c-0.5-0.3-1-0.4-1.3-0.4C78.9,115.5,78.7,115.5,78.7,115.5z"
		/>
</g>
<g id="XMLID_100_" class="st5">
	<path id="XMLID_178_" class="st6" d="M79.2,137.1c0,0,0,0.2,0,0.5c0,0.3,0.1,0.8,0.2,1.3c0,0.3,0.1,0.6,0.2,0.9
		c0,0.2,0,0.3,0.1,0.4c0,0.1,0,0,0.1,0.1c0.1,0.1,0.2,0.2,0.4,0.4c0.2,0.2,0.4,0.6,0.4,0.8c0.1,0.2,0.1,0.3,0.1,0.3
		c0,0.1,0.1,0.1,0.1,0.2c0.1,0.1,0.2,0.2,0.4,0.2c0.2,0,0.5,0,0.8,0c0.4,0,0.7-0.1,1-0.1c0.3,0,0.7,0,0.8,0c0.1,0,0.1,0,0.2,0
		c0.1,0,0.1-0.1,0.2-0.2c0.1-0.1,0.2-0.3,0.3-0.5c0.1-0.3,0.2-0.5,0.2-0.5s0.1,0.2,0.2,0.5c0,0.2,0.1,0.4,0.1,0.7
		c0,0.1,0,0.3-0.1,0.5c-0.1,0.2-0.3,0.4-0.4,0.5c-0.4,0.3-0.7,0.3-1,0.5c-0.3,0.1-0.6,0.2-1,0.4c-0.3,0.1-0.8,0.3-1.3,0.2
		c-0.6,0-1.2-0.2-1.7-0.7c-0.2-0.2-0.4-0.5-0.5-0.7c-0.2-0.3-0.2-0.6-0.2-0.7c0-0.1,0-0.1,0-0.2c-0.1-0.1-0.2-0.2-0.3-0.5
		c-0.2-0.2-0.3-0.6-0.3-0.9c0-0.3,0-0.5,0-0.6c0.1-0.3,0.1-0.6,0.2-0.9c0.1-0.6,0.4-1.1,0.6-1.4C79,137.2,79.2,137.1,79.2,137.1z"/>
</g>
<g id="XMLID_107_" class="st5">
	<path id="XMLID_174_" class="st6" d="M184.9,158.5c0.3-0.1,0.5-0.2,0.8-0.3c0.2-0.1,0.5-0.2,0.7-0.4l0.2-0.2l0.3,0.3
		c0.3,0.4,0.6,0.8,0.9,1.2c0.1,0.2,0.3,0.4,0.4,0.6c0.1,0.2,0.2,0.2,0.1,0.1c0,0,0.1,0,0.2,0c0.2,0,0.1,0,0.2-0.1
		c0.1,0,0.1,0,0.2-0.1c0.3-0.1,0.5-0.3,0.7-0.6c0.2-0.3,0.4-0.6,0.6-1l0.6-1.3c0.2-0.4,0.5-0.8,0.6-1.1c0-0.2,0-0.3,0-0.5
		c-0.1-0.2-0.2-0.4-0.4-0.5c0.2-0.1,0.6,0,0.8,0.2c0.3,0.2,0.4,0.5,0.5,0.8c0.1,0.3,0.1,0.6,0.1,0.9c0,0.3-0.1,0.5-0.1,0.8
		c-0.1,0.5-0.2,1-0.4,1.5c-0.2,0.5-0.4,1-0.8,1.5c-0.4,0.5-0.9,0.9-1.5,1.2c-0.2,0.1-0.3,0.1-0.5,0.1c-0.1,0-0.4,0.1-0.5,0
		c-0.4,0-0.8-0.1-1.2-0.3c-0.5-0.3-0.6-0.8-0.7-1.1c-0.1-0.2-0.1-0.5-0.1-0.7c-0.1-0.5-0.2-1-0.2-1.5l0.4,0.1
		c-0.3,0.2-0.6,0.2-0.9,0.2C185.5,158.5,185.2,158.5,184.9,158.5z"/>
</g>
<path id="XMLID_124_" class="st8" d="M124,165.7c-0.3-0.3-0.2-0.6-0.5-0.8c0-0.1,0-0.2-0.1-0.2c0.1-0.3,0.1-0.6-0.3-0.7
	c0,0-0.1,0-0.1,0c0.1-0.2,0-0.5-0.2-0.7c0.1-0.2,0.1-0.4,0.1-0.6c0.3-0.3,0-0.8-0.4-0.8c-0.4-0.1-0.8-0.1-1.2,0
	c-0.3,0-0.5,0.3-0.5,0.5c0,0-0.1,0-0.1,0c-0.3,0.2-0.3,0.5-0.1,0.7c0,0,0,0,0,0c-0.3,0.1-0.3,0.4-0.2,0.7c-0.2,0.1-0.2,0.4-0.1,0.6
	c-0.2,0.2-0.2,0.5,0,0.7c-0.2,0.3,0,0.7,0.3,0.8c0,0,0.1,0.1,0.1,0.1c0.2,0.2,0.5,0.2,0.7,0.2c0.5,0.1,1,0.2,1.5,0.3
	c0.2,0,0.3,0,0.4-0.1C123.7,166.5,124.3,166.1,124,165.7z"/>
<path id="XMLID_129_" class="st8" d="M136.7,167.4C136.7,167.3,136.7,167.3,136.7,167.4c0-1.1,0.1-3.2-0.9-3.3
	c-0.6-0.1-1.4,0.4-1.9,0.6c-0.7,0.3-1.4,0.7-2.1,1.1c-0.3,0-0.5,0-0.8,0c-0.6,0.1-0.6,1.1,0,1c0.1,0,0.1,0,0.2,0
	c0.1,0.1,0.2,0.2,0.4,0.2c0.9,0.1,1.7,0.2,2.6,0.4c0.7,0.2,1.4,0.5,2.1,0.6C136.6,168.2,136.9,167.7,136.7,167.4z"/>
<g id="XMLID_108_" class="st5">
	<path id="XMLID_170_" class="st6" d="M120,159.9c0,0-0.1-0.2-0.1-0.6c0-0.4,0.1-1,0.4-1.6c0.3-0.6,0.7-1.3,1.1-2
		c0.4-0.7,1-1.4,1.5-2.1c0.6-0.7,1.1-1.3,1.7-1.9c0.3-0.3,0.6-0.6,0.9-0.8c0.3-0.3,0.6-0.5,0.6-0.6c0-0.2-0.1-0.5-0.2-0.7
		c-0.1-0.3-0.2-0.5-0.2-0.7c-0.1-0.4-0.2-0.6-0.2-0.6s0.1,0.2,0.4,0.5c0.1,0.2,0.2,0.3,0.4,0.6c0.1,0.2,0.4,0.4,0.4,0.9
		c0,0.3-0.1,0.5-0.3,0.7c-0.1,0.1-0.2,0.3-0.4,0.4c-0.2,0.3-0.5,0.6-0.7,0.9c-0.5,0.6-1,1.3-1.6,2c-0.5,0.7-1.1,1.3-1.6,2
		c-0.5,0.6-1,1.2-1.3,1.7c-0.4,0.5-0.6,1-0.7,1.3C120,159.7,120,159.9,120,159.9z"/>
</g>
<g id="XMLID_121_" class="st7">
	<path id="XMLID_167_" class="st6" d="M123.7,165.9c-0.4,0-0.9-0.2-1.2-0.5c-0.3-0.3-0.6-0.6-0.8-1c-0.4-0.8-0.4-1.7,0-2.5l0.4,0.8
		c-0.1-0.1-0.2-0.3-0.4-0.4c-0.2-0.2-0.4-0.3-0.7-0.5c0.2-0.3,0.5-0.4,0.8-0.5c0.3-0.1,0.7-0.1,1,0.1l0.3,0.1l0.1,0.7
		c0.1,0.6,0.2,1.1,0.2,1.6c0,0.3,0.1,0.6,0.1,0.9c0,0.2,0,0.3,0,0.5C123.7,165.5,123.7,165.7,123.7,165.9z"/>
</g>
<g id="XMLID_132_" class="st7">
	<path id="XMLID_164_" class="st6" d="M136.4,167.8c-0.2-0.3-0.4-0.6-0.5-0.8c-0.1-0.3-0.3-0.5-0.4-0.8c-0.2-0.5-0.4-1-0.5-1.6
		l0.4,0.6c0.1,0.1,0.2,0.1,0.2,0.1c0,0,0,0,0,0c0,0-0.1,0-0.1,0l-0.2,0c0,0-0.1,0-0.1,0l-0.3,0c-0.5,0-0.9,0.1-1.6,0.1
		c0.1-0.7,0.5-1.2,1-1.6c0.1-0.1,0.3-0.2,0.4-0.2c0.1,0,0.1-0.1,0.2-0.1l0.2-0.1c0.1,0,0.2-0.1,0.3-0.1c0.1,0,0.2,0,0.3,0
		c0.3,0,0.6,0.1,0.9,0.3l0.3,0.2l0.1,0.4c0.1,0.6,0.2,1.2,0.1,1.8c0,0.3-0.1,0.6-0.2,0.9C136.7,167.3,136.6,167.6,136.4,167.8z"/>
</g>
<path id="XMLID_139_" class="st8" d="M191.6,157.1c-0.3,0.5-1.3,2.7-2.4,3.4c-0.1,0-0.8,0-1.1,0c-0.1-0.1-0.8-1.4-1.4-1.8
	c-0.8-0.6-0.7,0.7-0.5,1.1c0.3,0.6,0.2,1,0.8,1.4c0.1,0.1,0.3,0.1,0.4,0.2c0.7,0.6,1.9,0.4,2.6-0.1c1.1-0.8,1.8-2.4,2.5-3.6
	C192.8,157,191.9,156.5,191.6,157.1z"/>
<path id="XMLID_140_" class="st8" d="M84.4,141.5c-0.5,0.3-1.3,0.7-2.1,0.8c-0.1-0.1-0.3-0.2-0.5-0.1c-0.4,0.1-0.7,0.2-1.1,0.3
	c0,0-0.1,0-0.1,0c-1.6-0.4-1.8-2.5-1.8-3.8c0-0.6-1-0.6-1,0c0,1.6,0.3,4,2.1,4.7c1.6,0.6,3.7,0.1,4.9-0.9c0,0,0,0,0,0c0,0,0,0,0,0
	c0,0,0.1,0,0.1-0.1C85.5,141.9,84.9,141.2,84.4,141.5z"/>
<g id="XMLID_135_" class="st5">
	<path id="XMLID_162_" class="st6" d="M133.1,205.7c0,0-0.2-0.1-0.6-0.3c-0.4-0.2-0.9-0.5-1.6-0.9c-0.3-0.2-0.7-0.4-1-0.5
		c-0.2-0.1-0.4-0.2-0.6-0.2c-0.2-0.1-0.3-0.1-0.7-0.3c-0.7-0.4-0.5-0.3-1.2-0.5l-0.4-0.2c-0.1,0-0.1-0.1-0.2-0.1c-0.1-0.1,0,0,0,0
		c-0.1,0-0.2-0.1-0.4-0.2c-0.5-0.3-0.2-0.1-0.3-0.2c-0.1,0-0.3-0.1-0.5-0.2c-0.3-0.1-0.5-0.2-0.7-0.2c-0.4-0.2-0.9-0.3-1.3-0.4
		c-0.4-0.1-0.8-0.3-1.2-0.4c-0.4-0.1-0.8-0.2-1.1-0.3c-0.7-0.2-1.3-0.4-1.7-0.5c-0.4-0.1-0.7-0.2-0.7-0.2s0.2-0.1,0.7-0.2
		c0.4-0.1,1.1-0.2,1.9-0.3c0.4,0,0.8,0,1.3,0c0.4,0,0.9,0.1,1.4,0.2c0.5,0.1,1,0.2,1.5,0.3l0.7,0.2c0.2,0.1,0.5,0.1,0.9,0.3
		c0.1,0,0.6,0.4,0.3,0.2c0,0,0.1,0,0.3,0.1c0,0,0.3,0.2,0.3,0.2l0.1,0l0.3,0.1l0.3,0.1c0.1,0.1,0.3,0.1,0.4,0.2
		c0.2,0.1,0.3,0.2,0.4,0.3l0.2,0.2c0.1,0.1,0.3,0.2,0.5,0.4c0.2,0.1,0.4,0.3,0.6,0.4c0.4,0.3,0.7,0.6,0.9,0.9
		c0.5,0.6,0.9,1.1,1.1,1.5C133,205.4,133.1,205.7,133.1,205.7z"/>
</g>
<g id="XMLID_58_" class="st7">
	<path id="XMLID_159_" class="st0" d="M141.5,192.5c0,0-0.5,0.1-1.4,0.3c-0.9,0.1-2.2,0.3-3.8,0.4c-1.6,0.1-3.4,0.1-5.3-0.1
		c-1-0.1-2-0.1-3-0.3c-1-0.1-2-0.2-3-0.3l-1.5-0.2c-0.5-0.1-1-0.1-1.6-0.2c-0.4-0.1-0.9-0.1-1.4-0.2l-0.4-0.1l-0.4-0.1
		c-0.3-0.1-0.5-0.1-0.8-0.2c-2-0.5-3.7-1.1-5.1-1.7c-0.7-0.3-1.4-0.7-1.9-1c-0.6-0.3-1-0.7-1.4-1c-0.4-0.3-0.6-0.6-0.7-0.8
		c-0.2-0.2-0.2-0.3-0.2-0.3c0,0,0.1,0.1,0.3,0.2c0.2,0.1,0.5,0.3,0.9,0.4c0.4,0.2,0.9,0.3,1.5,0.4c0.6,0.2,1.3,0.3,2,0.4
		c1.5,0.3,3.2,0.5,5.1,0.7c0.9,0.1,1.8,0.1,3,0.2c1,0.1,2,0.1,3,0.2c1.1,0.1,2.1,0.3,3.1,0.4c1,0.1,2,0.3,2.9,0.5
		c1.9,0.3,3.6,0.7,5.2,1c1.5,0.3,2.8,0.6,3.7,0.8C140.9,192.4,141.5,192.5,141.5,192.5z"/>
</g>
<g id="XMLID_82_" class="st9">
	<path id="XMLID_157_" class="st6" d="M111.3,186.6c0,0,0.5-0.2,1.4-0.5c0.9-0.3,2-0.8,3.4-1.6c0.7-0.4,1.4-0.9,2.5-1.1
		c0.6-0.1,1.2,0,1.8,0.4c0.3,0.2,0.5,0.4,0.7,0.6c0.1,0.1,0.2,0.2,0.4,0.2c0.1,0.1,0.4,0.1,0.5,0.2l0.7,0.2c0.4,0.1,0.9,0.1,1.4,0.2
		c1,0.1,1.9,0,3-0.1c1-0.1,2.1-0.2,3.1-0.2c1-0.1,2.1-0.1,3.1,0.1c1,0.1,2,0.4,2.9,0.7c0.9,0.3,1.7,0.7,2.4,1
		c2.8,1.4,4.7,2.4,4.7,2.4s-2.1-0.4-5.1-1.4c-0.7-0.2-1.6-0.4-2.4-0.6c-0.8-0.2-1.7-0.3-2.6-0.3c-0.9,0-1.9,0-2.9,0.1
		c-1,0.1-2.1,0.2-3.1,0.3c-1.1,0.1-2.2,0.1-3.3,0l-0.8-0.1l-0.8-0.2l-0.7-0.2c-0.3-0.1-0.6-0.2-0.9-0.3c-0.3-0.1-0.6-0.4-0.8-0.6
		c-0.2-0.2-0.3-0.3-0.4-0.4c-0.2-0.1-0.5-0.2-0.8-0.2c-0.6,0-1.4,0.4-2.2,0.7c-1.5,0.6-2.8,0.8-3.8,0.9
		C111.8,186.6,111.3,186.6,111.3,186.6z"/>
</g>
<path id="XMLID_118_" class="st10" d="M143.2,190c-1.3-0.3-1.1-0.2-2.3-0.7c-0.4-0.4-2.1-1.1-3.6-1.7c-2.5-1.1-5.3-1-8-1.1
	c-0.9,0-1.6,0.1-2,0.7c0,0-0.5,0.1-0.5,0.1c-0.8,0-1,0.1-1.8,0.1c-1.1-0.2-2-0.3-3.1-0.6c-1-0.5-1.8-1.4-2.8-1.6
	c-0.1,0,0-0.1-0.1-0.1c0-0.1-0.1-0.1-0.2-0.1c0,0,0,0.1-0.1,0c0,0,0,0-0.1,0c-0.2,0-0.6,0-0.8,0.1c-0.3,0-0.6,0.2-0.8,0.2
	c-0.7,0.2-1.4,0.5-2.1,0.8c-0.7,0.1-1.3,0.3-1.8,0.4c-0.6,0.1-1.3,0.2-2.1,0.2c-0.1,0-0.3,0.1-0.5,0.1c0,0-0.1,0-0.1-0.1
	c-0.2-0.1-1,0.2-0.9,0.2c3.1,1.9,6.3,2.1,9.7,2.8c0.1,0,1,0.3,1.1,0.2c0.7,0.1,0,0,0.7,0.1c1.1,0.3,2.9,0.5,4,0.6
	c0.3,0,0.9,0.1,1.2,0.1c0.3,0.1,0.5,0.2,0.8,0.3c1.1,0.2,2.3,0.3,3.2,0.4c2.7,0.4,4.1,0.5,6.8,0.6c0.7,0,3.5,0.4,3.9,0
	c0.3,0,1.3-0.2,1.5-0.3c0.7,0,0.1-0.1,0.8-0.2c0.1,0,0.5-0.1,0.6-0.2c0.2,0,0.4-0.2,0.6-0.2c0.1,0-0.2-0.2-0.2-0.2
	C144.6,191.2,143.7,190.1,143.2,190z"/>
<g id="XMLID_88_" class="st7">
	<path id="XMLID_155_" class="st6" d="M124.8,226.5c0,0-0.7,0.1-1.9,0.1c-1.2-0.1-3-0.2-5.1-0.6c-0.5-0.1-1.1-0.2-1.7-0.5
		c-0.3-0.1-0.5-0.2-0.8-0.4c-0.3-0.1-0.5-0.3-0.8-0.4c-1.1-0.6-2.2-1.2-3.3-1.9c-1.1-0.7-2.2-1.5-3.4-2.3c-1.1-0.8-2.2-1.7-3.3-2.6
		c-1.1-0.9-2.1-1.9-3.1-2.9l-0.7-0.8l-0.6-0.7c-0.4-0.5-0.9-1-1.3-1.5c-0.4-0.5-0.8-1-1.2-1.5c-0.2-0.2-0.4-0.5-0.6-0.7
		c-0.2-0.3-0.4-0.4-0.6-0.8c-0.6-1-1.2-2-1.7-2.9c-1-1.8-1.7-3.4-2.2-4.5c-0.3-0.6-0.4-1.1-0.5-1.4c-0.1-0.3-0.1-0.5-0.1-0.5
		s0.1,0.1,0.3,0.4c0.2,0.3,0.4,0.7,0.8,1.1c0.8,0.9,1.9,2.2,3.3,3.8c0.7,0.8,1.4,1.6,2.1,2.6c0.8,0.8,1.7,1.6,2.6,2.5
		c0.5,0.5,0.9,0.9,1.4,1.4c0.5,0.5,0.9,1,1.4,1.4c0.9,0.9,1.9,1.9,2.9,2.8l1.5,1.4c0.5,0.4,1,0.9,1.5,1.3c1,0.9,2,1.7,3,2.5
		c1,0.8,2,1.6,2.9,2.3c0.2,0.2,0.5,0.3,0.7,0.5c0.2,0.1,0.5,0.4,0.7,0.4c0.4,0.2,0.9,0.4,1.4,0.6c1.9,0.7,3.6,1.1,4.8,1.4
		C124.1,226.4,124.8,226.5,124.8,226.5z"/>
</g>
<path id="XMLID_168_" class="st8" d="M120.3,224.6c-5.7-0.8-11.2-5.1-15.2-9c-4.1-4.1-7.7-8.7-11-13.6c0-0.1,0-0.3-0.1-0.4
	c0,0-0.1-0.1-0.1-0.1c-0.1-0.1-0.1-0.1-0.2-0.2c-0.5-0.7-1-1.4-1.4-2.2c-0.3-0.6-1.2-0.1-0.9,0.5c0.5,0.8,1,1.6,1.5,2.4
	c0,0.1,0,0.2,0.1,0.2c3.6,5.4,7.7,10.9,12.6,15.2c4.2,3.6,9,7.3,14.6,8C120.9,225.7,120.9,224.7,120.3,224.6z"/>
<path id="XMLID_165_" class="st11" d="M90.7,232.4c0-0.3,2.1-15,2.1-15.1c0.1-0.1,0.4-5.9,0.3-10.3c-0.1-4.1-1.2-7.3-1.3-7.4
	c-0.2-0.2-1.6,19.6-1.8,19.9c-0.9,1.9-3,8.7-3.6,10.7c-0.1,0.3-0.2,0.6-0.3,1c-0.1,0.3-0.3,0.7-0.4,1.1c-0.1,0.3-0.2,0.7-0.1,1.1
	c0,0.5,0.3,0.8,0.7,1.2c0.3,0.2,0.7,0.4,0.8,0.5c0,0,0.5,0.3,1.2,0.5c0.7,0.2,1.3,0.4,1.3,0.4C89.8,234.8,90.6,232.9,90.7,232.4z"/>
<path id="XMLID_146_" class="st12" d="M202.4,138c0.7-1.8,0.2-3-1.6-3.3c-3.3-0.6-6.8,1.8-9.6,3.1c-0.2,0.1-0.3,0.3-0.2,0.4
	c0,0,0,0,0,0c0,0.1,0,0.3-0.1,0.4c-1.1,1.9-1.6,3.9-1.5,6.1c0.2,3.2-1.9,5.1-3.1,7.9c0,0,0,0.1,0,0.1c0,0.1-0.1,0.2-0.1,0.2
	c-0.3,0.6,0.6,1.1,0.9,0.5c0.1-0.2,0.2-0.4,0.3-0.6c0.2-0.4,0.4-0.7,0.6-1.1c0.3-0.3,2.2-2.4,2.1-2.3c0.4-0.7,0.5-1.2,0.5-2
	c0-1.1,0.6-2.8,1.2-3.7c0.3-0.6,6.5-4.5,7.2-3.4c0.2,0.4,1.6-1.8,1.7-2c0.4-0.4,0.4-0.4,0.4-0.4c-1.5,0.6-8.5,4-8.8,3.8
	c-1.2-0.7-0.5-1.9-0.3-3.3c1.6-0.6,7.9-4.3,9.7-3.6c0,0,1.1,0,0.7,1.5c-0.5,1.1-2.9,3-3.2,3.6c-0.5,1-1,2-1.2,3c0,0,0,0,0,0
	c-0.3,1.1-0.4,2.2-0.3,3.5c0.2,3,0.7,6,0.4,8.9c-0.2,1.1-0.5,2.3-0.8,3.4c0,0,0,0,0,0.1c0,0.1-0.1,0.2-0.1,0.3
	c-0.2,0.6,0.7,0.9,1,0.3c0.6-1.6,1.4-3.2,1.5-5c0.1-1.6,0-3.3-0.2-4.9c0-0.4-0.1-0.8-0.1-1.1c-0.2-2.1-0.7-4.3,0.2-6.2
	C200.1,140.7,201.7,139.6,202.4,138z"/>
<path id="XMLID_171_" class="st12" d="M82.4,123.8c0-0.2-1.6-4.1-3.3-4.8c-0.3-0.2-0.9-0.4-0.9-0.5c-0.3-0.2-1.1-0.3-1.2-0.1
	c0,0-0.1,0.8,0.1,1.1c0,0.1,0,0.1,0,0.2c-0.2,0.2-0.2,0.5,0.1,0.7c0.7,0.4,1.4,0.8,1.9,1.4c0.7,0.9,1.2,2,1.7,3
	c0.3,0.8,0.5,1.5,0.8,2.3c0.2,0.5,0.2,0.1,0.4-0.3c0.1-0.3,0.3-0.9,0.3-1.2C82.5,125.3,82.5,124.5,82.4,123.8z"/>
<path id="XMLID_131_" class="st8" d="M129.9,231.4c-1-0.1-1.1-0.4-1.1-0.9c0-0.5,0-0.5,0.3-0.8c0.4-0.4-0.1-0.6-0.6-0.6
	c-0.7,0.1-0.5,0.1-1,0.6c-0.3,0.2-0.7,0.5-1,0.5c-0.2,0-0.4,0.1-0.4,0.3c-0.1-0.1-0.2-0.2-0.3-0.2c-0.5-0.4-1.1-0.9-1.6-0.2
	c-0.5,0.8,0.4,2.5,0.8,3.1c0.9,1.5,2.3,2.5,3.2,4.1c0.3,0.6,1.2,0.1,0.9-0.5c-0.6-1.1-1.5-2-2.4-3c-0.5-0.5-1.5-1.7-1.5-2.5
	c0-0.4-0.1-0.2,0.3,0.1c0.2,0.2,0.4,0.4,0.7,0.5c0.6,0.3,1.3,0.5,2,0.2c0.4,0.4,1.2,0.3,1.7,0.4
	C130.5,232.4,130.5,231.4,129.9,231.4z"/>
<path id="XMLID_172_" class="st13" d="M112.2,131.2c-1.9,0-1.9,3,0,3C114.1,134.2,114.1,131.2,112.2,131.2z"/>
<path id="XMLID_175_" class="st13" d="M155.6,135.3c-1.9,0-1.9,3,0,3C157.6,138.3,157.6,135.3,155.6,135.3z"/>
<g id="XMLID_176_" class="st7">
	<path id="XMLID_153_" class="st0" d="M91.8,67.2c0,0,0.4-0.2,1.1-0.5c0.7-0.3,1.7-0.7,3-1.1c1.2-0.4,2.7-0.8,4.3-1.3
		c1.6-0.4,3.3-0.8,4.9-1.3c1.7-0.4,3.4-0.9,4.9-1.3c0.8-0.2,1.5-0.4,2.2-0.7c0.7-0.2,1.4-0.4,2-0.7c1.2-0.4,2.2-0.8,2.9-1.1
		c0.7-0.3,1.1-0.4,1.1-0.4s-0.4,0.2-1,0.6c-0.3,0.2-0.7,0.4-1.2,0.7c-0.5,0.3-1,0.5-1.6,0.8c-1.2,0.5-2.6,1.1-4.2,1.6
		c-0.8,0.2-1.6,0.5-2.4,0.7c-0.8,0.2-1.7,0.4-2.5,0.7c-1.7,0.4-3.4,0.8-5,1.1c-1.6,0.4-3.1,0.6-4.3,1c-1.3,0.3-2.3,0.5-3.1,0.7
		C92.2,67.1,91.8,67.2,91.8,67.2z"/>
</g>
<g id="XMLID_181_" class="st7">
	<path id="XMLID_150_" class="st14" d="M85.7,112.5"/>
</g>
<g id="XMLID_160_" class="st7">
	<path id="XMLID_147_" class="st14" d="M89.7,89"/>
</g>
<path id="XMLID_182_" class="st15" d="M95.7,86.6C95.7,86.6,95.7,86.6,95.7,86.6c0.1-0.3-0.3-1-0.5-0.9c-0.1,0-0.2,0.1-0.3,0.1
	c-0.1,0-0.2,0-0.3,0c-5,4.1-5.7,11.6-6.6,17.6c0,0.1,0,0.3,0.1,0.5c-1.5,4.9-1.8,9.8-3.2,14.6c-0.1,0.3,0.2,1.2,0.7,1.8
	c-0.3,1-0.7,2.1-1.1,3.1c-0.3,0.8,1.5,3,1.7,2.4c1.3-3.4,2.4-7,3.3-10.6c1-2.6,1.8-5.5,1.9-8.1c0.1-0.4,0.2-0.7,0.2-1.1
	c0-0.2,0-0.4-0.1-0.6c1-5.1,2.4-10,3.3-15.2c0-0.1,0-0.3-0.1-0.5c0.4-0.5,0.9-0.9,1.4-1.4C96.5,88.2,96.2,87.3,95.7,86.6z"/>
<path id="XMLID_106_" class="st15" d="M208.3,97.9C208.3,97.9,208.3,97.8,208.3,97.9c0-0.1,0.1-0.1,0.1-0.1c0.2,0,0.3-1,0.3-1
	c0,0-0.2,0-0.3,0c0,0,0,0,0,0c0,0,0,0,0,0l0,0c0,0,0,0,0,0c0,0-0.1,0.1-0.1,0.2c0-0.2,0.1-0.4,0.1-0.5c0-0.2-0.2,0.4-0.2,0.5
	c-1.2,4.1-2.7,8.1-4.2,12.1c-0.2,0.5-0.3,1-0.5,1.5c0-6.5,0.7-12.9,2.2-19.2c0.1-0.3,0-0.3-0.1,0c-0.4,1.2-0.8,2.3-1.1,3.5
	c0,0,0,0.1,0,0.1c-0.4,1.6-0.7,3.3-1,5c-0.7,4.1-1.5,8.2-2.3,12.3c-0.5,1.2,1-11.7,0.6-10.5c0-1.9-1.8,10.3-1.8,8.4
	c0.1-5.3,0.5-10.6,1.4-15.9c0.1-0.4-0.2,0.4-0.2,0.4c-1.6,6-2.1,12.1-3.2,18.2c-0.5,1.5-0.6-10.2-0.9-8.7c-0.3-1.8-1.2,7-1.4,5.2
	c-0.5-4.8-0.4-9.6,0.7-14.4c0.1-0.6-0.2,0.2-0.2,0.3c-0.1,0.4-0.2,0.7-0.3,1.1c-0.4,0.7-0.5,1.6-0.6,2.6c0,0.1,0,0.2-0.1,0.3
	c-0.1,0.5-0.2,1-0.2,1.5c-0.2,1.2-0.4,2.4-0.5,3.6c0,0,0,0.2,0,0.5c-0.1-0.6-0.2-1.2-0.2-1.4c-0.3-2.2-0.6-4.3-0.9-6.5
	c0,0.1-0.3,0.6-0.3,0.9c0.3,2.3,0.6,4.6,1,6.9c0,0,0,0.1-0.1,0.1c-0.1-1.3-0.7-2.8-1.1-4c0-0.1,0-0.3,0-0.4
	c-0.1-0.6-0.2-1.1-0.4-1.6c0-0.2,0-0.4-0.1-0.6c0,0,0,0,0,0c-0.2-1.2-0.4-2.4-0.9-3.5c0,0-0.5,1.1-0.5,1.2c-0.2,0.5-0.4,1.1-0.4,1.6
	c0,1,0.4,1.8,0.6,2.7c0.1,0.2-0.1,0.2-0.1,0.4c0.1,0.6,0,0.3,0.2,0.8c0,0,0,0.5,0,0.5c-0.1,0.5-0.4,2.5,0.1,2.9
	c-0.2,0.6,0,2.2,0,2.3c0.1,0.8-0.3,1.2,0,2c-0.1,1.9-0.5,4.1-0.5,5.6c0,2.9-0.1,3.3-0.2,6.2c0,1.5-0.2,3.1-0.2,3.1
	c-0.2,2.2-0.2,4.2-0.2,6.9c-0.1,0.2,0,1,0,1.2c0,1,0,1.9,0,2.9c0,0.3,0,3.1,0.5,3c0.3-0.1,0.4-0.6,0.5-0.8c0,0,0-0.1,0.1-0.3
	c0.2-0.2,0.4-0.4,0.4-0.5c0-0.1,0.1-0.2,0.1-0.3c-0.1,0.4-0.1,0.9,0,1.4c0,0.1,0.2,0,0.2,0c0.8-0.5,1.6-0.9,2.3-1.4
	c0.1,0,0.1-0.1,0.2-0.3c0.7-0.4,1.3-0.9,2-1.4c0,0,0.1-0.1,0.1-0.1c0,0.1,0.1,0.1,0.2-0.1c0.3-0.2,0.8-0.8,1.2-0.9
	c0.2,0,0.4-0.2,0.5-0.4c0,0,0,0,0,0c0.3-0.2,0.6-0.5,0.9-0.9c1.5-2.3,2.2-5.5,2.8-8.2c0.5-2.1,1.1-4.5,1.3-6.8
	c1.1-4.6,2.3-9.2,3.7-13.7c0,0,0.1-0.1,0.1-0.1c0.5-1.9,1-3.9,1.6-5.8C208.7,97.6,208.5,97.7,208.3,97.9z"/>
<path id="XMLID_109_" class="st6" d="M191.6,102.7c-0.1-1.4-0.2-2.9-0.4-4.3c-0.1-1.2,0.1-2.6-0.2-3.7c-0.1-0.2-0.8,0.4-0.7,0.7
	c0.2,0.8,0,1.9,0.1,2.8c0.1,1.4,0.3,2.8,0.4,4.3c0.2,3,0.2,6,0.1,9c0,0.3,0.7-0.3,0.7-0.6C191.7,108.1,191.8,105.4,191.6,102.7z"/>
<path id="XMLID_185_" class="st15" d="M91.8,88.4c-2.1-0.2-3.8-0.7-5.6-1.9c0,0-0.5,1.1-0.8,1.9c-0.3,0.7-0.7,2.1-0.7,2.3
	c0,0.5,0,1.1,0,1.6c-0.2,0.6-0.8,2-0.8,2.5c-0.3,0.8-0.6,2.1-0.5,2.2c0.1,0.1,0.2,0.1,0.3,0.2c-0.2,0.7-0.5,1.6-0.5,1.8
	c0,1-0.1,1.7,0,2.2c-0.3,0.6-0.8,2.4-0.7,2.6c0.1,0.9,0.2,1.8,0.3,2.7c-0.2,0.8-0.3,1.9-0.4,2c0.2,0,0.3,0,0.5,0
	c-0.1,0.3-0.2,0.5-0.2,0.7c-0.1,1.1-0.1,2.1,0.1,3.2c0,0,0,0,0,0.1c0,0,0.1,0,0.1,0c-0.2,1.5,0.1,3,0.1,4.5
	c-0.1,0.3-0.1,0.6-0.1,0.9c0,0.4,0,0.8,0,1.2c0,0.2,0.1,0.5,0.1,0.7c0,0.1,0,0.2,0,0.3c0,0.1,0,0.1,0,0.2c0,0.1,0,0.2,0,0.2
	c0.1,1,0.2,1.9,0.4,2.9c0,0.2,0,0.3,0,0.4c0.1,0.2,0.1,0.4,0.2,0.5c0,0.3,0.1,0.6,0.1,0.9c0,0.1,0,0.2,0,0.4c0,0,0-0.1,0-0.1
	c0,0,0,0,0,0.1c0,0,0,0,0,0l0,0.1c0,0.2,0.5-0.9,0.5-0.9c0.1-0.4,0.4-0.9,0.4-1.4c0.1-0.2,0.1-0.4,0.1-0.6c0.1-2.3,0.7-4.4,1.1-6.6
	c0.3-1.7-0.1-3.6,0.5-5.2c0-0.1,0.4-1.9,0.4-1.9c-0.1,0-0.1,0-0.2,0.1c0.2-0.8,0.3-2,0.4-2c0,0-0.1,0-0.1,0l0.4-1.5
	c0-0.1,0.4-1.5,0.3-1.5c-0.1,0-0.2,0-0.3,0c0.5-1.2,1-2.5,1.1-3.8c0,0,0,0,0-0.1l0,0c0.4-0.3,1-2.8,0.8-2.8c0,0,0,0-0.1,0
	c0.3-0.5,0.6-1.5,0.6-2.1c0.3-0.2,0.7-1.6,0.8-2.3c0.1-0.4,0.3-0.9,0.4-1.3C91.2,90.8,91.9,88.4,91.8,88.4z"/>
<g id="XMLID_66_" class="st7">
	<path id="XMLID_144_" class="st0" d="M93.5,88.8c0,0-0.1,1.4-0.5,3.5c-0.2,1.1-0.4,2.3-0.7,3.6c-0.3,1.3-0.6,2.7-0.9,4.1
		c-0.3,1.4-0.6,2.8-0.9,4.1c-0.2,1.3-0.5,2.5-0.6,3.6c-0.1,1.1-0.3,1.9-0.3,2.6c-0.1,0.6-0.1,1-0.1,1s0-0.4,0-1c0-0.6,0-1.5,0.1-2.6
		c0.1-1.1,0.2-2.3,0.4-3.6c0.2-1.3,0.5-2.7,0.8-4.1c0.7-2.8,1.3-5.6,1.8-7.6c0.2-1,0.4-1.9,0.5-2.5C93.5,89.2,93.5,88.8,93.5,88.8z"
		/>
</g>
<g id="XMLID_67_" class="st7">
	<path id="XMLID_142_" class="st0" d="M90.9,97.2c0,0,0,1.2-0.3,2.9c-0.1,0.9-0.2,1.9-0.4,2.9c-0.2,1.1-0.4,2.2-0.6,3.3
		c-0.2,1.1-0.4,2.3-0.6,3.3c-0.1,1.1-0.3,2.1-0.4,2.9c-0.1,0.9-0.2,1.6-0.2,2.1c0,0.5-0.1,0.8-0.1,0.8s0-0.3,0-0.8
		c0-0.5,0-1.2,0-2.1c0-0.9,0.1-1.9,0.2-2.9c0.1-1.1,0.3-2.2,0.5-3.3c0.4-2.3,0.9-4.5,1.2-6.2C90.7,98.4,90.9,97.2,90.9,97.2z"/>
</g>
<g id="XMLID_70_" class="st7">
	<path id="XMLID_127_" class="st0" d="M89,90.2c0,0,0,1.2-0.3,2.9c-0.1,0.9-0.2,1.9-0.4,2.9c-0.2,1.1-0.4,2.2-0.6,3.3
		c-0.2,1.1-0.4,2.3-0.6,3.3c-0.1,1.1-0.3,2.1-0.4,2.9c-0.1,0.9-0.2,1.6-0.2,2.1c0,0.5-0.1,0.8-0.1,0.8s0-0.3,0-0.8
		c0-0.5,0-1.2,0-2.1c0-0.9,0.1-1.9,0.2-2.9c0.1-1.1,0.3-2.2,0.5-3.3c0.4-2.3,0.9-4.5,1.2-6.2C88.8,91.3,89,90.2,89,90.2z"/>
</g>
<g id="XMLID_234_" class="st7">
	<path id="XMLID_125_" class="st0" d="M204.4,110.8c0,0-0.1,0.4-0.2,1c-0.1,0.6-0.2,1.5-0.4,2.5c-0.3,2.1-0.7,4.9-1.3,7.7
		c-0.1,0.7-0.3,1.4-0.4,2.1c-0.1,0.7-0.3,1.4-0.5,2c-0.4,1.3-0.8,2.5-1.2,3.5c-0.4,1-0.8,1.8-1.1,2.3c-0.3,0.6-0.5,0.9-0.5,0.9
		s0.1-0.3,0.3-0.9c0.2-0.6,0.4-1.4,0.7-2.5c0.6-2,1.2-4.8,1.7-7.6c0.5-2.8,1.1-5.6,1.7-7.6c0.3-1,0.6-1.9,0.8-2.5
		C204.2,111.1,204.4,110.8,204.4,110.8z"/>
</g>
<g id="XMLID_232_" class="st7">
	<path id="XMLID_122_" class="st0" d="M193.2,105.7c0,0,0,0.5-0.1,1.3c-0.1,0.8-0.1,1.9-0.1,3.3c0,1.4,0,3,0,4.7c0,1.7,0,3.5,0,5.4
		c0,0.9-0.1,1.8-0.1,2.7c0,0.9-0.1,1.8-0.2,2.6c-0.2,1.7-0.5,3.3-0.8,4.6c-0.1,0.3-0.2,0.7-0.2,1c-0.1,0.3-0.2,0.6-0.3,0.9
		c-0.2,0.5-0.3,1-0.5,1.4c-0.3,0.7-0.5,1.2-0.5,1.2s0.1-0.4,0.3-1.2c0.1-0.4,0.2-0.9,0.3-1.4c0.1-0.5,0.2-1.2,0.3-1.8
		c0.1-0.7,0.2-1.4,0.3-2.2c0.1-0.8,0.1-1.6,0.2-2.4c0.1-1.7,0.2-3.5,0.2-5.3c0.1-1.8,0.1-3.6,0.2-5.4c0.1-1.7,0.2-3.3,0.3-4.7
		c0.1-0.7,0.1-1.3,0.2-1.9c0.1-0.6,0.2-1,0.2-1.4C193.1,106.2,193.2,105.7,193.2,105.7z"/>
</g>
<g id="XMLID_187_" class="st5">
	<path id="XMLID_120_" class="st0" d="M184.2,68.4c-0.9-1.1-3.7-3.2-7.9-13.7c3.8,5.4,11.5,8.3,15.4,11.9c-1.2-1.4-2.3-2.8-3.5-4.1
		c2.9,2.4,5.7,4.9,8.4,7.6c-0.8-2.5-1.9-5-3.1-7.4c7.2,5.3,12.8,15.8,12,24.7c-2.9-5.8-4.4-4.9-5.8-6.6c0.1,2.7,1.8,4.3,1.9,10.5
		c-1.1-2.2-3.2-4.5-4.5-5.5c-0.8,2.9,2.3,9.4,1.5,12.4c-0.9-2.2-3.4-5.7-3.9-6.3c-0.3,2.5-0.2,4-0.5,6.6c-1.4-3.5-2-2.1-3-3.7
		c-0.4-0.7-1.2-2.6-1.5-3.4c-0.4-1-1.3-1.6-2.1-2.2c-1.8-1.5-3.2-3.5-3.9-5.7c0.9,1.2,1.8,2.4,2.7,3.6c-1.4-4-3.3-7.8-5.4-11.4
		c-0.4,1-0.5,2.2-0.3,3.3c-3.8-4.5-8.1-8.6-12.7-12.2c5.7,2.6,11.1,5.8,16,9.5c-2-3.4-4.2-6.7-6.4-9.9c4.7,3.4,9.5,6.9,14.2,10.3
		C189.2,72.2,187.5,71.6,184.2,68.4"/>
</g>
<path id="XMLID_247_" class="st16" d="M171.5,190.4c-2,3.1-2.8,7.1-3.6,10.7c-0.9,4-1.7,8.1-2.2,12.2c-0.5,4.3-0.5,8.6-1,12.9
	c-0.4,4-1.4,7.9-1.5,12c0,0.3-0.1,0.5,0.2,0.4c0.5-0.1,1.4-0.2,1.8-0.4c0.6-0.1,1.1-0.4,1.3-0.7c0.2-0.2,0.8-0.7,0.8-2
	c0-0.1,0.1-0.4,0-0.5c0.1-0.2,0-0.7,0-0.9c0-0.2,0-0.3-0.1-0.4c0.3-2.5,0.2-5,0.3-7.6c0.2-3.9,0.7-7.7,1.1-11.6
	c0-0.5,0.1-0.9,0.1-1.4c0.3-0.9,0.4-1.7,0.2-1.9l0,0c0.2-2.2,0.5-4.5,0.7-6.7c0.1-0.6,0.2-1.3,0.2-1.9c0,0,0-0.1,0-0.1
	c0.4-4,1.8-7.7,2.5-11.6C172.5,190.3,171.8,189.9,171.5,190.4z"/>
<path id="XMLID_231_" class="st17" d="M132.9,158.7c-0.8-1,0,1.2-0.5,2.4c-0.4,1.1-0.1,0.6-0.7,1.5c-0.6,0.9-3.3,2.5-3.9,3.5
	c-0.4,0.7,1,1.2,2.4,0.7c0.7-0.3,1.5-0.7,2.2-1.2c0.6-0.5,1-1.5,1.2-2.3C134.2,161.7,134.1,160.1,132.9,158.7z"/>
<path id="XMLID_233_" class="st11" d="M186.8,159.9c0.2-0.6-1.5-1.5-1.6-1.2c-1,3-2.8,5.4-3.9,8.4c-0.8,1.9-1,2.8,0.8,4.1
	c0.9,0.7,1.4,0.2,0.4-0.5c-0.9-0.7,1.6-5.1,2.1-5.8C185.6,163.2,186.2,161.6,186.8,159.9z"/>
<g id="XMLID_17_">
	<path id="XMLID_116_" class="st6" d="M91,196.2c0,0,0.2,0.5,0.4,1.4c0.1,0.5,0.3,1,0.4,1.7c0.1,0.7,0.3,1.4,0.4,2.2
		c0.1,0.8,0.2,1.7,0.3,2.7c0.1,0.9,0.1,1.9,0.2,3c0,1,0,2.1-0.1,3.2c-0.1,1.1-0.2,2.2-0.3,3.3c-0.2,1.1-0.3,2.2-0.6,3.2
		c-0.2,1.1-0.5,2.1-0.8,3.1c-0.3,1-0.6,1.9-0.9,2.8c-0.3,0.9-0.7,1.7-1,2.5c-0.3,0.8-0.7,1.4-1,2c-0.3,0.6-0.6,1.1-0.8,1.5
		c-0.5,0.8-0.8,1.3-0.8,1.3s0.1-0.5,0.4-1.4c0.3-0.9,0.7-2.2,1.1-3.8c0.2-0.8,0.4-1.6,0.7-2.5c0.2-0.9,0.4-1.9,0.6-2.8
		c0.2-1,0.4-2,0.6-3c0.2-1,0.3-2.1,0.5-3.2c0.1-1.1,0.3-2.1,0.4-3.2c0.1-1,0.2-2.1,0.2-3.1c0-1,0.1-2,0.1-2.9c0-0.9,0-1.8,0-2.6
		c0-1.6,0-3-0.1-3.9C91,196.8,91,196.2,91,196.2z"/>
</g>
<g id="XMLID_54_">
	<path id="XMLID_105_" class="st6" d="M190.8,93.3c0,0,0.1,0.3,0.4,1c0.3,0.6,0.6,1.6,1,2.8c0.4,1.2,0.8,2.8,1.2,4.5
		c0.2,0.9,0.4,1.8,0.6,2.8c0.2,1,0.3,2.1,0.4,3.2c0.3,2.2,0.4,4.7,0.4,7.2c0,2.6-0.1,5.3-0.4,8.1c-0.3,2.8-0.7,5.7-1.2,8.6
		c-0.5,2.9-1.2,5.8-1.9,8.7c-0.8,2.9-1.6,5.7-2.5,8.5c-0.9,2.8-1.8,5.5-2.8,8.1c-0.9,2.6-1.9,5.1-2.8,7.5c-0.9,2.4-1.8,4.6-2.7,6.7
		c-1.8,4.1-3.5,7.4-4.5,9.8c-1.1,2.4-1.6,3.7-1.6,3.7s0.1-0.4,0.3-1c0.2-0.7,0.5-1.6,0.9-2.9c0.9-2.4,2.2-5.9,3.8-10.1
		c1.6-4.1,3.1-9.1,4.9-14.3c0.9-2.6,1.7-5.4,2.6-8.1c0.8-2.8,1.6-5.6,2.4-8.5c0.7-2.8,1.4-5.7,2-8.6c0.6-2.8,1-5.6,1.4-8.4
		c0.7-5.5,0.8-10.6,0.5-15c-0.1-2.2-0.3-4.2-0.6-6c-0.3-1.8-0.6-3.3-0.9-4.6c-0.1-0.6-0.3-1.2-0.4-1.7c-0.1-0.5-0.2-0.9-0.3-1.2
		C190.9,93.7,190.8,93.3,190.8,93.3z"/>
</g>
<g id="XMLID_9_">
	<path id="XMLID_103_" class="st6" d="M167.3,237.1c0-0.5,0-1.1,0-1.6l0-1.6c0-1.1-0.1-2.1,0-3.2c0.1-2.1,0.2-4.3,0.3-6.4
		c0.1-2.1,0.2-4.3,0.4-6.4c0.1-2.1,0.4-4.3,0.6-6.4c0.5-4.3,1.1-8.5,1.9-12.7c0.8-4.2,1.7-8.4,2.8-12.6l1.1,0.5
		c-3.9,6.4-7.9,12.8-12.6,18.8c-2.4,3-4.9,5.8-7.7,8.4c-2.8,2.6-5.9,4.9-9.2,6.8c-1.6,0.9-3.3,2-5,2.8c-1.7,0.8-3.6,1.5-5.4,2
		c-3.7,1-7.7,1.4-11.5,0.9c-1.9-0.3-3.8-0.7-5.7-1.4c-0.9-0.3-1.8-0.8-2.7-1.2l-0.6-0.3l-0.6-0.4c-0.4-0.3-0.8-0.5-1.2-0.8
		c-3.1-2.2-6-4.7-8.7-7.4c-5.4-5.4-9.9-11.7-13.2-18.5c-1.7-3.4-3-7-4-10.7c-0.5-1.8-0.9-3.7-1.2-5.6c-0.3-1.8-0.7-3.7-0.9-5.6
		c-0.9-7.6-0.2-15.2,0.2-22.7c0.2-3.7,0.4-7.5,0.2-11.2c-0.2-3.7-0.7-7.4-1.8-10.9l-0.1-0.2l0.1-0.2c1.3-4.6,2.1-9.4,2.9-14.2
		c0.7-4.8,1.4-9.6,2.5-14.4c0.3-1.2,0.6-2.4,0.9-3.6c0.3-1.2,0.7-2.4,1-3.5c0.4-1.2,0.8-2.3,1.3-3.5l0.7-1.7l0.8-1.7l0.9-1.6
		l0.9-1.6c0.3-0.5,0.7-1,1-1.5c0.4-0.5,0.7-1,1.1-1.5c0.4-0.5,0.8-0.9,1.2-1.4c0.4-0.4,0.8-0.9,1.3-1.3l1.3-1.3l1.4-1.2l-1.4,1.2
		l-1.3,1.3c-0.4,0.4-0.8,0.9-1.2,1.4c-0.4,0.5-0.8,1-1.1,1.4c-0.7,1-1.4,2-2,3l-0.9,1.6l-0.8,1.6l-0.7,1.7l-0.7,1.7
		c-0.4,1.1-0.8,2.3-1.2,3.4c-0.3,1.2-0.7,2.3-0.9,3.5c-0.3,1.2-0.5,2.4-0.8,3.6c-0.9,4.8-1.5,9.6-2.2,14.4
		c-0.7,4.8-1.4,9.7-2.7,14.4l0-0.4c1.1,3.6,1.8,7.4,2,11.2c0.3,3.8,0.2,7.6,0,11.4c-0.2,3.8-0.4,7.5-0.5,11.2
		c-0.1,3.7,0,7.5,0.4,11.1c0.2,1.9,0.6,3.6,0.9,5.5c0.3,1.8,0.7,3.6,1.2,5.4c1,3.6,2.3,7,3.9,10.4c3.2,6.7,7.7,12.7,12.9,18
		c2.6,2.6,5.5,5,8.5,7.2c0.4,0.3,0.8,0.5,1.1,0.8l0.5,0.4l0.6,0.3c0.8,0.4,1.6,0.8,2.5,1.1c1.7,0.6,3.4,1.1,5.2,1.3
		c3.6,0.5,7.3,0.1,10.8-0.8c1.8-0.5,3.5-1.1,5.1-1.9c1.7-0.8,3.2-1.7,4.9-2.7c6.4-3.7,11.8-8.9,16.5-14.7
		c4.7-5.8,8.8-12.1,12.8-18.5l2.1-3.4l-1,3.8c-1.1,4.1-2.1,8.3-2.9,12.4c-0.9,4.2-1.6,8.4-2.2,12.6c-0.3,2.1-0.6,4.2-0.8,6.4
		c-0.2,2.1-0.4,4.3-0.5,6.4l-0.4,6.4c-0.1,1.1,0,2.1,0,3.2c0,0.5,0,1.1,0,1.6C167.4,236,167.3,236.6,167.3,237.1z"/>
</g>
<g id="XMLID_44_">
	<path id="XMLID_101_" class="st6" d="M91.2,196.2c0,0,0.1,0.6,0.3,1.7c0.2,1.1,0.4,2.6,0.5,4.5c0.2,1.9,0.3,4,0.3,6.4
		c0,1.2,0,2.4,0,3.6c-0.1,1.2-0.1,2.5-0.2,3.7c-0.1,1.2-0.2,2.5-0.4,3.7c-0.1,1.2-0.3,2.4-0.5,3.6c-0.4,2.3-0.8,4.5-1.4,6.3
		c-0.6,1.8-1.3,3.2-1.9,4.2c-0.3,0.5-0.6,0.8-0.7,1c-0.2,0.2-0.3,0.3-0.3,0.3s0.3-0.6,0.7-1.6c0.4-1,0.8-2.5,1.1-4.3
		c0.3-1.8,0.5-3.9,0.8-6.2c0.1-1.1,0.2-2.3,0.3-3.5c0.1-1.2,0.2-2.4,0.3-3.6c0.1-1.2,0.2-2.4,0.3-3.6c0.1-1.2,0.1-2.4,0.2-3.5
		c0.1-2.3,0.2-4.4,0.3-6.3c0.1-1.8,0.2-3.4,0.2-4.5C91.2,196.8,91.2,196.2,91.2,196.2z"/>
</g>
<g id="XMLID_45_">
	<path id="XMLID_97_" class="st6" d="M83,120c0,0,0-0.2-0.1-0.7c-0.1-0.4-0.3-1.1-0.6-1.8c-0.3-0.7-1-1.5-1.9-1.9
		c-0.9-0.4-2.3-0.2-2.9,0.7c-0.3,0.4-0.3,1.1-0.2,1.8c0.1,0.8,0.1,1.6,0.1,2.4c0,1.7,0,3.4-0.2,5.2c-0.2,1.8-0.5,3.7-0.9,5.5
		c-0.5,1.9-1,3.7-1.7,5.5c-0.7,1.8-1.6,3.5-1.5,4.9c0,0.7,0.4,1.5,0.7,2.5c0.1,0.3,0.1,0.5,0.1,0.8c0,0.3,0,0.5,0,0.8
		c0,0.5-0.1,1-0.1,1.4c-0.3,1.8-0.2,3.2,0.5,4.5c0.7,1.3,1.7,2.3,2.9,2.9c1.2,0.5,2.4,0.7,3.5,0.5c1.1-0.2,2-0.5,2.7-1
		c0.7-0.4,1.2-0.9,1.5-1.2c0.3-0.3,0.4-0.5,0.4-0.5s-0.1,0.2-0.3,0.6c-0.2,0.4-0.7,0.9-1.3,1.5c-0.7,0.5-1.6,1.1-2.8,1.4
		c-1.2,0.3-2.6,0.4-4.1-0.2c-1.5-0.5-2.8-1.6-3.8-3.2c-0.5-0.8-0.8-1.6-1-2.6c-0.1-0.3-0.1-0.5-0.1-0.7c0-0.3,0-0.5,0-0.7
		c0-0.5,0.1-0.9,0.1-1.4c0-0.4,0.1-0.9,0.1-1.2c0-0.2,0-0.4,0-0.5c0-0.2-0.1-0.4-0.1-0.6c-0.2-0.7-0.7-1.6-0.9-2.8
		c-0.1-1.1,0.1-2.2,0.5-3.2c0.3-1,0.7-1.8,1-2.7c0.7-1.7,1.3-3.5,1.7-5.3c0.4-1.8,0.8-3.5,1.1-5.3c0.2-1.7,0.4-3.4,0.5-5
		c0-0.8,0-1.6,0-2.3c0-0.8,0-1.7,0.6-2.5c0.5-0.8,1.4-1.1,2.1-1.2c0.7-0.1,1.4,0.1,2,0.4c1.2,0.6,1.7,1.7,2,2.4
		c0.3,0.8,0.3,1.5,0.4,1.9C83,119.7,83,120,83,120z"/>
</g>
<g id="XMLID_46_">
	<path id="XMLID_95_" class="st6" d="M192.2,137.8c0.3-0.3,0.7-0.7,1-1c0.4-0.3,0.7-0.6,1.1-0.9c0.4-0.3,0.8-0.5,1.2-0.7
		c0.4-0.2,0.9-0.4,1.3-0.6c0.9-0.3,1.9-0.6,2.8-0.7c1-0.1,2-0.1,3,0l0.3,0l0.1,0.4c0.5,1.2,0.6,2.5,0.2,3.7
		c-0.2,0.6-0.4,1.2-0.8,1.7c-0.3,0.5-0.7,1-1.1,1.4c-0.2,0.2-0.3,0.4-0.5,0.6c-0.1,0.1-0.2,0.2-0.2,0.3l-0.2,0.4
		c-0.2,0.4-0.3,0.8-0.4,1.3c-0.2,0.9-0.1,2,0,3c0.1,1.1,0.3,2.1,0.3,3.4c0,0.5,0,1.1,0,1.7c0,0.6-0.1,1.2-0.2,1.7
		c-0.3,2.3-1.1,4.5-1.9,6.5c-0.8,2.1-1.7,4.1-2.7,6.1c-1,2-2.4,4-4.2,5.4c-0.5,0.4-0.9,0.7-1.5,1c-0.3,0.1-0.5,0.2-0.8,0.3
		c-0.3,0.1-0.6,0.2-0.9,0.2c-1.2,0.2-2.4,0.2-3.5-0.1c-1.1-0.3-2.2-0.8-3-1.7c-0.8-0.8-1.3-1.9-1.3-3.1c0.2,1.1,0.8,2.1,1.6,2.7
		c0.8,0.7,1.8,1,2.9,1.2c1,0.2,2.1,0.1,3.1-0.2c0.5-0.1,0.9-0.3,1.4-0.6l0.6-0.4c0.2-0.2,0.4-0.3,0.6-0.5c1.6-1.3,2.6-3.2,3.5-5.1
		c0.5-1,0.9-2,1.3-3l1.2-3.1c0.8-2,1.4-4.1,1.7-6.2c0.1-0.5,0.1-1,0.2-1.6c0-0.5,0-1,0-1.6c0-1-0.2-2.1-0.3-3.2
		c-0.1-1.1-0.1-2.3,0.1-3.6c0.1-0.6,0.3-1.2,0.7-1.8l0.2-0.4c0.1-0.2,0.2-0.3,0.3-0.4c0.2-0.2,0.4-0.5,0.6-0.7
		c0.4-0.4,0.8-0.8,1-1.2c0.3-0.4,0.5-0.8,0.6-1.2c0.3-0.9,0.3-1.9,0-2.8l0.5,0.4c-0.9-0.2-1.8-0.3-2.7-0.2c-0.5,0-0.9,0-1.4,0.1
		c-0.5,0.1-0.9,0.1-1.3,0.3c-0.4,0.1-0.9,0.3-1.3,0.4c-0.4,0.2-0.9,0.3-1.3,0.5c-0.4,0.2-0.8,0.4-1.2,0.7
		C192.9,137.3,192.5,137.5,192.2,137.8z"/>
</g>
<g id="XMLID_47_">
	<path id="XMLID_93_" class="st6" d="M85.3,142c0,0-0.1,0.2-0.4,0.5c-0.3,0.3-0.7,0.7-1.4,1.1c-0.6,0.4-1.3,0.7-2.2,1
		c-0.5,0.1-0.9,0.3-1.7,0.1c-0.8-0.3-1.1-0.6-1.5-1.1c-0.4-0.5-0.6-1-0.8-1.5c-0.1-0.3-0.1-0.5-0.2-0.8c0-0.2,0-0.2,0-0.4l0-0.4
		c0-1,0.2-1.9,0.6-2.6c0.4-0.7,0.8-1.1,1.1-1.4c0.2-0.1,0.3-0.2,0.4-0.3c0.1-0.1,0.2-0.1,0.2-0.1s-0.1,0.2-0.2,0.6
		c-0.1,0.4-0.2,0.9-0.2,1.6c0,0.6-0.1,1.3,0,2l0,0.2l0.1,0.3c0,0.2,0.1,0.3,0.1,0.5c0.1,0.3,0.2,0.7,0.4,0.9
		c0.1,0.3,0.4,0.6,0.5,0.7c0.1,0.1,0.6,0.1,0.9,0c0.8-0.1,1.5-0.2,2.2-0.4c0.6-0.2,1.2-0.3,1.5-0.5C85.1,142.2,85.3,142,85.3,142z"
		/>
</g>
<g id="XMLID_48_">
	<path id="XMLID_91_" class="st6" d="M184.1,158.7c0.7-0.1,1.4-0.2,2-0.3l0.2,0l0.2,0.3c0.5,1.1,0.9,2.2,1.3,3.2l-0.9-0.6
		c1-0.1,2-0.2,3.1-0.3l-0.7,0.3c0.8-0.9,1.4-1.9,1.8-3c0.1-0.3,0.2-0.6,0.3-0.9c0.1-0.3,0.2-0.6,0.2-0.9l0.1-0.9
		c0-0.3,0-0.6,0.1-0.9l0.6,0.4c-0.9,0-1.8-0.5-2.1-1.2c0.7,0.4,1.4,0.5,2,0.3l0.4-0.2l0.2,0.6c0.2,0.7,0.3,1.4,0.3,2.1
		c0,0.4,0,0.7,0,1.1c0,0.4-0.1,0.7-0.2,1.1c-0.2,0.7-0.4,1.4-0.8,2.1c-0.4,0.6-0.8,1.3-1.3,1.8l-0.3,0.3l-0.4,0c-1,0-2,0-3.1,0
		l-0.7,0l-0.1-0.6c-0.2-1.1-0.4-2.3-0.5-3.5l0.4,0.3C185.4,159.1,184.7,159,184.1,158.7z"/>
</g>
<g id="XMLID_49_">
	<path id="XMLID_89_" class="st6" d="M84.2,141.3c0,0,0,0.4-0.1,0.7c-0.1,0.4-0.4,0.7-0.7,0.9c-0.3,0.2-0.8,0.2-1.1,0.1
		c-0.4-0.1-0.7-0.3-0.7-0.3s0-0.4,0.1-0.7c0.1-0.4,0.4-0.7,0.7-0.9c0.3-0.2,0.8-0.2,1.1-0.1C83.8,141.1,84.2,141.3,84.2,141.3z"/>
</g>
<g id="XMLID_50_">
	<path id="XMLID_85_" class="st6" d="M101,118.1c3.1-0.5,6.2-1,9.3-1.1c1.6-0.1,3.1,0,4.7,0.1c1.5,0.2,3.1,0.5,4.7,1
		c1.5,0.5,3,1.1,4.4,2c1.4,0.8,2.6,1.9,3.7,3.2c0.5,0.6,1,1.3,1.4,2c0.4,0.7,0.7,1.5,1,2.3c0.5,1.6,0.8,3.2,0.7,4.9
		c-0.1,1.7-0.6,3.3-1.6,4.8c-0.9,1.4-2,2.5-2.7,3.7c-0.1,0.1-0.2,0.3-0.2,0.5c0,0.1-0.1,0.2-0.1,0.2l-0.1,0.3
		c-0.1,0.2-0.1,0.3-0.2,0.5l-0.1,0.5c-0.1,0.7-0.2,1.4-0.3,2.2c-0.1,0.8-0.1,1.6-0.2,2.4c-0.1,0.4-0.1,0.8-0.3,1.2
		c-0.1,0.2-0.1,0.4-0.2,0.7c-0.1,0.2-0.1,0.4-0.2,0.6c-0.7,1.7-1.8,2.9-2.9,4.1c-1,1.2-2.1,2.3-2.8,3.5c-0.7,1.1-1,2.6-0.9,3.9
		c0.1,1.3,0.8,2.4,1.8,2.7l-1.2,1.1c-0.2-1.6,0.1-3.3,1-4.7l0.3-0.5l0.6,0l3.6,0.2l1.8,0.1l-1.1,1.4c-0.6,0.8-0.5,2.2,0.3,3.1
		c0.2,0.2,0.4,0.4,0.6,0.6l0.2,0.1l0.2,0.1c0.1,0.1,0.3,0.1,0.4,0.2c0.6,0.2,1.2,0.2,1.9,0.1c0.6-0.1,1.3-0.3,1.8-0.7
		c0.3-0.2,0.6-0.4,0.9-0.6l1-0.6c0.7-0.4,1.4-0.8,2.3-1.1c0.4-0.1,1-0.2,1.5-0.1c0.5,0.1,1,0.4,1.4,0.7l0.2,0.2l0,0.3l0.2,3.7
		l-0.3-0.6c0.1,0.1,0.5,0.1,0.6-0.1l-0.1,0.1c0.2-0.5,0.5-0.9,0.6-1.4c0.2-0.5,0.3-1,0.4-1.5c0.1-0.5,0.2-1,0.2-1.5c0-0.5,0-1,0-1.6
		c-0.1-1-0.3-2.1-0.7-3.1c-0.2-0.5-0.4-1-0.6-1.4l-0.4-0.7l-0.5-0.7c-0.6-0.9-1.3-1.8-1.9-2.7c-0.3-0.5-0.6-1-0.8-1.5
		c-0.2-0.5-0.4-1.1-0.4-1.7c0-0.6,0-1.2,0.3-1.7c0.2-0.5,0.6-1,0.9-1.4c0.3-0.4,0.7-0.9,0.9-1.3c0.3-0.5,0.4-1,0.2-1.6
		c0.2,0.5,0.1,1.1-0.1,1.6c-0.2,0.5-0.5,1-0.8,1.4c-0.3,0.5-0.6,0.9-0.8,1.4c-0.2,0.5-0.2,1-0.2,1.5c0.1,1,0.7,2,1.3,2.8
		c0.6,0.9,1.3,1.7,2,2.6l0.5,0.7l0.5,0.7c0.3,0.5,0.6,1,0.8,1.5c0.4,1,0.7,2.2,0.9,3.3c0.1,0.6,0.1,1.1,0.1,1.7
		c0,0.6-0.1,1.1-0.2,1.7c-0.1,0.6-0.2,1.1-0.4,1.7c-0.2,0.6-0.4,1.1-0.6,1.6l0,0.1l-0.1,0.1c-0.6,0.7-1.6,0.8-2.4,0.3l-0.3-0.2
		l0-0.4l-0.3-3.7l0.2,0.5c-0.2-0.2-0.4-0.3-0.6-0.3c-0.2,0-0.5,0-0.8,0.1c-0.6,0.2-1.2,0.6-1.8,1l-0.9,0.6c-0.3,0.2-0.7,0.5-1,0.7
		c-0.7,0.5-1.6,0.8-2.4,1c-0.9,0.2-1.8,0.2-2.7-0.1c-0.2-0.1-0.4-0.1-0.7-0.2l-0.3-0.2l-0.3-0.1c-0.5-0.3-0.8-0.6-1.1-0.9
		c-0.6-0.7-1-1.6-1.1-2.6c-0.1-0.9,0.1-2,0.7-2.9l0.7,1.5l-3.6-0.2l0.9-0.5c-0.6,1-0.8,2.3-0.7,3.5l0.2,1.4l-1.4-0.3
		c-1-0.2-1.9-0.9-2.4-1.7c-0.6-0.8-0.8-1.8-0.9-2.6c-0.2-1.8,0.2-3.6,1.1-5.1c0.9-1.5,2-2.6,3.1-3.8c1-1.1,2-2.3,2.5-3.5
		c0.6-1.3,0.7-2.7,0.8-4.3c0.1-0.8,0.2-1.6,0.3-2.4c0-0.2,0.1-0.4,0.2-0.6c0.1-0.2,0.1-0.5,0.2-0.6l0.1-0.3c0.1-0.1,0.1-0.2,0.2-0.3
		c0.1-0.2,0.2-0.4,0.3-0.6c0.9-1.5,2.1-2.6,2.9-3.8c0.7-1.2,1.2-2.5,1.4-4c0.1-1.4,0-2.9-0.5-4.3c-0.2-0.7-0.5-1.4-0.8-2
		c-0.3-0.7-0.7-1.2-1.2-1.9c-0.9-1.1-2-2.2-3.3-3c-1.2-0.8-2.6-1.5-4-2c-1.4-0.5-2.9-0.9-4.4-1.1c-1.5-0.2-3.1-0.4-4.6-0.4
		C107.2,117.6,104.1,117.8,101,118.1z"/>
</g>
<g id="XMLID_51_">
	<path id="XMLID_81_" class="st6" d="M108.6,186.9c0,0,0.1,0,0.2,0c0.2,0,0.4,0,0.7-0.1c0.6-0.1,1.4-0.5,2.3-1.1
		c0.9-0.7,1.7-1.7,2.7-3c0.5-0.6,1.1-1.3,1.9-1.8c0.8-0.5,1.8-0.9,2.9-0.9c2.2-0.1,4.2,1,6.2,1.7c1,0.3,2,0.6,3,0.5
		c0.2,0,0.5-0.1,0.7-0.1c0.2-0.1,0.5-0.1,0.7-0.2c0.5-0.2,1.1-0.5,1.7-0.7c0.3-0.1,0.7-0.2,1-0.3c0.2,0,0.3,0,0.6-0.1l0.2,0l0.3,0
		c0.8,0,1.5,0.2,2.1,0.5c1.3,0.5,2.3,1.2,3.4,1.8c1.1,0.6,2.2,1.3,3.3,1.9l1.7,1l0.8,0.5c0.3,0.2,0.6,0.4,0.9,0.6
		c0.3,0.3,0.6,0.6,0.9,1.1c0.1,0.3,0.2,0.6,0.2,0.9c0,0.2,0,0.3-0.1,0.5l0,0.1c0,0.1-0.1,0.2-0.1,0.3c-0.3,0.6-0.8,0.9-1.3,1.1
		c-0.4,0.2-0.9,0.2-1.3,0.2c-0.4,0-0.8,0-1.2-0.1c-0.3-0.1-0.6-0.1-1-0.3c-0.7-0.2-1.3-0.4-1.9-0.7c-1.2-0.5-2.3-1.1-3.4-1.5
		c-1.1-0.5-2.2-0.8-3.3-0.9c-2.3-0.3-4.6-0.2-6.8-0.1c-2.2,0.1-4.5,0-6.4-1.2c-0.4-0.3-0.9-0.7-1.2-1c-0.2-0.1-0.2-0.2-0.4-0.3
		c-0.1,0-0.3-0.1-0.4,0c-0.3,0-0.7,0.2-1.1,0.4c-0.4,0.2-0.8,0.3-1.1,0.5c-1.5,0.5-2.9,0.8-4,0.9c-1.1,0.2-2,0.1-2.6,0.1
		C108.9,186.9,108.6,186.9,108.6,186.9s0.3,0,0.9,0c0.6,0,1.5-0.1,2.6-0.4c1.1-0.2,2.4-0.6,3.8-1.2c0.4-0.2,0.7-0.3,1.1-0.5
		c0.4-0.2,0.8-0.4,1.3-0.6c0.3-0.1,0.5-0.1,0.9,0c0.3,0.1,0.6,0.3,0.8,0.5c0.4,0.4,0.6,0.6,1,0.8c1.5,0.8,3.6,0.8,5.8,0.6
		c2.2-0.1,4.6-0.4,7.1-0.1c1.3,0.1,2.6,0.5,3.8,0.9c1.2,0.5,2.4,1,3.5,1.5c0.6,0.2,1.1,0.4,1.7,0.6c0.3,0.1,0.5,0.1,0.9,0.2
		c0.2,0,0.5,0.1,0.7,0.1c0.2,0,0.5-0.1,0.6-0.1c0.2-0.1,0.2-0.2,0.2-0.1c0,0,0,0,0,0l0-0.1c0,0.1,0,0,0,0c0,0,0,0,0,0
		c0-0.1-0.2-0.2-0.3-0.4c-0.2-0.2-0.4-0.3-0.7-0.4l-0.8-0.5l-1.7-1c-1.1-0.6-2.2-1.3-3.3-1.9c-1.1-0.6-2.2-1.3-3.2-1.8
		c-1-0.5-1.9-0.6-3-0.2c-0.5,0.2-1.1,0.4-1.7,0.6c-0.3,0.1-0.6,0.2-0.9,0.3c-0.3,0.1-0.7,0.1-1,0.1c-1.4,0.1-2.6-0.3-3.6-0.7
		c-2.1-0.8-3.9-1.9-5.7-1.9c-1.7-0.1-3.1,1-4.2,2.1c-1.1,1.1-2,2.2-3,2.8c-1,0.7-1.9,0.9-2.5,0.9c-0.3,0-0.5,0-0.7,0
		C108.7,186.9,108.6,186.9,108.6,186.9z"/>
</g>
<g id="XMLID_52_">
	<path id="XMLID_77_" class="st6" d="M109.4,186.8c2.5,1.6,5.5,2.2,8.5,2.6c1.5,0.2,3,0.3,4.5,0.5l4.5,0.4c3,0.3,6,0.5,9,0.7
		l4.5,0.3c0.8,0.1,1.3,0,2.1-0.1c0.7-0.1,1.4-0.4,2.2-0.6l2.1-0.5l-1.4,1.7c-0.6,0.8-1.3,1.3-2,1.8c-0.7,0.5-1.5,1-2.2,1.4
		c-0.8,0.4-1.6,0.7-2.5,1l-0.7,0.2l-0.6,0.1c-0.4,0.1-0.9,0.1-1.3,0.2c-1.7,0.2-3.5,0.1-5.1-0.1c-1.7-0.1-3.3-0.4-5-0.7
		c-1.7-0.3-3.3-0.6-4.9-1c-1.6-0.4-3.3-0.8-4.9-1.3c-1.6-0.5-3.3-1.1-4.7-2.1c-0.7-0.5-1.4-1.1-1.8-1.9c-0.5-0.7-0.8-1.6-0.7-2.5
		l0.2,0c0.1,0.8,0.5,1.5,1,2.1c0.5,0.6,1.1,1.1,1.8,1.4c1.4,0.8,3,1.1,4.6,1.5c1.6,0.3,3.2,0.7,4.9,0.9c1.6,0.3,3.3,0.5,4.9,0.8
		c1.6,0.2,3.3,0.4,4.9,0.6c1.6,0.2,3.2,0.3,4.8,0.2c0.4,0,0.8,0,1.2-0.1c0.2,0,0.4-0.1,0.6-0.1l0.5-0.1c0.7-0.2,1.5-0.4,2.2-0.8
		c0.7-0.3,1.4-0.7,2.1-1.1c0.6-0.4,1.3-0.9,1.7-1.4l0.8,1.2c-0.7,0.1-1.4,0.4-2.2,0.5c-0.4,0.1-0.8,0.1-1.2,0.1
		c-0.4,0-0.8,0-1.2-0.1l-4.5-0.4c-3-0.3-6-0.6-9-1l-4.5-0.6c-1.5-0.2-3-0.4-4.5-0.7c-1.5-0.3-3-0.6-4.4-1.1c-1.4-0.5-2.8-1.1-4.1-2
		L109.4,186.8z"/>
</g>
<g id="XMLID_62_">
	<path id="XMLID_75_" class="st6" d="M207,97.7c0.6-0.5,1.3-0.9,1.8-1.3l0.4-0.3l-0.1,0.5c-0.3,2-0.7,4.1-1,6.1
		c-0.4,2-0.8,4.1-1.2,6.1c-0.4,2-0.8,4-1.3,6.1c-0.2,1-0.5,2-0.7,3l-0.5,3c-0.4,2-0.7,4.1-1.3,6.1c-0.3,1-0.7,2-1.1,3
		c-0.5,1-1,1.9-1.7,2.8c-0.3,0.4-0.8,0.8-1.2,1.2c-0.4,0.3-0.9,0.7-1.3,0.9c-0.9,0.6-1.8,1.1-2.7,1.6l-2.7,1.4l-0.7,0.4
		c-0.1,0,0,0.1-0.3,0.1c-0.1,0-0.2-0.1-0.2-0.2l0-0.1l-0.2-0.4l-0.6-1.4l0.9,1.3l0.2,0.3c0,0.1,0.1,0.1,0,0c-0.1,0,0,0,0-0.1
		l0.6-0.5c0.8-0.6,1.7-1.2,2.5-1.8c0.8-0.6,1.7-1.2,2.5-1.8c0.4-0.3,0.7-0.6,1.1-1c0.3-0.3,0.7-0.7,0.9-1.1c0.6-0.8,1-1.6,1.4-2.5
		c0.4-0.9,0.7-1.9,0.9-2.8c0.5-1.9,0.9-3.9,1.2-6c0.2-1,0.3-2,0.6-3.1c0.2-1,0.5-2,0.7-3c0.5-2,1-4,1.5-6c0.6-2,1.1-4,1.7-6
		c0.6-2,1.2-4,1.8-5.9l0.3,0.2C208.3,97.1,207.6,97.3,207,97.7z"/>
</g>
<g id="XMLID_43_">
	<path id="XMLID_71_" class="st6" d="M207,97.7c1-0.4,2-0.7,3.1-0.7l0,0c0.2-0.2,0.4-0.4,0.5-0.6c0.2-0.2,0.2-0.5,0.3-0.7l0.1-0.8
		c0-0.3,0.1-0.5,0.1-0.8c0.1-1.1,0.1-2.2,0.1-3.2l0,0.1c-1.4-3.9-3.3-7.6-5.4-11.2c-2-3.6-4.2-7.2-6.1-10.9l0,0l0,0l-0.7-1.7
		l-0.9-1.7l-1-1.6l-1.1-1.5c-0.4-0.5-0.8-1-1.2-1.4c-0.4-0.4-0.9-0.9-1.3-1.3c-0.5-0.4-0.9-0.9-1.4-1.3c-0.5-0.4-1-0.8-1.5-1.2
		c-2-1.5-4.1-2.9-6.4-4.1c-2.2-1.2-4.5-2.4-6.8-3.5l-0.1-0.1l-0.1-0.1l-3.3-3.2l-0.4-0.4c-0.1-0.1-0.3-0.3-0.4-0.3
		c-0.2-0.2-0.5-0.3-0.7-0.4c-0.5-0.2-1-0.1-1.6,0.2l-0.3,0.1l-0.3-0.1l-3.3-0.7l-3.4-0.5l-3.4-0.4l-3.4-0.3l-3.4-0.1l-3.4,0
		l-3.4,0.1l-3.4,0.2l-3.4,0.3l-3.4,0.4l-3.4,0.4l-3.4,0.5c-2.3,0.4-4.5,0.8-6.7,1.2c-2.2,0.5-4.5,0.9-6.7,1.5l0.1-1.9
		c0.2,0.1,0.3,0.1,0.6,0.3c0.2,0.1,0.6,0.6,0.6,1c0,0.5-0.2,0.7-0.3,0.9c-0.1,0.2-0.2,0.3-0.3,0.4c-0.4,0.4-0.8,0.7-1.2,0.9
		c-0.2,0.1-0.4,0.2-0.6,0.3c-0.2,0.1-0.4,0.2-0.6,0.3c-0.4,0.2-0.8,0.4-1.3,0.5c-1.7,0.6-3.3,1.1-4.8,1.7l-3.1,1.2l2-2.7
		c0.2-0.3,0.3-0.3,0.4-0.4c0.1-0.1,0.1-0.1,0.2-0.1c0.1-0.1,0.2-0.1,0.3-0.1l0.3-0.1l0.2-0.1l0.1,0l0.1,0l0.1,0c0.1,0,0.2,0,0.3,0
		c0.1,0,0.6,0.2,0.7,0.6c0.1,0.2,0.1,0.4,0.1,0.5c0,0.1,0,0.1,0,0.2c0,0.2-0.1,0.3-0.3,0.4l-0.1,0.1l0,0l0,0l-0.1,0.1l-0.1,0.1
		l-0.1,0.1l-0.3,0.1l-0.5,0.2l0.6-1.1c0,0.3,0.1,0.7,0,1c0,0.3-0.1,0.7-0.2,1c-0.2,0.6-0.6,1.2-1,1.6c-0.4,0.4-0.8,0.8-1.1,1.2
		c-0.4,0.4-0.7,0.7-0.9,1l-0.2,0.3l-0.4,0.1l-4.1,0.9l-0.3-1.9c0.8-0.1,1.6,0,2.2,0l3.6-0.1l-3.1,1.8l-5.3,3.1L97,59.4
		c0.1,0,0.3-0.1,0.4-0.1c0.2,0,0.3-0.1,0.8,0c0.1,0,0.3,0.2,0.5,0.3c0.1,0.2,0.2,0.4,0.2,0.5c0,0.3,0,0.4-0.1,0.6
		c-0.1,0.2-0.2,0.3-0.2,0.5c-0.3,0.5-0.6,0.8-0.9,1.1c-0.3,0.3-0.6,0.6-1,0.9c-0.3,0.3-0.7,0.6-1,0.8c-1.4,1.1-2.8,2-4.3,2.9
		l-0.6-1.6l2.7-0.3l7.2-0.7l-6.8,2.4l-4.7,1.7l0.5-1c0,0.2,0.1,0.4,0.1,0.6c0,0.2,0,0.5,0,0.7c0,0.3-0.1,0.6-0.3,0.8
		c-0.1,0.3-0.4,0.5-0.5,0.6c-0.4,0.3-0.7,0.5-1.1,0.6c-0.3,0.2-0.6,0.3-0.9,0.5l-0.3-1.6c0.4,0.1,0.7,0.3,0.9,0.6
		c0.2,0.2,0.3,0.5,0.3,0.7c0.1,0.4,0.2,0.8,0.2,1.1c0,0.7,0,1.4,0,2c-0.1,1.3-0.3,2.5-0.5,3.8c-0.2,1.2-0.5,2.5-0.7,3.7l-0.4,1.8
		c-0.1,0.6-0.3,1.2-0.4,1.8l-0.8-0.8c0.4,0,1,0,1.5,0.3c0.3,0.2,0.5,0.5,0.6,0.7c0.1,0.3,0.2,0.5,0.2,0.7l0.1,0.5
		c0,0.1,0.1,0.2,0,0.2c0,0,0,0,0,0l0.1,0.1c0.1,0.1,0.1,0.1,0.2,0.1c0.1,0,0.3,0.1,0.4,0.1c0.6,0.1,1.3,0,2-0.1
		c0.7-0.1,1.4-0.3,2.1-0.5l0.5,1.2l-0.5,0.3l-0.3,0.1l-0.2,0.1l-0.1,0l-0.1,0l-0.1,0c0,0-0.1,0-0.2,0c0,0-0.1,0-0.1,0
		c0,0-0.4-0.2-0.4-0.5c0-0.3,0-0.2,0-0.3c0,0,0-0.1,0.1-0.1c0.1-0.1,0.1-0.1,0.1-0.1l0.1-0.1l0.1,0l0.1-0.1l0.2-0.1l0.3-0.1
		c0.2-0.1,0.4-0.2,0.6-0.2l2.5-0.8l-1.8,1.9c-0.3,0.3-0.6,0.6-0.9,0.8c-0.2,0.1-0.4,0.2-0.5,0.3c-0.2,0.1-0.4,0.2-0.6,0.2
		C91.3,88.9,91,89,90.8,89c-0.2,0.1-0.4,0.1-0.6,0.1c-0.2,0-0.4,0-0.6,0c-0.2,0-0.4-0.1-0.6-0.1c-0.8-0.2-1.5-0.5-2.2-1
		c-0.3-0.2-0.6-0.5-0.9-0.8c-0.3-0.3-0.5-0.7-0.7-1l1.1-0.1c-1,3.3-1.7,6.7-2.3,10.2c-0.6,3.4-1,6.9-1.1,10.4
		c-0.1,1.7-0.1,3.5-0.1,5.2c0,1.7,0.1,3.5,0.1,5.2c0,1.7,0.1,3.5,0.3,5.2c0.1,0.9,0.3,1.7,0.4,2.6c0.1,0.9,0.1,1.8-0.4,2.6
		c0.4-0.8,0.4-1.7,0.3-2.5c-0.2-0.9-0.4-1.7-0.5-2.6c-0.3-1.7-0.4-3.5-0.4-5.2c-0.1-1.7-0.2-3.5-0.3-5.2c-0.1-1.8-0.1-3.5,0-5.3
		c0.1-3.5,0.4-7,0.8-10.5c0.5-3.5,1.2-6.9,2.2-10.3l0.4-1.4l0.7,1.3c0.2,0.3,0.3,0.5,0.5,0.8c0.2,0.2,0.4,0.4,0.7,0.6
		c0.5,0.4,1.1,0.6,1.7,0.7c0.2,0,0.3,0.1,0.5,0.1c0.2,0,0.3,0,0.5,0c0.2,0,0.3,0,0.5-0.1c0.1,0,0.3-0.1,0.4-0.1
		c0.1-0.1,0.3-0.1,0.4-0.2c0.1-0.1,0.3-0.1,0.4-0.2c0.3-0.2,0.5-0.4,0.7-0.6l0.7,1c-0.2,0.1-0.3,0.1-0.5,0.2L92.5,88L92.4,88l0,0
		c0,0,0,0,0,0l0,0c0,0,0,0,0.1-0.1c0,0,0.1-0.1,0.1-0.1c0-0.1,0,0,0-0.3c0-0.3-0.4-0.5-0.4-0.5c0,0-0.1,0-0.1,0c-0.1,0-0.2,0-0.2,0
		c0,0,0,0-0.1,0l0,0l0,0l0.1,0l0.2-0.1l0.5-0.3l0.5,1.2c-0.8,0.3-1.5,0.4-2.3,0.6c-0.8,0.1-1.6,0.2-2.4,0.2c-0.2,0-0.4-0.1-0.7-0.1
		c-0.1,0-0.3-0.1-0.3-0.1l-0.1-0.1c-0.1-0.1-0.2-0.1-0.3-0.2c-0.3-0.3-0.4-0.6-0.5-0.8c-0.1-0.2-0.1-0.4-0.1-0.6
		c-0.1-0.3-0.2-0.5-0.2-0.5c-0.1-0.1-0.3-0.1-0.6-0.1L84.7,86l0.1-0.9c0.1-0.7,0.2-1.3,0.3-1.9l0.4-1.8c0.2-1.2,0.5-2.4,0.7-3.7
		c0.2-1.2,0.4-2.4,0.5-3.6c0-0.6,0.1-1.2,0-1.7c0-0.3-0.1-0.5-0.1-0.7c0-0.1-0.1-0.2-0.1-0.2c0,0,0,0.1,0.1,0.1l-0.3-1.6
		c0.3-0.2,0.7-0.4,1-0.5c0.3-0.2,0.6-0.3,0.7-0.4c0.1-0.1,0.1-0.1,0.1-0.2c0,0,0-0.1,0.1-0.2c0-0.1,0-0.2,0-0.3c0-0.1,0-0.3-0.1-0.4
		L88,67.1l0.7-0.3l4.7-1.7l0.4,1.7l-2.7,0.3l-3.9,0.4l3.4-2.1c1.4-0.9,2.8-1.8,4.1-2.8c0.3-0.3,0.6-0.5,1-0.8
		c0.3-0.2,0.6-0.5,0.8-0.8c0.3-0.3,0.5-0.6,0.7-0.8c0-0.1,0.1-0.1,0.1-0.1c0,0,0,0,0,0.2c0,0.1,0.1,0.3,0.2,0.4
		c0.1,0.1,0.3,0.2,0.3,0.3c0.3,0.1,0.2,0,0.2,0c-0.1,0-0.1,0-0.2,0.1l-8.6,3l7.8-4.6l5.3-3.1l0.5,1.7c-0.8,0-1.5-0.1-2,0l-0.3-1.9
		l4.1-0.9l-0.6,0.4c0.4-0.5,0.8-0.9,1.2-1.3c0.4-0.4,0.7-0.7,1-1.1c0.3-0.3,0.5-0.7,0.6-1c0-0.1,0.1-0.2,0.1-0.3c0-0.1,0-0.2,0-0.3
		c0-0.2,0-0.4,0-0.5l-0.1-0.8l0.7-0.3l0.5-0.2l0.2-0.1l0.1,0c0,0,0,0,0,0l0,0l0,0L108,50c-0.1,0.1-0.2,0.3-0.2,0.4c0,0.1,0,0,0,0.2
		c0,0.1,0,0.3,0.1,0.5c0.1,0.4,0.7,0.6,0.7,0.6c0.1,0,0.2,0,0.3,0l0,0l0,0c0,0,0,0,0,0l-0.1,0l-0.2,0.1l-0.2,0.1c0,0,0,0,0,0
		c0,0,0,0,0.2-0.2l-1.2-1.4c1.7-0.7,3.3-1.1,4.9-1.7c0.4-0.1,0.8-0.3,1.1-0.5l0.5-0.3c0.2-0.1,0.3-0.2,0.5-0.3
		c0.3-0.2,0.7-0.4,0.8-0.6c0,0,0.1-0.1,0.1-0.1c0,0-0.1,0-0.1,0.3c0,0.3,0.2,0.5,0.2,0.5c0.1,0,0,0,0,0l-3.3-1.2l3.4-0.8
		c2.2-0.5,4.5-1,6.8-1.4c2.3-0.4,4.5-0.8,6.8-1.2l3.4-0.5l3.4-0.4l3.4-0.4l3.5-0.3l3.5-0.2l3.5-0.1l3.5,0l3.5,0.1l3.5,0.3l3.5,0.4
		l3.4,0.6l3.4,0.7l-0.6,0.1c0.4-0.2,0.9-0.4,1.4-0.4c0.5-0.1,1,0,1.5,0.2c0.5,0.2,0.9,0.4,1.3,0.7c0.2,0.2,0.3,0.3,0.5,0.4l0.4,0.4
		l3.2,3.3l-0.2-0.1c2.3,1.2,4.6,2.4,6.8,3.7c2.2,1.3,4.4,2.7,6.4,4.3c0.5,0.4,1,0.8,1.5,1.3c0.5,0.4,1,0.9,1.4,1.3
		c0.5,0.5,0.9,1,1.3,1.4c0.4,0.5,0.8,1,1.2,1.5l1.1,1.6l1,1.7l0.9,1.8l0.7,1.8l0,0c1.8,3.7,3.9,7.4,5.8,11.1
		c1.9,3.7,3.8,7.5,5.1,11.5l0,0l0,0c0,1.1-0.1,2.2-0.2,3.3c0,0.3-0.1,0.5-0.2,0.8l-0.2,0.8c-0.1,0.3-0.2,0.6-0.3,0.8
		c-0.2,0.2-0.4,0.4-0.6,0.6l0,0l0,0C209,97.1,207.9,97.4,207,97.7z"/>
</g>
<g id="XMLID_60_">
	<path id="XMLID_41_" class="st6" d="M110.2,75.8c-0.8,0.4-1.6,0.9-2.3,1.4c-0.7,0.5-1.4,1.1-2,1.8c-0.6,0.6-1.1,1.3-1.6,2.1
		c-0.5,0.7-0.8,1.5-1.1,2.3l-1.5,4l0.5-4.3c0.3-2.4,0.6-4.8,0.9-7.2l1.1,0.8c-0.4,0.3-0.9,0.6-1.3,0.9c-0.4,0.4-0.8,0.7-1.2,1.1
		c-0.7,0.8-1.4,1.6-2,2.5c-1.2,1.8-2,3.9-2.7,6c-0.7,2.1-1.2,4.3-1.6,6.5l-1.3,6.7c-0.4,2.2-0.9,4.5-1.4,6.7c-0.5,2.2-1,4.5-1.6,6.7
		c-0.6,2.2-1.3,4.4-2,6.6c-0.7,2.2-1.6,4.3-2.6,6.4l-0.3,0.6l-0.2-0.6l-1.1-2.9l0.3-0.1c0.1,0.4,0.1,0.9-0.2,1.2
		c-0.2,0.4-0.5,0.6-0.7,1c0.1-0.4,0.4-0.7,0.6-1.1c0.2-0.4,0.1-0.7,0-1.1l0.3-0.1l1.4,2.8l-0.5,0c0.4-1.1,0.7-2.2,1.1-3.2
		c0.3-1.1,0.7-2.2,1-3.3c0.6-2.2,1.1-4.4,1.6-6.6c1-4.4,1.8-8.9,2.6-13.4c0.4-2.2,0.8-4.5,1.3-6.8c0.5-2.3,1-4.5,1.8-6.8
		c0.7-2.2,1.7-4.4,3.1-6.4c0.7-1,1.5-1.9,2.4-2.7c0.4-0.4,1-0.8,1.4-1.1c0.5-0.3,1-0.6,1.6-0.9l1.4-0.8l-0.3,1.6
		c-0.4,2.4-0.9,4.8-1.3,7.1l-1-0.3c0.8-1.7,1.9-3.2,3.3-4.4c0.7-0.6,1.4-1.2,2.2-1.6C108.5,76.5,109.3,76.1,110.2,75.8z"/>
</g>
<g id="XMLID_59_">
	<path id="XMLID_39_" class="st6" d="M130.8,72.3c-2.2,1.5-4.6,2.7-7.2,3.5c-0.6,0.2-1.3,0.4-2,0.5c-0.7,0.1-1.4,0.2-2,0.3
		c-1.3,0.2-2.6,0.3-3.8,0.5c-0.6,0.1-1.2,0.3-1.7,0.5c-0.3,0.1-0.6,0.2-0.8,0.4c-0.3,0.2-0.6,0.3-0.8,0.5c-0.4,0.3-0.9,0.8-1.3,1.2
		c-0.4,0.5-0.8,1-1.2,1.5c-0.8,1-1.6,2.1-2.6,3.1c-0.5,0.5-1.1,1-1.7,1.4c-0.6,0.4-1.3,0.7-2.1,0.9l-2.9,0.8l2-2.2
		c1.6-1.7,3.2-3.5,4.8-5.1c0.8-0.8,1.6-1.7,2.5-2.5c0.8-0.8,1.7-1.7,2.5-2.5l0.1,0.1l-0.6,0.1l0.6-0.2l0.2-0.1l-0.1,0.2
		c-0.7,1-1.4,1.9-2,2.9c-0.7,0.9-1.4,1.9-2.1,2.8c-1.4,1.9-2.9,3.7-4.3,5.5l-0.9-1.4c0.5-0.2,1.1-0.4,1.5-0.7
		c0.5-0.3,0.9-0.7,1.3-1.1c0.8-0.9,1.6-1.9,2.4-3c0.4-0.5,0.9-1.1,1.3-1.6c0.5-0.5,1-1,1.6-1.5c0.3-0.3,0.6-0.4,0.9-0.6
		c0.4-0.2,0.7-0.3,1-0.5c0.7-0.3,1.4-0.4,2.1-0.5c1.4-0.2,2.7-0.3,4-0.3c0.6,0,1.3-0.1,1.9-0.1c0.6-0.1,1.3-0.2,1.9-0.3
		C125.9,74.1,128.4,73.3,130.8,72.3z"/>
</g>
<g id="XMLID_80_">
	<path id="XMLID_37_" class="st6" d="M183.9,91.2c-0.1-0.1-0.2-0.2-0.3-0.3c-0.1-0.1-0.2-0.2-0.3-0.3c-0.2-0.2-0.4-0.4-0.5-0.6
		c-0.3-0.4-0.7-0.8-1-1.3c-0.6-0.8-1.2-1.7-1.7-2.6l1.5,0.2l-2.2,2.2l-5.2,5.3l3.7-6.4l1.7-2.9l1.2,1.3l-4.5,1.8l-3.4,1.4l2.3-2.8
		l3.5-4.2l1.1,1.4l-2.4,1.1l-3.1,1.4l2-2.7l2.7-3.7l3.7-5.3l-2.2,6.1c-0.3,0.9-0.9,1.9-1.9,2.6c-0.9,0.6-2.1,0.8-3,0.8
		c-2,0-3.7-0.5-5.4-0.6l-1.6,0l1-1.3l2.7-3.4l0.9,1.2c-1.3,0.5-2.6,0.8-3.9,1l-3.9,0.6c-1.3,0.2-2.5,0.5-3.6,0.9
		c-1.1,0.4-2.1,1.1-2.9,2l-1.3,1.5l0-2c0-2.1,0.6-4.2,1.7-5.9l0.9,1c-10,4.5-19.3,10.4-27.7,17.5l-0.8-0.8l16.5-17.2l0.7,0.6
		c-0.4,0.6-1.1,1-1.8,1.2c-0.7,0.2-1.4,0.2-2,0.2c-0.6,0-1.3,0-1.8,0.1c-0.5,0.1-1,0.4-1.2,0.9l-0.3,0.5l-0.4-0.4l-1.2-1.2l0.3,0.1
		c-0.5,0-1.1,0-1.6,0.1c-0.3,0-0.5,0.1-0.8,0.2c-0.3,0-0.5,0.1-0.8,0.2c-0.5,0.2-1,0.4-1.5,0.6c-0.5,0.2-0.9,0.5-1.4,0.8
		c-1.8,1.1-3.4,2.6-5,4.2l0,0c-0.4,0.6-0.9,1.1-1.4,1.7c-0.5,0.5-1,1-1.5,1.5c-1,1-2.2,1.9-3.3,2.7c-2.3,1.7-4.7,3.2-7,4.9l-0.3-0.4
		c1.7-1.1,3.4-2.2,5.1-3.4c0.8-0.6,1.6-1.2,2.4-1.8c0.8-0.6,1.6-1.3,2.3-2l1.1-1.1l1-1.1l1-1.2l0.9-1.2l0.8-1.3l0.8-1.3l0.7-1.4
		l0.6-1.4l0.3,0.2l-8.4,7.3l-0.2,0.2l0.1-0.3c0.4-1.7,1.5-3.2,2.9-4.3l0.1,0.1l-3.2,1.7l-0.4,0.2l0.3-0.3c3.4-3.4,6.1-7.5,7.8-12.1
		c-1.6,4.6-4.3,8.7-7.7,12.2l-0.1-0.1l3.1-1.8l0.1,0.1c-1.4,1-2.4,2.5-2.8,4.2l-0.2-0.1l8.3-7.4l0.5-0.4l-0.2,0.6l-0.5,1.4l-0.7,1.4
		l-0.8,1.3l-0.8,1.3l-0.9,1.2l-1,1.2l-1,1.1l-1.1,1.1c-0.8,0.7-1.5,1.4-2.3,2c-0.8,0.6-1.6,1.3-2.4,1.9c-1.6,1.2-3.3,2.3-5,3.5
		l-0.3-0.4c2.3-1.8,4.7-3.3,6.9-5c1.1-0.8,2.2-1.7,3.2-2.7c0.5-0.5,1-1,1.5-1.5c0.5-0.5,0.9-1.1,1.3-1.6l0,0l0,0
		c1.5-1.6,3.1-3.1,5-4.3c0.5-0.3,1-0.6,1.5-0.8c0.5-0.3,1-0.5,1.6-0.6c0.3-0.1,0.5-0.2,0.8-0.2c0.3-0.1,0.6-0.1,0.8-0.2
		c0.6-0.1,1.1-0.1,1.7-0.2l0.2,0l0.1,0.1l1.2,1.2l-0.7,0.1c0.2-0.3,0.4-0.7,0.7-0.9c0.3-0.2,0.7-0.4,1-0.5c0.7-0.2,1.4-0.1,2-0.1
		c0.6,0,1.2,0,1.8-0.2c0.5-0.1,1-0.4,1.3-0.9l0.7,0.6l-16.3,17.3l-0.8-0.8c8.3-7.3,17.7-13.3,27.8-18l2.1-1l-1.2,2
		c-1,1.6-1.5,3.4-1.4,5.2l-1.3-0.5c0.5-0.5,1-1,1.6-1.4c0.6-0.4,1.2-0.7,1.9-1c1.3-0.5,2.6-0.8,3.9-1.1c2.6-0.5,5.2-0.6,7.5-1.5
		l2.8-1.1l-1.8,2.4l-2.7,3.4l-0.6-1.3c1.9,0.1,3.7,0.5,5.3,0.5c0.8,0,1.5-0.2,2.1-0.5c0.5-0.4,0.9-1,1.2-1.7l1.5,0.8l-2.6,3.7
		l-1.1-1.3l2.4-1.1l3.6-1.7l-2.5,3.1l-3.4,4.2l-1.1-1.4L180,84l2.5-1l-1.3,2.4l-1.7,3l-1.5-1.1l2.2-2.3l0.8-0.9l0.7,1
		c0.5,0.8,1.1,1.7,1.7,2.5c0.3,0.4,0.6,0.8,0.9,1.2c0.2,0.2,0.3,0.4,0.5,0.5l0.2,0.2c0.1,0.1,0.2,0.2,0.3,0.2L183.9,91.2z"/>
</g>
<g id="XMLID_57_">
	<path id="XMLID_35_" class="st6" d="M190.2,138.9l-0.3-2.8c0-0.9-0.1-1.9-0.1-2.8c0-1.9,0-3.7,0-5.6c0.1-3.7,0.3-7.5,0.4-11.2
		c0.1-1.9,0.2-3.7,0.2-5.6c0.1-1.9,0.1-3.7,0.1-5.6l-0.1-2.8l-0.1-2.8l-0.3-2.7l-0.4-2.7l1.6-0.1c0,0.6,0,1.1-0.1,1.7
		c-0.1,0.6-0.2,1.1-0.4,1.7c-0.3,1.1-0.9,2.2-1.6,3.1c-0.4,0.5-0.8,0.9-1.2,1.3c-0.4,0.4-0.9,0.7-1.4,1.1c-0.9,0.6-2,1.1-3,1.6
		c-2.1,0.8-4.3,1.3-6.4,1.5c-2.2,0.2-4.4,0.3-6.6,0.1l0-1.9l1.3-0.1l1.3-0.2l1.3-0.3l1.3-0.4l1.3-0.5l1.2-0.6l1.2-0.7l1.2-0.8
		c0.8-0.5,1.5-1.1,2.2-1.7c0.7-0.6,1.4-1.2,2.1-1.8c1.4-1.3,2.8-2.6,4.1-3.9l1.3,1.4l-1.1,0.9l-1.1,0.9l-1.2,0.8l-1.2,0.7l-1.2,0.7
		l-1.3,0.6l-1.3,0.6l-1.3,0.5l-1.3,0.4l-1.4,0.4l-1.4,0.3l-1.4,0.2l-1.4,0.1l-1.4,0.1l-1.4,0l-1.4-0.1l0.1-1.7l1.2,0l1.3,0l1.2-0.1
		l1.2-0.2l1.2-0.3l1.2-0.3l1.2-0.4l1.2-0.5l1.1-0.5l1.1-0.6l1.1-0.7l1-0.7l1-0.8l0.9-0.8l0.9-0.9l0.8-1l0.7,0.9l-6.7,2.9l-6.7,2.9
		l-0.3-0.6c2-1.2,4-2.5,5.8-4.1c0.9-0.8,1.7-1.6,2.6-2.4c0.4-0.4,0.8-0.8,1.2-1.3c0.4-0.5,0.8-0.9,1.2-1.4c-0.3,0.5-0.7,0.9-1.1,1.4
		c-0.4,0.5-0.8,0.9-1.2,1.4c-0.8,0.9-1.6,1.8-2.5,2.6c-1.7,1.6-3.6,3.1-5.7,4.4l-0.3-0.6l6.6-3.2l6.6-3.1l2.4-1.1l-1.7,2.1l-0.8,1
		l-0.9,1l-1,0.9l-1,0.9l-1.1,0.8l-1.1,0.7l-1.2,0.7l-1.2,0.6l-1.2,0.5l-1.3,0.5l-1.3,0.4l-1.3,0.3l-1.3,0.2l-1.3,0.1l-1.4,0.1
		l-1.4,0l0.1-1.7l1.3,0.1l1.3,0l1.3-0.1l1.3-0.2l1.3-0.2l1.3-0.3l1.3-0.3l1.3-0.4l1.2-0.5l1.2-0.5L184,97l1.1-0.6l1.1-0.7l1.1-0.8
		l1-0.8l1-0.9l1.3,1.4c-1.3,1.4-2.7,2.7-4.2,4c-0.7,0.7-1.5,1.3-2.2,1.9c-0.8,0.6-1.6,1.2-2.4,1.7l-1.2,0.8l-1.3,0.7l-1.3,0.7
		l-1.4,0.6l-1.4,0.5l-1.5,0.4l-1.5,0.2l-1.5,0.1l0-1.9c2.1,0.2,4.1,0.2,6.2,0c2.1-0.2,4.1-0.6,6-1.3c0.9-0.4,1.8-0.8,2.7-1.4
		c0.4-0.3,0.8-0.6,1.2-0.9c0.4-0.3,0.7-0.7,1-1c0.3-0.4,0.6-0.8,0.8-1.2c0.2-0.4,0.4-0.9,0.6-1.3c0.2-0.5,0.3-0.9,0.3-1.4
		c0.1-0.5,0.1-1,0.1-1.5l1.6-0.1l0.3,2.8l0.2,2.8l0.1,2.8l0,2.8c0,1.9-0.1,3.7-0.2,5.6c-0.1,1.9-0.2,3.7-0.4,5.6
		c-0.3,3.7-0.6,7.4-0.9,11.1c-0.1,1.9-0.2,3.7-0.2,5.6c0,0.9,0,1.9,0,2.8L190.2,138.9z"/>
</g>
<path id="XMLID_55_" class="st18" d="M123.8,130.3c-1.1-2.3-2.3-4.5-3.8-6.5c-0.7-0.9-1.4-1.8-2.4-2.3c-0.8-0.4-1.8-0.5-2.7-0.5
	c-2.3-0.2-4.6-0.3-6.9,0.1s-4.5,1.4-5.9,3.3c-1.6,2-1.9,4.7-1.9,7.3c0,1.7,0.1,3.4,0.7,5c1,3,3.6,5.2,6.6,6.3c3,1,6.3,0.8,9.2-0.3
	c2.6-1,5-2.6,6.4-5s1.7-5.5,0.4-7.9"/>
<path id="XMLID_56_" class="st18" d="M167.7,134.3c-1.1-2.3-2.3-4.5-3.8-6.5c-0.7-0.9-1.4-1.8-2.4-2.3c-0.8-0.4-1.8-0.5-2.7-0.5
	c-2.3-0.2-4.6-0.3-6.9,0.1c-2.3,0.4-4.5,1.4-5.9,3.3c-1.6,2-1.9,4.7-1.9,7.3c0,1.7,0.1,3.4,0.7,5c1,3,3.6,5.2,6.6,6.3
	s6.3,0.8,9.2-0.3c2.6-1,5-2.6,6.4-5c1.4-2.4,1.7-5.5,0.4-7.9"/>
<g id="XMLID_1_">
	<path id="XMLID_33_" class="st6" d="M89.7,88.2l-0.6,0l-0.1,0l0-0.1l-0.2-0.9l0.2,0.2c-0.1,0.1-0.2,0.2-0.2,0.2c0,0,0,0,0,0
		c0,0,0,0,0,0c0,0,0-0.1,0-0.1c0,0,0,0,0,0s0,0,0,0c0,0-0.1,0.1-0.1,0.1l0.4,0.2l-0.4,0.3l-0.4,0.3l-0.1-0.5l-0.1-0.8l0.3,0.3
		c-0.1,0-0.3,0.1-0.4,0.2l-0.6,0.9l-0.1-1.2c-0.1-0.6-0.4-1.1-0.8-1.4l1-0.5l0.3,1.3l0.4,1.7l-1.4-1.1c-0.4-0.3-0.6-0.9-0.4-1.4
		l1.2-3.8l0.2,4l0,0.5l-1.4,0l0-0.8l1.4,0.3c-0.1,0.3-0.1,0.7-0.1,1L86,87.2l0-1l0-4.4l1.6,4.1c0.1,0.1,0.1,0.3,0,0.5
		c0,0.2-0.2,0.4-0.3,0.5c-0.2,0.2-0.4,0.3-0.6,0.3c-0.2,0-0.4,0-0.6,0c-0.1,0-0.2-0.1-0.3-0.2c-0.1,0-0.1-0.1-0.1-0.2l0,0l0-0.1l0,0
		c0,0-0.1-0.2-0.1-0.3c0-0.1,0-0.2,0-0.2c0-0.1,0-0.3,0-0.4c0-0.2,0.1-0.3,0.1-0.5l1.7-4.2l0,4.6l0,1.1l-1.8-0.2l0.2-1.1l0.7-4
		l1.1,4c0.2,0.6,0.2,1.2,0.1,1.8L85.8,87l0.3-1.4l1.6-8.3l0.3,8.5l0.1,2.3l-1.9-0.5c0.3-0.5,0.6-1,1-1.4l1.4-1.5l0.3,2
		c0.1,0.7,0,1.5-0.2,2.1l-3.1,8.3l1.2-8.8c0.1-0.9,0.6-1.6,1.4-2l2.3-1.3l-0.9,2.5L89,89.2l-1.9,4.9l0.1-5.2c0-1,0.5-1.8,1.4-2.2
		l1.1-0.6l0.1,1.2c0.1,0.5,0,0.9-0.3,1.4l-1,1.9l-0.5-2c-0.2-0.7,0.1-1.3,0.6-1.7l1.2-0.9l0.1,1.5l0,0.9l-1.2-0.6
		c0.1-0.1,0.2-0.2,0.3-0.3l0.9-1.8l0.5,1.8c0.1,0.6,0,1.1-0.4,1.5L89,88.2c0.2-0.3,0.6-0.6,0.9-0.7l0.9-0.3l0,0.9l0,0.5l-1.2-0.2
		c0.1-0.4,0.4-0.7,0.7-0.9l0.9-0.7l0,1.1c0,0.5-0.2,0.9-0.4,1.3l-0.9-0.4c0.4-0.8,0.9-1.5,1.5-2.1l0.6-0.6l-0.1,0.7
		c0,0.5-0.3,0.9-0.7,1.2L91.1,88L91,88c-0.4-0.2-0.9-0.3-1.4-0.1c0.4-0.3,1-0.4,1.5-0.2l-0.2,0c0.2-0.2,0.4-0.6,0.3-0.9l0.5,0.2
		c-0.4,0.7-0.8,1.4-1,2.1l-0.9-0.4c0.1-0.2,0.2-0.5,0.1-0.7l0.9,0.4c-0.1,0.1-0.2,0.3-0.2,0.4l-0.8,4.7l-0.3-4.9l0-0.5l0.9,0.6
		c-0.1,0.1-0.2,0.2-0.3,0.3l-1.1-0.8c0-0.1,0-0.2,0-0.2l1.4,0.1c-0.1,0.4-0.4,0.8-0.8,1l-1,0.8l-0.2-1.3l-0.1-0.9l1.3,0.6
		c0,0,0,0,0.1-0.1l-1.6-0.2c0-0.1,0.1-0.2,0-0.3l1.3,0.7c-0.2,0.1-0.4,0.4-0.3,0.6l-1.8-0.3l0.5-1.7l1.4,1.2
		c-0.2,0.1-0.4,0.4-0.4,0.6L87,88.2c0.1-0.4,0.2-0.8,0.1-1.2l1.7,0.5c-0.3,0.3-0.5,0.7-0.8,1.1l-1.8,3l-0.1-3.5l-0.1-2.3L88,86
		l-0.3,1.4l-1.9-0.3c0.1-0.4,0-0.7,0-1.1l1.8,0L87.4,87l-1.8-0.2l0.1-1.1l1.7,0.4c0,0.1,0,0.1,0,0.1c0,0,0,0,0-0.1c0,0,0-0.1,0-0.1
		c0,0-0.1-0.2-0.1-0.1l0,0l0,0l0-0.1l0,0c0,0-0.1-0.1-0.1-0.1c-0.1-0.1-0.1-0.1-0.2-0.1c-0.1,0-0.2,0-0.3,0c-0.1,0-0.2,0-0.3,0.2
		c-0.1,0.1-0.2,0.2-0.2,0.4c0,0.2,0,0.3,0,0.4l1.6-0.3l-0.1,1L86,87.3c-0.1-0.6,0-1.2,0.3-1.8l1.6-3.7l-0.2,4l0,0.8l-1.4,0l0-0.5
		l1.3,0.2c0-0.1,0-0.1-0.1-0.1l-1.1,0.6l-0.1-1.3l-0.1-1.6l1.1,1.1c0.6,0.6,0.9,1.4,0.9,2.3L87.5,87c0.3-0.3,0.7-0.4,1.1-0.3
		l0.3,0.1l0,0.3l0,0.8l-0.5-0.2l0.4-0.2l0.4-0.2l0,0.4c0,0.1-0.2,0.3-0.3,0.3c-0.1,0-0.2,0-0.3,0c-0.1,0-0.1-0.1-0.2-0.2
		c0,0,0-0.1,0-0.2c0,0,0,0,0,0c0-0.1,0,0,0-0.1c0-0.1,0.1-0.2,0.2-0.3c0.1-0.1,0.2-0.1,0.2-0.1l0.3-0.1l0,0.2l0,0.9l-0.1-0.1
		L89.7,88.2z"/>
</g>
<g id="XMLID_68_">
	<path id="XMLID_31_" class="st6" d="M112.7,133.6c0,0-0.4,0-0.7-0.1c-0.3-0.1-0.6-0.2-0.7-0.5c-0.1-0.2-0.1-0.6,0-0.9
		c0.1-0.3,0.4-0.6,0.4-0.6s0.4,0,0.7,0c0.3,0.1,0.6,0.2,0.7,0.5c0.1,0.2,0.1,0.6,0,0.9C113,133.4,112.7,133.6,112.7,133.6z"/>
</g>
<g id="XMLID_69_">
	<path id="XMLID_29_" class="st6" d="M156.1,137.8c0,0-0.4,0-0.7-0.1c-0.3-0.1-0.6-0.2-0.7-0.5c-0.1-0.2-0.1-0.6,0-0.9
		c0.1-0.3,0.4-0.6,0.4-0.6s0.4,0,0.7,0c0.3,0.1,0.6,0.2,0.7,0.5c0.1,0.2,0.1,0.6,0,0.9C156.3,137.6,156.1,137.8,156.1,137.8z"/>
</g>
<g id="XMLID_73_">
	<path id="XMLID_27_" class="st6" d="M125,226.3c0,0,0,0.1,0,0.1c0,0.1-0.1,0.2-0.1,0.4c0,0.3,0,0.8,0.1,1.3c0.2,0.5,0.4,1,0.9,1.5
		c0.2,0.2,0.4,0.4,0.7,0.6c0.2,0.2,0.5,0.3,0.7,0.4c0.4,0.2,0.6,0.2,1,0.3c0.3,0.1,0.7,0.2,1,0.2c0.7,0.1,1.3,0.2,1.9,0.2
		c0.6,0,1.1,0.1,1.5,0.1c0.4,0.1,0.6,0.1,0.6,0.1s-0.7,0.5-1.9,0.9c-0.6,0.2-1.3,0.4-2.2,0.4c-0.4,0-0.9,0-1.3-0.1
		c-0.4-0.1-1-0.2-1.3-0.4c-0.5-0.2-0.9-0.5-1.3-0.8c-0.3-0.3-0.6-0.7-0.9-1.1c-0.5-0.8-0.6-1.6-0.5-2.4c0-0.4,0.1-0.7,0.2-0.9
		c0.1-0.3,0.3-0.5,0.4-0.6c0.1-0.2,0.3-0.2,0.3-0.3C124.9,226.3,125,226.3,125,226.3z"/>
</g>
<g id="XMLID_74_">
	<path id="XMLID_25_" class="st6" d="M118.7,199.9c0,0,0.2-0.1,0.6-0.4c0.2-0.1,0.5-0.2,0.8-0.3c0.3-0.1,0.7-0.2,1.1-0.3
		c0.4-0.1,0.8-0.2,1.3-0.2c0.5,0,1,0,1.5,0c0.5,0.1,1.1,0.1,1.6,0.2c0.5,0.1,1.1,0.3,1.6,0.5c0.5,0.2,1,0.4,1.5,0.7
		c0.5,0.3,0.9,0.6,1.3,0.9c0.4,0.3,0.8,0.7,1.1,1c0.3,0.3,0.6,0.7,0.8,1c0.2,0.3,0.4,0.7,0.6,1c0.2,0.3,0.3,0.6,0.3,0.8
		c0.2,0.5,0.2,0.7,0.2,0.7s-0.2-0.2-0.6-0.5c-0.3-0.3-0.8-0.7-1.4-1.2c-0.3-0.2-0.6-0.5-1-0.7c-0.3-0.3-0.7-0.5-1.1-0.7
		c-0.8-0.5-1.7-0.9-2.6-1.2c-0.5-0.2-0.9-0.3-1.4-0.5c-0.5-0.2-0.9-0.3-1.3-0.4c-0.4-0.1-0.9-0.2-1.3-0.3c-0.4-0.1-0.8-0.1-1.2-0.2
		c-0.8-0.1-1.4-0.1-1.9-0.1C119,199.9,118.7,199.9,118.7,199.9z"/>
</g>
</svg>
