<?xml version="1.0" encoding="utf-8"?>
<!-- Generator: Adobe Illustrator 19.0.0, SVG Export Plug-In . SVG Version: 6.00 Build 0)  -->
<svg version="1.1" xmlns="http://www.w3.org/2000/svg" xmlns:xlink="http://www.w3.org/1999/xlink" x="0px" y="0px"
	 viewBox="-369 243.5 283.5 283.5" style="enable-background:new -369 243.5 283.5 283.5;" xml:space="preserve">
<style type="text/css">
	.st0{fill:#FFFFFF;}
	.st1{clip-path:url(#XMLID_9_);fill:#F0582E;}
	.st2{clip-path:url(#XMLID_9_);fill:#F47F38;}
	.st3{clip-path:url(#XMLID_9_);fill:#F9AB5B;}
	.st4{clip-path:url(#XMLID_9_);fill:#FFD779;}
	.st5{clip-path:url(#XMLID_9_);fill:#FFFFFF;}
	.st6{clip-path:url(#XMLID_9_);fill:none;stroke:#FFFFFF;stroke-width:0.7384;stroke-miterlimit:10;}
	.st7{clip-path:url(#XMLID_17_);fill:#978074;}
	.st8{clip-path:url(#XMLID_17_);fill:#503110;}
	.st9{clip-path:url(#XMLID_17_);fill:#C0B297;}
	.st10{clip-path:url(#XMLID_17_);fill:none;stroke:#C0B297;stroke-width:2.2151;stroke-miterlimit:10;}
	.st11{clip-path:url(#XMLID_17_);fill:none;stroke:#503110;stroke-width:0.7384;stroke-miterlimit:10;}
	.st12{clip-path:url(#XMLID_17_);fill:#6E431A;}
	.st13{clip-path:url(#XMLID_17_);fill:#070204;}
	.st14{clip-path:url(#XMLID_17_);fill:none;stroke:#070204;stroke-width:0.7384;stroke-miterlimit:10;}
</style>
<g id="Layer_1">
	<g id="XMLID_4_">
		<circle id="XMLID_2_" class="st0" cx="-227.2" cy="385.2" r="141.7"/>
	</g>
</g>
<g id="Layer_2">
	<g id="XMLID_3_">
		<g id="XMLID_5_">
			<g id="XMLID_114_">
				<defs>
					<path id="XMLID_115_" d="M-368.4,384.9c0,78.1,63.3,141.3,141.3,141.3c78.1,0,141.3-63.3,141.3-141.3
						c0-78.1-63.3-141.3-141.3-141.3C-305.1,243.5-368.4,306.8-368.4,384.9"/>
				</defs>
				<clipPath id="XMLID_9_">
					<use xlink:href="#XMLID_115_"  style="overflow:visible;"/>
				</clipPath>
				<rect id="XMLID_128_" x="-368.4" y="223.1" class="st1" width="282.7" height="70.7"/>
				<rect id="XMLID_127_" x="-368.4" y="293.7" class="st2" width="282.7" height="70.7"/>
				<rect id="XMLID_125_" x="-368.4" y="364.4" class="st3" width="282.7" height="70.7"/>
				<rect id="XMLID_122_" x="-368.4" y="435.1" class="st4" width="282.7" height="91.1"/>
				<path id="XMLID_119_" class="st5" d="M-75.9,391.4c0,31.4-25.4,56.8-56.8,56.8c-31.4,0-56.8-25.4-56.8-56.8s25.4-56.8,56.8-56.8
					C-101.3,334.7-75.9,360.1-75.9,391.4"/>
				<circle id="XMLID_116_" class="st6" cx="-132.6" cy="391.4" r="56.8"/>
			</g>
			<g id="XMLID_6_">
				<defs>
					<path id="XMLID_7_" d="M-368.8,385.6c0,78.1,63.3,141.3,141.3,141.3c78.1,0,141.3-63.3,141.3-141.3
						c0-78.1-63.3-141.3-141.3-141.3C-305.5,244.3-368.8,307.6-368.8,385.6"/>
				</defs>
				<clipPath id="XMLID_17_">
					<use xlink:href="#XMLID_7_"  style="overflow:visible;"/>
				</clipPath>
				<path id="XMLID_113_" class="st7" d="M-137.9,476.3c0-0.4,0-0.7,0-1.1c0-8.4,5.8-15.2,12.9-15.2c0.3,0,0.6,0,0.9,0.1
					c1.1-4.6,1.6-9.4,1.6-14.3V399c0-23-12.3-44.2-32.2-55.7l-40.5-23.4c-19.9-11.5-44.4-11.5-64.4,0l-40.5,23.4
					c-19.9,11.5-32.2,32.7-32.2,55.7v46.8c0,4.9,0.6,9.7,1.6,14.3c0.3,0,0.5,0,0.8,0c7.1,0,12.9,6.8,12.9,15.2c0,0.3,0,0.6,0,1
					c0,0.3,0,0.6,0,1c0,2.9-0.7,5.6-1.9,7.9c5,6.5,11.4,12.1,18.8,16.4l40.5,23.4c19.9,11.5,44.4,11.5,64.4,0l40.5-23.4
					c7.4-4.3,13.7-9.8,18.7-16.4c-1.2-2.3-1.9-5-1.9-8C-138,476.9-138,476.6-137.9,476.3"/>
				<path id="XMLID_112_" class="st7" d="M-132.1,476.3c-0.2-4.9,2.2-10.7,7.8-10.3c2.4,0.1,5.2-1.9,5.7-4.3
					c2.7-12.5,1.8-25.7,1.8-38.5c0-11.5,0.8-23.5-0.9-35c-3.1-20.9-16.1-39.4-34.2-50c-9.1-5.4-18.3-10.6-27.5-15.9
					c-12.5-7.2-24.5-14.4-39.2-16.3c-11.8-1.5-24-0.1-35,4.4c-5,2-9.6,4.6-14.2,7.3c-10.8,6.2-21.6,12.5-32.4,18.7
					c-14.8,8.6-26.5,20.4-33,36.4c-5.3,12.9-5.1,26.1-5.1,39.7c0,11-0.1,22.1,0,33.1c0,5.4,0.7,10.7,1.8,16c0.5,2.4,3.2,4.5,5.7,4.3
					c7.9-0.5,9.3,10.7,6.7,16.2c-1.2,2.7-0.8,4.9,0.9,7.1c8.9,11.3,20.8,17.8,32.9,24.8c9.1,5.3,18.2,10.6,27.4,15.8
					c20,11.4,44.2,12.4,65.1,2.8c9.7-4.5,18.9-10.6,28.2-16c13.6-7.8,27.5-14.8,37.4-27.4c1.8-2.2,2.2-4.5,0.9-7.1
					C-131.9,480.3-132.1,478.4-132.1,476.3c0.3-7.6-11.5-7.6-11.8,0c-0.2,4.2,0.9,8.1,2.7,11.8c0.3-2.4,0.6-4.8,0.9-7.1
					c-8.2,10.4-19,16.3-30.2,22.7c-9.2,5.3-18.3,10.6-27.5,15.9c-17.5,10-39.2,10.8-57,1.2c-8.6-4.6-16.9-9.7-25.3-14.6
					c-12.6-7.3-25.2-13.6-34.4-25.2c0.3,2.4,0.6,4.8,0.9,7.1c6.1-13,0.9-35-16.9-33.9l5.7,4.3c-2.4-11.3-1.4-23.5-1.4-34.9
					c0-10.2-0.7-20.7,0.3-30.9c1.9-18.5,13.1-35,29.1-44.3c8.9-5.2,17.8-10.3,26.8-15.4c11.1-6.4,21.7-13.3,34.6-15.1
					c10.8-1.5,22.2,0,32.1,4.6c3.9,1.8,7.6,4.1,11.3,6.2c10.3,6,20.7,11.9,31,17.9c13,7.5,23.7,17.8,29,32.2
					c4.2,11.4,3.6,23.1,3.6,35c0,10.6,0.1,21.2,0,31.9c0,4.4-0.5,8.7-1.4,13c1.9-1.4,3.8-2.9,5.7-4.3c-12.1-0.7-20,11.1-19.6,22.1
					C-143.6,483.9-131.8,483.9-132.1,476.3"/>
				<path id="XMLID_110_" class="st7" d="M-317,476.2c0-0.3,0-0.6,0-1c0-8.4-5.8-15.2-12.9-15.2c-0.3,0-0.5,0-0.8,0
					c-6.7,0.5-12.1,7.1-12.1,15.2c0,0.3,0,0.6,0,1c0,0.3,0,0.6,0,1c0,8.4,5.8,15.2,12.9,15.2c4.7,0,8.7-2.9,11-7.3
					c1.2-2.3,1.9-5,1.9-7.9C-317,476.9-317,476.6-317,476.2"/>
				<path id="XMLID_105_" class="st7" d="M-112.2,475.3c0-8.1-5.3-14.6-12-15.2c-0.3,0-0.6-0.1-0.9-0.1c-7.1,0-12.9,6.8-12.9,15.2
					c0,0.4,0,0.7,0,1.1c0,0.3,0,0.6,0,0.9c0,2.9,0.7,5.6,1.9,8c2.3,4.4,6.3,7.3,11,7.3c7.1,0,12.9-6.8,12.9-15.2c0-0.3,0-0.6,0-1
					C-112.2,475.9-112.2,475.6-112.2,475.3"/>
				<path id="XMLID_104_" class="st7" d="M-334.2,375.6c0,0,0.4,1.8,0.9,5c0.5,3.2,1,7.6,1.4,13c0.4,5.4,0.6,11.6,0.6,18.3
					c0,6.7-0.3,13.8-0.9,20.9c-0.5,7.1-1.3,14.2-2.3,20.8c-0.5,3.3-1,6.5-1.6,9.5c-0.5,3-1.2,5.9-1.7,8.5c-0.6,2.6-1.2,5-1.8,7.2
					c-0.6,2.1-1.1,4-1.6,5.5c-0.9,3-1.6,4.8-1.6,4.8s-0.4-1.8-0.9-5c-0.2-1.6-0.5-3.5-0.7-5.7c-0.2-2.2-0.5-4.7-0.7-7.3
					c-0.2-2.7-0.4-5.6-0.4-8.7c-0.1-3.1-0.1-6.3-0.1-9.6c0-6.7,0.3-13.8,0.9-20.9c0.5-7.1,1.3-14.2,2.3-20.8c1-6.6,2.1-12.8,3.3-18
					c1.2-5.3,2.4-9.6,3.3-12.7C-334.9,377.4-334.2,375.6-334.2,375.6"/>
				<path id="XMLID_102_" class="st7" d="M-120.8,375.6c0,0,0.7,1.7,1.6,4.8c0.9,3,2.2,7.4,3.3,12.7c1.2,5.3,2.3,11.4,3.3,18
					c1,6.6,1.7,13.7,2.3,20.8c0.5,7.1,0.8,14.2,0.9,20.9c0,3.3,0,6.6-0.1,9.6c-0.1,3.1-0.3,6-0.4,8.7c-0.2,2.7-0.4,5.2-0.7,7.3
					c-0.2,2.2-0.5,4.1-0.7,5.7c-0.5,3.2-0.9,5-0.9,5s-0.7-1.7-1.6-4.8c-0.5-1.5-1-3.4-1.6-5.5c-0.6-2.1-1.2-4.5-1.8-7.2
					c-0.6-2.6-1.2-5.5-1.7-8.5c-0.6-3-1.1-6.2-1.6-9.5c-1-6.6-1.7-13.7-2.3-20.8c-0.5-7.1-0.8-14.2-0.9-20.9
					c0-6.7,0.2-12.9,0.6-18.3c0.4-5.4,0.9-9.9,1.4-13C-121.2,377.4-120.8,375.6-120.8,375.6"/>
				<path id="XMLID_92_" class="st8" d="M-137.3,416.7c0-5.3-3.2-9.8-7.7-11.7c0.1-0.7,0.2-1.5,0.2-2.2c0-4.9-2.6-9.3-6.5-11.8
					c0.8-1.6,1.2-3.5,1.2-5.4c0-7-5.7-12.8-12.8-12.8c-5.2,0-9.6,3.1-11.6,7.5c-1.2-0.4-2.4-0.5-3.7-0.5c-7,0-12.8,5.7-12.8,12.8
					c0,7,5.7,12.8,12.8,12.8c2,0,3.9-0.5,5.5-1.3c0.5,5.7,4.5,10.4,9.8,12c0,0.2,0,0.4,0,0.6c0,0.8,0.1,1.6,0.2,2.4
					c-3.9-2.4-8.6-3.9-13.5-3.9c-14.1,0-25.6,11.5-25.6,25.6c0,12.5,9,23,20.9,25.2c-0.2,0.3-0.3,0.6-0.4,0.9
					c-6.7,1.4-11.8,7.4-11.8,14.5c0,2.2,0.5,4.2,1.3,6c-8.3-3.7-20.7-6-34.5-6c-0.4,0-0.7,0-1.1,0c-0.5,0-0.9,0-1.4,0
					c-13.8,0-26.2,2.3-34.5,6c0.8-1.8,1.3-3.9,1.3-6c0-7.1-5-13.1-11.8-14.5c-0.1-0.3-0.3-0.6-0.4-0.9c11.9-2.2,20.9-12.6,20.9-25.2
					c0-14.1-11.5-25.6-25.6-25.6c-5,0-9.6,1.4-13.5,3.9c0.2-0.8,0.2-1.6,0.2-2.4c0-0.2,0-0.4,0-0.6c5.3-1.6,9.3-6.3,9.8-12
					c1.7,0.8,3.5,1.3,5.5,1.3c7,0,12.8-5.7,12.8-12.8c0-7-5.7-12.8-12.8-12.8c-1.3,0-2.5,0.2-3.7,0.5c-2-4.4-6.5-7.5-11.6-7.5
					c-7,0-12.8,5.7-12.8,12.8c0,1.9,0.4,3.8,1.2,5.4c-3.9,2.5-6.5,6.8-6.5,11.8c0,0.8,0.1,1.5,0.2,2.2c-4.5,2-7.7,6.5-7.7,11.7
					c0,3.9,1.8,7.5,4.6,9.8c-0.3,0.9-0.5,1.9-0.5,3c0,3.3,1.8,6.2,4.6,7.6c-1.4,2.1-2.3,4.6-2.3,7.3c0,6.2,4.4,11.3,10.2,12.5
					c-1.5,1.6-2.5,3.7-2.5,6.1c0,3.2,1.7,6,4.3,7.5c-1,1.4-1.6,3.2-1.6,5.1c0,4.8,3.9,8.7,8.7,8.7c0.3,0,0.6,0,0.9,0
					c0.9,5,4.3,9.1,8.8,11.1c-0.2,0.8-0.3,1.7-0.3,2.6c0,5.4,4,9.8,9.3,10.5c0.6,3.4,3.1,6.2,6.5,7c-0.6,1.2-1,2.6-1,4
					c0,4.8,3.9,8.7,8.7,8.7c3,0,5.6-1.5,7.1-3.7c1,0.5,2.1,0.8,3.3,0.8c1.7,0,3.3-0.6,4.6-1.6c0.9,4.7,5.1,8.3,10.1,8.3
					c2.6,0,5-1,6.8-2.6c1.8,1.6,4.2,2.6,6.8,2.6c5,0,9.2-3.6,10.1-8.3c1.3,1,2.9,1.6,4.6,1.6c1.2,0,2.3-0.3,3.3-0.8
					c1.6,2.3,4.2,3.7,7.1,3.7c4.8,0,8.7-3.9,8.7-8.7c0-1.5-0.4-2.8-1-4c3.4-0.8,5.9-3.6,6.5-7c5.2-0.7,9.3-5.1,9.3-10.5
					c0-0.9-0.1-1.8-0.3-2.6c4.5-1.9,7.9-6.1,8.8-11.1c0.3,0,0.6,0,0.9,0c4.8,0,8.7-3.9,8.7-8.7c0-1.9-0.6-3.6-1.6-5.1
					c2.6-1.5,4.3-4.3,4.3-7.5c0-2.4-0.9-4.5-2.5-6.1c5.8-1.2,10.2-6.3,10.2-12.5c0-2.7-0.8-5.2-2.3-7.3c2.7-1.5,4.6-4.3,4.6-7.6
					c0-1-0.2-2-0.5-3C-139.1,424.2-137.3,420.7-137.3,416.7 M-242.1,514.9c0-0.1,0-0.1-0.1-0.2c0.1,0,0.1,0,0.2,0
					C-242,514.8-242.1,514.8-242.1,514.9 M-212.9,514.9c0,0-0.1-0.1-0.1-0.1c0.1,0,0.1,0,0.2,0
					C-212.8,514.8-212.8,514.8-212.9,514.9"/>
				<path id="XMLID_90_" class="st9" d="M-131.6,334c10,14.7,14,32.3,11.4,49.4c-1.2,7.8-3.9,15.7-9.9,21.4
					c-5.1,4.9-12,7.8-18.8,10.5c-11.5,4.7-23.4,9.5-36,9.3c-1.1-9.9-1.7-19.9-1.8-29.8c11.4-0.4,23.2,0.5,34-2.7
					c5.8-1.7,5.8-1.7,7.8-4c1.9-2.1,1.4-2.6,3-6.9c4.9-12.6,0.4-26.7,0.6-40c0-2.6,0.1-5.4,1.9-7.5c1.7-2.1,6.2-1.6,7.9,0.5"/>
				<path id="XMLID_86_" class="st10" d="M-131.6,334c10,14.7,14,32.3,11.4,49.4c-1.2,7.8-3.9,15.7-9.9,21.4
					c-5.1,4.9-12,7.8-18.8,10.5c-11.5,4.7-23.4,9.5-36,9.3c-1.1-9.9-1.7-19.9-1.8-29.8c11.4-0.4,23.2,0.5,34-2.7
					c5.8-1.7,5.8-1.7,7.8-4c1.9-2.1,1.4-2.6,3-6.9c4.9-12.6,0.4-26.7,0.6-40c0-2.6,0.1-5.4,1.9-7.5c1.7-2.1,6.2-1.6,7.9,0.5"/>
				<path id="XMLID_83_" class="st9" d="M-323.3,334c-10,14.7-14,32.3-11.4,49.4c1.2,7.8,3.9,15.7,9.9,21.4
					c5.1,4.9,12,7.8,18.8,10.5c11.5,4.7,23.4,9.5,36,9.3c1.1-9.9,1.7-19.9,1.8-29.8c-11.4-0.4-23.2,0.5-34-2.7
					c-5.8-1.7-5.8-1.7-7.8-4c-1.9-2.1-1.4-2.6-3-6.9c-4.9-12.6-0.4-26.7-0.6-40c0-2.6-0.1-5.4-1.9-7.5c-1.7-2.1-6.2-1.6-7.9,0.5"/>
				<path id="XMLID_79_" class="st10" d="M-323.3,334c-10,14.7-14,32.3-11.4,49.4c1.2,7.8,3.9,15.7,9.9,21.4
					c5.1,4.9,12,7.8,18.8,10.5c11.5,4.7,23.4,9.5,36,9.3c1.1-9.9,1.7-19.9,1.8-29.8c-11.4-0.4-23.2,0.5-34-2.7
					c-5.8-1.7-5.8-1.7-7.8-4c-1.9-2.1-1.4-2.6-3-6.9c-4.9-12.6-0.4-26.7-0.6-40c0-2.6-0.1-5.4-1.9-7.5c-1.7-2.1-6.2-1.6-7.9,0.5"/>
				<path id="XMLID_76_" class="st7" d="M-260.3,492.7h67.3c4.7,0,7.2-4.8,7.2-9.5l9.1-83.6c0-4.7-3.8-8.4-8.4-8.4h-84.7
					c-4.7,0-8.4,3.8-8.4,8.4l9.4,86.3C-268.1,491.2-265,492.7-260.3,492.7"/>
				<path id="XMLID_40_" class="st7" d="M-260.3,492.7l40.3-0.1l20.1,0l5,0c0.8,0,1.7,0,2.5,0c0.8-0.1,1.6-0.3,2.3-0.7
					c1.4-0.8,2.5-2.2,3.1-3.7c0.7-1.5,1-3.2,1-4.8v0l0,0l8.9-83.6l0,0c0-2.2-1-4.4-2.6-5.9c-0.8-0.8-1.8-1.3-2.8-1.7
					c-1.1-0.4-2.1-0.5-3.3-0.4l-13.9,0l-27.8-0.1l-27.8-0.1l-13.9,0c-0.6,0-1.1,0-1.7,0.1c-0.5,0.1-1.1,0.2-1.6,0.4
					c-1.1,0.4-2.1,1-2.9,1.7c-1.7,1.5-2.7,3.7-2.7,6l0,0l5.3,49.2l2.6,24.6l1.3,12.3c0.1,1,0.4,2,0.8,3c0.4,0.9,1,1.8,1.9,2.4
					c0.8,0.6,1.8,1,2.8,1.3C-262.4,492.7-261.3,492.7-260.3,492.7 M-260.3,492.7c-1,0-2.1-0.1-3.1-0.3c-1-0.2-2-0.6-2.8-1.2
					c-0.8-0.6-1.5-1.5-1.9-2.4c-0.4-0.9-0.6-2-0.8-3l-1.4-12.3l-2.7-24.6l-5.5-49.2l0,0v0c0-2.4,1-4.7,2.8-6.3
					c0.9-0.8,1.9-1.4,3-1.8c0.6-0.2,1.1-0.3,1.7-0.4c0.6-0.1,1.2-0.1,1.8-0.1l13.9,0l27.8-0.1l27.8-0.1l13.9,0
					c1.1,0,2.4,0.1,3.5,0.5c1.1,0.4,2.2,1,3.1,1.9c1.8,1.6,2.8,4,2.8,6.4v0l0,0l-9.3,83.6l0,0c0,1.7-0.3,3.4-1,5
					c-0.7,1.6-1.8,3-3.3,3.9c-0.7,0.4-1.6,0.7-2.4,0.8c-0.8,0.1-1.7,0-2.5,0l-5,0l-20.1,0L-260.3,492.7z"/>
				<path id="XMLID_39_" class="st7" d="M-176.5,398.1c0,0,0.4,1.5,0.8,4.1c0.4,2.6,0.9,6.2,1.1,10.6c0.3,4.4,0.4,9.4,0.2,14.8
					c-0.2,5.4-0.6,11.1-1.3,16.8c-0.7,5.7-1.6,11.4-2.7,16.7c-0.5,2.6-1.1,5.2-1.7,7.6c-0.6,2.4-1.3,4.7-1.9,6.8
					c-0.6,2.1-1.3,4-1.9,5.7c-0.6,1.7-1.2,3.2-1.7,4.4c-1,2.4-1.7,3.8-1.7,3.8s-0.4-1.5-0.8-4.1c-0.2-1.3-0.4-2.9-0.6-4.6
					c-0.2-1.8-0.4-3.8-0.5-6c-0.1-2.2-0.2-4.5-0.3-7c0-2.5,0-5.1,0.1-7.8c0.2-5.4,0.6-11.1,1.3-16.8c0.7-5.7,1.6-11.4,2.7-16.7
					c1.1-5.3,2.4-10.2,3.7-14.4c1.3-4.2,2.6-7.6,3.6-10.1C-177.2,399.4-176.5,398.1-176.5,398.1"/>
				<path id="XMLID_38_" class="st7" d="M-194.6,492.7h-67.3c-4.7,0-7.2-4.8-7.2-9.5l-9.1-83.6c0-4.7,3.8-8.4,8.4-8.4h84.7
					c4.7,0,8.4,3.8,8.4,8.4l-9.4,86.3C-186.8,491.2-190,492.7-194.6,492.7"/>
				<path id="XMLID_32_" class="st7" d="M-194.6,492.7l-40.3,0.1l-20.1,0l-5,0c-0.8,0-1.7,0-2.5,0c-0.9-0.1-1.7-0.4-2.4-0.8
					c-1.5-0.9-2.6-2.3-3.3-3.9c-0.7-1.6-1-3.3-1-5l0,0l-9.3-83.6l0,0v0c0-2.4,1-4.8,2.8-6.4c0.9-0.8,1.9-1.5,3.1-1.9
					c1.1-0.4,2.4-0.5,3.5-0.5l13.9,0l27.8,0.1l27.8,0.1l13.9,0c0.6,0,1.2,0,1.8,0.1c0.6,0.1,1.2,0.2,1.7,0.4c1.1,0.4,2.2,1,3,1.8
					c1.8,1.6,2.8,4,2.8,6.3v0l0,0l-5.5,49.2l-2.7,24.6l-1.4,12.3c-0.1,1-0.4,2-0.8,3c-0.4,0.9-1,1.8-1.9,2.4c-0.8,0.6-1.8,1-2.8,1.2
					C-192.6,492.7-193.6,492.7-194.6,492.7 M-194.6,492.7c1,0,2.1-0.1,3.1-0.3c1-0.2,2-0.6,2.8-1.3c0.8-0.6,1.4-1.5,1.9-2.4
					c0.4-0.9,0.6-2,0.8-3l1.3-12.3l2.6-24.6l5.3-49.2l0,0c0-2.3-1-4.5-2.7-6c-0.8-0.8-1.8-1.4-2.9-1.7c-0.5-0.2-1.1-0.3-1.6-0.4
					c-0.6-0.1-1.1-0.1-1.7-0.1l-13.9,0l-27.8,0.1l-27.8,0.1l-13.9,0c-1.2,0-2.2,0.1-3.3,0.4c-1,0.4-2,0.9-2.8,1.7
					c-1.6,1.5-2.6,3.7-2.6,5.9l0,0l8.9,83.6l0,0v0c0,1.7,0.3,3.3,1,4.8c0.7,1.5,1.7,2.9,3.1,3.7c0.7,0.4,1.5,0.7,2.3,0.7
					c0.8,0.1,1.7,0,2.5,0l5,0l20.1,0L-194.6,492.7z"/>
				<path id="XMLID_30_" class="st7" d="M-278.5,398.1c0,0,0.7,1.4,1.7,3.8c1,2.4,2.3,5.9,3.6,10.1c1.3,4.2,2.6,9.1,3.7,14.4
					c1.1,5.3,2,11,2.7,16.7c0.7,5.7,1.1,11.4,1.3,16.8c0.1,2.7,0.1,5.3,0.1,7.8c0,2.5-0.1,4.9-0.3,7c-0.1,2.2-0.3,4.2-0.5,6
					c-0.2,1.8-0.4,3.3-0.6,4.6c-0.4,2.6-0.8,4.1-0.8,4.1s-0.7-1.4-1.7-3.8c-0.5-1.2-1.1-2.7-1.7-4.4c-0.6-1.7-1.2-3.6-1.9-5.7
					c-0.6-2.1-1.3-4.4-1.9-6.8c-0.6-2.4-1.2-5-1.7-7.6c-1.1-5.3-2-11-2.7-16.7c-0.7-5.7-1.1-11.4-1.3-16.8
					c-0.2-5.4-0.1-10.5,0.2-14.8c0.3-4.4,0.7-8,1.1-10.6C-278.9,399.5-278.5,398.1-278.5,398.1"/>
				<path id="XMLID_28_" class="st8" d="M-215.2,521.6c0,4.1-3.3,7.4-7.4,7.4c-4.1,0-7.4-3.3-7.4-7.4c0-4.1,3.3-7.4,7.4-7.4
					C-218.5,514.1-215.2,517.5-215.2,521.6"/>
				<circle id="XMLID_26_" class="st11" cx="-222.6" cy="521.6" r="7.4"/>
				<path id="XMLID_24_" class="st12" d="M-213.7,464.4h-29.7c0,0,0,0-0.1,0l30,0C-213.6,464.4-213.7,464.4-213.7,464.4"/>
				<path id="XMLID_23_" class="st12" d="M-211,466.1C-211,466.1-211,466.1-211,466.1c-0.1-0.1-0.1-0.2-0.1-0.2l0,0
					c-0.3-0.4-0.6-0.8-1.1-1.1c-4.4,0.9-10,1.7-16.5,1.7c-6.4,0-11.9-0.8-16.3-1.7c-0.5,0.3-0.8,0.6-1.1,1.1l0,0
					c0,0.1-0.1,0.1-0.1,0.2c0,0,0,0.1-0.1,0.1c-5.5,10.3-4.9,21.6,0.8,27.7c0,0,0.5,0.5,0.5,0.6c0.9,0.8,1.8,1.5,2.9,2.1l0,0
					c0.2,0.1,0.4,0.2,0.6,0.3h0c0,0,0.1,0,0.1,0c0.1,0,0.1,0,0.2,0c3.3,0.7,7.5,1.3,12.5,1.3c5.2,0,9.6-0.6,12.9-1.3h-0.3
					c0.4-0.1,0.7-0.2,1-0.4c1-0.6,1.9-1.2,2.6-2c0.1-0.1,0.5-0.5,0.5-0.6C-206.1,487.7-205.5,476.4-211,466.1"/>
				<path id="XMLID_22_" class="st7" d="M-212.2,464.8c0.6-0.1,1.2-0.3,1.7-0.4l-3.1,0l-30,0l-3.2,0c0.6,0.1,1.1,0.3,1.7,0.4
					c4.4,0.9,9.9,1.7,16.3,1.7C-222.2,466.5-216.6,465.8-212.2,464.8"/>
				<path id="XMLID_19_" class="st7" d="M-212.2,464.8l1.7-0.4l0,0l-9.1,0.1l-9.1,0.1c-3,0-6,0.1-9.1,0.1l-4.5,0c-1.5,0-3,0-4.5,0
					l0.1-0.8c1.4,0.3,2.8,0.6,4.2,0.9c1.4,0.3,2.8,0.5,4.3,0.7c2.9,0.4,5.7,0.6,8.6,0.7c2.9,0.1,5.8,0,8.7-0.2
					C-217.9,465.8-215.1,465.4-212.2,464.8 M-212.2,464.8c-2.8,0.6-5.7,1.1-8.6,1.4c-1.4,0.1-2.9,0.3-4.3,0.4
					c-1.5,0.1-2.9,0.1-4.4,0.1c-2.9,0-5.8-0.1-8.7-0.4c-1.4-0.2-2.9-0.4-4.3-0.6c-1.4-0.2-2.9-0.5-4.3-0.8l-3.3-0.7l3.4,0
					c1.5,0,3,0,4.5,0l4.5,0c3,0,6,0.1,9.1,0.1l9.1,0.1l9.1,0.1l0.1,0l-0.1,0L-212.2,464.8z"/>
				<path id="XMLID_18_" class="st13" d="M-248.5,441.6c0,3.8-2.6,6.9-5.9,6.9c-3.2,0-5.9-3.1-5.9-6.9c0-3.8,2.6-6.9,5.9-6.9
					C-251.2,434.7-248.5,437.8-248.5,441.6"/>
				<ellipse id="XMLID_16_" class="st14" cx="-254.4" cy="441.6" rx="5.9" ry="6.9"/>
				<path id="XMLID_15_" class="st13" d="M-206.4,441.6c0,3.8,2.6,6.9,5.9,6.9c3.2,0,5.9-3.1,5.9-6.9c0-3.8-2.6-6.9-5.9-6.9
					C-203.8,434.7-206.4,437.8-206.4,441.6"/>
				<ellipse id="XMLID_14_" class="st14" cx="-200.5" cy="441.6" rx="5.9" ry="6.9"/>
				<path id="XMLID_13_" class="st8" d="M-165.4,363.3c-2,0-3.8,0.7-5.3,1.8c-2.4-4.2-6.6-7.3-11.6-8c-0.2-4.6-4-8.2-8.7-8.2
					c-2.6,0-4.9,1.1-6.5,2.9c-0.5-0.1-1-0.1-1.5-0.1c-1,0-2,0.1-3,0.4c-1.5-3.2-4.7-5.4-8.4-5.4c-2.4,0-4.7,1-6.3,2.5
					c-1.6-2.7-4.6-4.6-8-4.6c-1,0-1.9,0.2-2.8,0.4c-0.9-0.3-1.8-0.4-2.8-0.4c-3.4,0-6.4,1.8-8,4.6c-1.7-1.5-3.9-2.5-6.3-2.5
					c-3.7,0-7,2.2-8.4,5.4c-1-0.2-2-0.4-3-0.4c-0.5,0-1,0-1.5,0.1c-1.6-1.8-3.9-2.9-6.5-2.9c-4.6,0-8.4,3.6-8.7,8.2
					c-5,0.7-9.2,3.8-11.6,8c-1.5-1.1-3.3-1.8-5.3-1.8c-4.8,0-8.7,3.9-8.7,8.7c0,4.8,3.9,8.7,8.7,8.7c1.7,0,3.3-0.5,4.6-1.3
					c1.5,3.4,4.2,6.2,7.6,7.9c-5.6,0.3-10.1,4.9-10.1,10.6c0,5.9,4.8,10.6,10.6,10.6c0.1,0,0.2,0,0.3,0c1,4,4.6,6.9,8.9,6.9
					c1.1,0,2.1-0.2,3.1-0.6c1.5,3,4.5,5,8,5c1.8,0,3.6-0.6,5-1.5c1.1,2.6,3.8,4.5,6.8,4.5c2.3,0,4.3-1,5.7-2.6c0.6,1.2,1.8,2,3.3,2
					c0.4,0,0.8-0.1,1.1-0.2c0.9,2.8,3.4,4.8,6.5,5c0.1,0,0.2,0,0.3,0c0.1,0,0.2,0,0.3,0c0,0,0,0,0,0c0,0,0,0,0,0c3.3,0,6-2.1,7-5.1
					c0.3,0.1,0.7,0.2,1.1,0.2c1.4,0,2.7-0.8,3.3-2c1.4,1.6,3.4,2.6,5.7,2.6c3.1,0,5.7-1.9,6.8-4.5c1.4,1,3.1,1.5,5,1.5
					c3.5,0,6.5-2,8-5c1,0.3,2,0.6,3.1,0.6c4.3,0,7.9-2.9,8.9-6.9c0.1,0,0.2,0,0.3,0c5.9,0,10.6-4.8,10.6-10.6
					c0-5.7-4.5-10.3-10.1-10.6c3.4-1.6,6.1-4.4,7.6-7.9c1.3,0.8,2.9,1.3,4.6,1.3c4.8,0,8.7-3.9,8.7-8.7
					C-156.7,367.2-160.6,363.3-165.4,363.3"/>
				<path id="XMLID_12_" class="st13" d="M-219.8,479.4c-1.1,1.4,3.8,0.8,1.6-0.7c-1.5-1.1-2.6,2.2-0.8,2.1c0.4,0,1.2-0.7,1.5-0.9
					c1-0.7,1.9-1.5,2.8-2.4c0.4-0.5,0.9-1,0.8-1.7c-1.3,0-2.2,1.3-3.5,1.6c-0.7,0.2-1.6,0.1-2.1,0.7c0,0.2-0.6-0.1-0.8,1.3
					c-0.3,1.9,5.1-2,6.2-3.6c-0.8,1.2-1.4,2.4-2.8,3c-0.7,0.3-2.4,0-2.9,0.4C-219.7,479.3-219.8,479.3-219.8,479.4"/>
				<path id="XMLID_11_" class="st14" d="M-219.8,479.4c-1.1,1.4,3.8,0.8,1.6-0.7c-1.5-1.1-2.6,2.2-0.8,2.1c0.4,0,1.2-0.7,1.5-0.9
					c1-0.7,1.9-1.5,2.8-2.4c0.4-0.5,0.9-1,0.8-1.7c-1.3,0-2.2,1.3-3.5,1.6c-0.7,0.2-1.6,0.1-2.1,0.7c0,0.2-0.6-0.1-0.8,1.3
					c-0.3,1.9,5.1-2,6.2-3.6c-0.8,1.2-1.4,2.4-2.8,3c-0.7,0.3-2.4,0-2.9,0.4C-219.7,479.3-219.8,479.3-219.8,479.4z"/>
				<path id="XMLID_10_" class="st13" d="M-235.1,479.4c1.1,1.4-3.8,0.8-1.6-0.7c1.5-1.1,2.6,2.2,0.8,2.1c-0.4,0-1.2-0.7-1.5-0.9
					c-1-0.7-1.9-1.5-2.8-2.4c-0.4-0.5-0.9-1-0.8-1.7c1.3,0,2.2,1.3,3.5,1.6c0.7,0.2,1.6,0.1,2.1,0.7c0,0.2,0.6-0.1,0.8,1.3
					c0.3,1.9-5.1-2-6.2-3.6c0.8,1.2,1.4,2.4,2.8,3c0.7,0.3,2.4,0,2.9,0.4C-235.2,479.3-235.2,479.3-235.1,479.4"/>
				<path id="XMLID_8_" class="st14" d="M-235.1,479.4c1.1,1.4-3.8,0.8-1.6-0.7c1.5-1.1,2.6,2.2,0.8,2.1c-0.4,0-1.2-0.7-1.5-0.9
					c-1-0.7-1.9-1.5-2.8-2.4c-0.4-0.5-0.9-1-0.8-1.7c1.3,0,2.2,1.3,3.5,1.6c0.7,0.2,1.6,0.1,2.1,0.7c0,0.2,0.6-0.1,0.8,1.3
					c0.3,1.9-5.1-2-6.2-3.6c0.8,1.2,1.4,2.4,2.8,3c0.7,0.3,2.4,0,2.9,0.4C-235.2,479.3-235.2,479.3-235.1,479.4z"/>
			</g>
		</g>
	</g>
</g>
</svg>
