<?xml version="1.0" encoding="utf-8"?>
<!-- Generator: Adobe Illustrator 19.0.0, SVG Export Plug-In . SVG Version: 6.00 Build 0)  -->
<svg version="1.1" id="Layer_1" xmlns="http://www.w3.org/2000/svg" xmlns:xlink="http://www.w3.org/1999/xlink" x="0px" y="0px"
	 viewBox="0 0 1565.4 700" style="enable-background:new 0 0 1565.4 700;" xml:space="preserve">
<style type="text/css">
	.st0{fill:#FFFFFF;}
	.st1{fill:#C98F53;}
	.st2{fill:#4C5C96;}
	.st3{fill:#7953C9;}
	.st4{fill:none;stroke:#7953C9;stroke-width:40;stroke-miterlimit:10;}
	.st5{fill:none;stroke:#4C5C96;stroke-width:40;stroke-miterlimit:10;}
	.st6{fill:none;stroke:#C98F53;stroke-width:40;stroke-miterlimit:10;}
</style>
<rect id="XMLID_173_" y="0" class="st0" width="40" height="700"/>
<rect id="XMLID_172_" x="120" y="0" class="st0" width="40" height="700"/>
<rect id="XMLID_171_" x="608.5" y="270" class="st0" width="40" height="430"/>
<rect id="XMLID_170_" x="180" y="330" class="st1" width="40" height="370"/>
<rect id="XMLID_169_" x="240" y="330" class="st1" width="40" height="310"/>
<rect id="XMLID_167_" x="608.5" y="0" class="st1" width="40" height="240"/>
<rect id="XMLID_162_" x="180" y="0" class="st2" width="40" height="310"/>
<rect id="XMLID_161_" x="0" y="270" class="st0" width="160" height="40"/>
<rect id="XMLID_160_" x="180" y="660" class="st1" width="388.5" height="40"/>
<rect id="XMLID_159_" x="240" y="600" class="st1" width="328.5" height="40"/>
<rect id="XMLID_156_" x="888.5" y="0" width="40" height="700"/>
<rect id="XMLID_155_" x="948.5" y="60" width="40" height="580"/>
<rect id="XMLID_148_" x="180" y="0" class="st2" width="388.5" height="40"/>
<rect id="XMLID_147_" x="180" y="270" class="st2" width="388.5" height="40"/>
<rect id="XMLID_146_" x="180" y="135" class="st2" width="388.5" height="40"/>
<rect id="XMLID_145_" x="1176.9" y="390" class="st3" width="40" height="310"/>
<rect id="XMLID_144_" x="1351.1" y="0" class="st0" width="40" height="370"/>
<rect id="XMLID_143_" x="1176.9" y="390" class="st3" width="388.5" height="40"/>
<rect id="XMLID_142_" x="1176.9" y="330" class="st0" width="388.5" height="40"/>
<rect id="XMLID_141_" x="1176.9" y="0" class="st0" width="388.5" height="40"/>
<rect id="XMLID_140_" x="1176.9" y="660" class="st3" width="388.5" height="40"/>
<rect id="XMLID_139_" x="1176.9" y="525" class="st3" width="388.5" height="40"/>
<rect id="XMLID_138_" x="608.5" y="270" class="st0" width="260" height="40"/>
<rect id="XMLID_136_" x="608.5" y="660" class="st0" width="260" height="40"/>
<rect id="XMLID_135_" x="608.5" y="390" class="st0" width="260" height="40"/>
<path id="XMLID_92_" class="st2" d="M678.5,20L678.5,20c-5.5,0-10-4.5-10-10v0c0-5.5,4.5-10,10-10h0c5.5,0,10,4.5,10,10v0
	C688.5,15.5,684,20,678.5,20z"/>
<rect id="XMLID_36_" x="668.5" y="20" class="st2" width="20" height="20"/>
<rect id="XMLID_114_" x="668.5" y="10" class="st2" width="20" height="20"/>
<rect id="XMLID_37_" x="668.5" y="40" class="st2" width="20" height="20"/>
<rect id="XMLID_39_" x="668.5" y="50" class="st2" width="20" height="20"/>
<path id="XMLID_38_" class="st2" d="M678.5,80L678.5,80c-5.5,0-10-4.5-10-10v0c0-5.5,4.5-10,10-10h0c5.5,0,10,4.5,10,10v0
	C688.5,75.5,684,80,678.5,80z"/>
<path id="XMLID_81_" class="st4" d="M508.5,560H360c-22,0-40-18-40-40V390c0-22,18-40,40-40h148.5c22,0,40,18,40,40v130
	C548.5,542,530.5,560,508.5,560z"/>
<path id="XMLID_183_" class="st5" d="M1036.9,680H908.5V20h128.5c55,0,100,45,100,100v460C1136.9,635,1091.9,680,1036.9,680z"/>
<path id="XMLID_151_" class="st6" d="M1036.9,620h-68.5V80h68.5c22,0,40,18,40,40v460C1076.9,602,1058.9,620,1036.9,620z"/>
<path id="XMLID_200_" class="st3" d="M868.6,50v190h-40v-20l0,0V50c0-5.4-4.6-10-10-10s-10,4.6-10,10v190h-40V50
	c0-0.5-0.1-1-0.1-1.5c-0.8-4.7-5-8.5-9.9-8.5c-5.4,0-10,4.6-10,10v190h-40V50c0-27.6,22.4-50,49.9-50c11.2,0,21.6,3.7,30,10
	c0,0-0.1,0-0.1,0c0,0,0,0,0,0c0,0,0,0,0.1,0c0,0,0,0,0.1-0.1c0,0,0,0-0.1,0c8.3-6.3,18.9-10,30.1-10C846.1,0,868.6,22.4,868.6,50z"
	/>
<rect id="XMLID_153_" x="828.6" y="220" width="0" height="20"/>
</svg>
