<?xml version="1.0" encoding="utf-8"?>
<!-- Generator: Adobe Illustrator 19.0.0, SVG Export Plug-In . SVG Version: 6.00 Build 0)  -->
<svg version="1.1" id="Layer_1" xmlns="http://www.w3.org/2000/svg" xmlns:xlink="http://www.w3.org/1999/xlink" x="0px" y="0px"
	 viewBox="0 0 1646.9 800" style="enable-background:new 0 0 1646.9 800;" xml:space="preserve">
<style type="text/css">
	.st0{fill:#FFFFFF;}
	.st1{fill:#C98F53;}
	.st2{fill:#4C5C96;}
	.st3{fill:#7953C9;}
	.st4{fill:none;stroke:#7953C9;stroke-width:40;stroke-miterlimit:10;}
	.st5{fill:none;stroke:#4C5C96;stroke-width:40;stroke-miterlimit:10;}
	.st6{fill:none;stroke:#C98F53;stroke-width:40;stroke-miterlimit:10;}
</style>
<rect id="XMLID_173_" x="41.9" y="50" class="st0" width="40" height="700"/>
<rect id="XMLID_172_" x="161.9" y="50" class="st0" width="40" height="700"/>
<rect id="XMLID_171_" x="650.4" y="320" class="st0" width="40" height="430"/>
<rect id="XMLID_170_" x="221.9" y="380" class="st1" width="40" height="370"/>
<rect id="XMLID_169_" x="281.9" y="380" class="st1" width="40" height="310"/>
<rect id="XMLID_167_" x="650.4" y="50" class="st1" width="40" height="240"/>
<rect id="XMLID_162_" x="221.9" y="50" class="st2" width="40" height="310"/>
<rect id="XMLID_161_" x="41.9" y="320" class="st0" width="160" height="40"/>
<rect id="XMLID_160_" x="221.9" y="710" class="st1" width="388.5" height="40"/>
<rect id="XMLID_159_" x="281.9" y="650" class="st1" width="328.5" height="40"/>
<rect id="XMLID_156_" x="930.4" y="50" width="40" height="700"/>
<rect id="XMLID_155_" x="990.4" y="110" width="40" height="580"/>
<rect id="XMLID_148_" x="221.9" y="50" class="st2" width="388.5" height="40"/>
<rect id="XMLID_147_" x="221.9" y="320" class="st2" width="388.5" height="40"/>
<rect id="XMLID_146_" x="221.9" y="185" class="st2" width="388.5" height="40"/>
<rect id="XMLID_145_" x="1218.8" y="440" class="st3" width="40" height="310"/>
<rect id="XMLID_144_" x="1393" y="50" class="st0" width="40" height="370"/>
<rect id="XMLID_143_" x="1218.8" y="440" class="st3" width="388.5" height="40"/>
<rect id="XMLID_142_" x="1218.8" y="380" class="st0" width="388.5" height="40"/>
<rect id="XMLID_141_" x="1218.8" y="50" class="st0" width="388.5" height="40"/>
<rect id="XMLID_140_" x="1218.8" y="710" class="st3" width="388.5" height="40"/>
<rect id="XMLID_139_" x="1218.8" y="575" class="st3" width="388.5" height="40"/>
<rect id="XMLID_138_" x="650.4" y="320" class="st0" width="260" height="40"/>
<rect id="XMLID_136_" x="650.4" y="710" class="st0" width="260" height="40"/>
<rect id="XMLID_135_" x="650.4" y="440" class="st0" width="260" height="40"/>
<path id="XMLID_92_" class="st2" d="M720.4,70L720.4,70c-5.5,0-10-4.5-10-10v0c0-5.5,4.5-10,10-10l0,0c5.5,0,10,4.5,10,10v0
	C730.4,65.5,725.9,70,720.4,70z"/>
<rect id="XMLID_36_" x="710.4" y="70" class="st2" width="20" height="20"/>
<rect id="XMLID_114_" x="710.4" y="60" class="st2" width="20" height="20"/>
<rect id="XMLID_37_" x="710.4" y="90" class="st2" width="20" height="20"/>
<rect id="XMLID_39_" x="710.4" y="100" class="st2" width="20" height="20"/>
<path id="XMLID_38_" class="st2" d="M720.4,130L720.4,130c-5.5,0-10-4.5-10-10v0c0-5.5,4.5-10,10-10l0,0c5.5,0,10,4.5,10,10v0
	C730.4,125.5,725.9,130,720.4,130z"/>
<path id="XMLID_81_" class="st4" d="M550.4,610H401.9c-22,0-40-18-40-40V440c0-22,18-40,40-40h148.5c22,0,40,18,40,40v130
	C590.4,592,572.4,610,550.4,610z"/>
<path id="XMLID_183_" class="st5" d="M1078.8,730H950.4V70h128.5c55,0,100,45,100,100v460C1178.8,685,1133.8,730,1078.8,730z"/>
<path id="XMLID_151_" class="st6" d="M1078.8,670h-68.5V130h68.5c22,0,40,18,40,40v460C1118.8,652,1100.8,670,1078.8,670z"/>
<path id="XMLID_200_" class="st3" d="M910.5,100v190h-40v-20l0,0V100c0-5.4-4.6-10-10-10s-10,4.6-10,10v190h-40V100
	c0-0.5-0.1-1-0.1-1.5c-0.8-4.7-5-8.5-9.9-8.5c-5.4,0-10,4.6-10,10v190h-40V100c0-27.6,22.4-50,49.9-50c11.2,0,21.6,3.7,30,10
	c0,0-0.1,0-0.1,0c0,0,0,0,0,0c0,0,0,0,0.1,0c0,0,0,0,0.1-0.1c0,0,0,0-0.1,0c8.3-6.3,18.9-10,30.1-10C888,50,910.5,72.4,910.5,100z"
	/>
<rect id="XMLID_153_" x="870.5" y="270" width="0" height="20"/>
</svg>
