<?xml version="1.0" encoding="utf-8"?>
<!-- Generator: Adobe Illustrator 19.0.0, SVG Export Plug-In . SVG Version: 6.00 Build 0)  -->
<svg version="1.1" id="Layer_1" xmlns="http://www.w3.org/2000/svg" xmlns:xlink="http://www.w3.org/1999/xlink" x="0px" y="0px"
	 viewBox="0 0 85 85" style="enable-background:new 0 0 85 85;" xml:space="preserve">
<style type="text/css">
	.st0{fill:#FFFFFF;}
	.st1{fill:none;stroke:#4B4F5B;stroke-width:0.5;stroke-miterlimit:10;}
</style>
<g>
	<path class="st0" d="M42.5,0C66,0,85,19,85,42.5S66,85,42.5,85S0,66,0,42.5S19,0,42.5,0z"/>
</g>
<g id="XMLID_3_">
	<path id="XMLID_6_" class="st1" d="M29,58.8c0.6,3.5,0.1,7.2-1.4,10.4"/>
	<path id="XMLID_54_" class="st1" d="M59.5,27.4c2.6,7.2-0.2,15.3-2.7,22.2c-0.7,2-1.4,3.9-2.1,5.9"/>
	<path id="XMLID_4_" class="st1" d="M52.3,71.3c0-5.2,0.6-10.4,2-15.5c-2.5,3.9-5.1,8.1-9.2,10.4c-2.8,1.8-6.2,2.2-8.9,0.6
		c-4.6-3-8-8-8.7-13.3c-1.1-5.3,0.8-10.2-0.8-15.2c1.5-5.3,0.8-12.5,5.6-16.5"/>
	<path id="XMLID_44_" class="st1" d="M29.1,58.8c0.2,2.9,0.1,5.8-0.3,8.6c-0.2,1.1-0.4,2.3-1,3.2"/>
	<path id="XMLID_45_" class="st1" d="M26.6,35.5c0-0.5-0.2-1-0.6-1.3s-1.1-0.2-1.3,0.2c-0.1,0.2-0.1,0.4-0.1,0.7
		c0.1,2-0.3,3.9-1,5.7c-0.2,0.5-0.4,1-0.3,1.5c0.1,0.3,0.2,0.5,0.3,0.8c0.1,0.4,0,0.8,0,1.3c0,0.9,0.7,1.7,1.5,2
		c0.9,0.2,1.8-0.2,2.3-0.9"/>
	<path id="XMLID_46_" class="st1" d="M59.9,41c0.8-0.8,2.1-1.2,3.2-1c0.2,0.5,0.1,1-0.2,1.4c-0.2,0.2-0.4,0.4-0.6,0.7
		c-0.5,0.7-0.2,1.7-0.2,2.6c0.1,1.3-0.4,2.6-0.9,3.8c-0.5,1.1-1,2.3-2,2.9c-1.1,0.6-2.8,0.1-2.8-1.1"/>
	<path id="XMLID_47_" class="st1" d="M26.5,42.6c-0.2,0.3-0.6,0.3-0.9,0.2s-0.4-0.5-0.5-0.8c-0.1-0.5,0.1-1.1,0.4-1.5"/>
	<path id="XMLID_48_" class="st1" d="M57.4,47.3c0.2,0,0.4,0,0.6,0c0.1,0.3,0.2,0.7,0.3,1c0.3,0,0.6,0,0.9,0
		c0.6-0.6,0.8-1.4,0.7-2.3c-0.2,0-0.5,0-0.6-0.2"/>
	<path id="XMLID_49_" class="st1" d="M26.9,42c-0.3,0.2-0.6,0.3-0.8,0.5"/>
	<path id="XMLID_50_" class="st1" d="M32.1,34.9c1.4-0.2,2.8-0.3,4.3-0.2c1.4,0.2,2.8,0.8,3.7,1.9c0.9,1.1,1.2,2.8,0.4,4
		c-0.3,0.5-0.7,0.9-1,1.4c-0.3,0.7-0.2,1.6-0.4,2.4c-0.3,0.9-1.2,1.6-1.8,2.4c-0.5,0.8-0.5,2.3,0.4,2.5c-0.1-0.4,0-0.9,0.3-1.2
		c0.4,0,0.7,0,1.1,0.1c-0.4,0.5-0.1,1.2,0.3,1.5c0.5,0.3,1.2,0.2,1.7-0.1c0.6-0.4,1.4-1.1,1.9-0.6c0,0.4,0,0.8,0.1,1.1
		c0.1,0.1,0.3,0.1,0.5-0.1c0.6-1.1,0.5-2.5-0.2-3.6c-0.5-0.8-1.4-1.6-1.1-2.4c0.2-0.5,0.7-0.8,0.6-1.3"/>
	<path id="XMLID_51_" class="st1" d="M34.5,55.9c0.6,0.1,1.1-0.4,1.5-0.8c0.4-0.4,0.8-0.9,1.4-1.1c1.1-0.3,2.2,0.9,3.3,0.7
		c0.4-0.1,0.8-0.4,1.3-0.4c0.4,0,0.9,0.2,1.2,0.4c0.7,0.4,1.5,0.9,2.2,1.3c0.2,0.1,0.5,0.3,0.4,0.6c-0.1,0.3-0.5,0.4-0.8,0.3
		c-0.8-0.2-1.5-0.7-2.3-0.9c-0.9-0.3-1.9-0.2-2.9-0.1c-0.7,0-1.5,0-1.9-0.5c-0.1-0.1-0.1-0.1-0.2-0.2c-0.2-0.1-0.4,0-0.6,0.1
		c-0.7,0.4-1.5,0.5-2.4,0.5"/>
	<path id="XMLID_52_" class="st1" d="M34.7,56c0.8,0.6,2,0.7,3,0.9c2.1,0.3,4.3,0.5,6.4,0.6c0.4,0,0.9,0,1.2-0.2
		c-0.4,0.6-1.3,1-2.1,1.2c-0.9,0.1-1.7,0.1-2.6,0c-1.3-0.2-2.6-0.4-3.9-0.7c-0.5-0.1-1.1-0.3-1.6-0.6c-0.5-0.3-0.8-0.7-0.8-1.2"/>
	<path id="XMLID_62_" class="st1" d="M64.4,28.7c0.2-0.1,0.4-0.2,0.6-0.4c-0.5,2-1,4.1-1.4,6.1c-0.4,1.5-0.5,4.1-1.7,5.2
		c-0.7,0.6-1.5,1-2.2,1.5c0,0,0,0,0,0c0,0,0,0,0,0c-0.1-0.2-0.2-0.4-0.3-0.5"/>
	<path id="XMLID_43_" class="st1" d="M64.3,28.6c0.3-0.1,0.6-0.1,1-0.1c0.4-0.4,0.4-1.1,0.4-1.9c-0.8-2.3-2.3-4.6-3.4-6.8
		c-1.1-3-3.8-4.6-6.8-6.1c-0.4-0.4-0.8-0.8-1.1-1.1c-0.4-0.4-0.8-0.4-1.1-0.2c-5.3-1.3-11.4-0.5-16.7,0.8c0.4,0.1-0.2,0.5-0.5,0.6
		c-0.6,0.3-1.3,0.5-1.9,0.7c0-0.1,0.6-0.2,0,0c0.1,0.7-0.6,1.1-0.9,1.6c-0.4,0.1-0.8,0.2-1.3,0.3c0.2,0,0.4,0,0.6,0
		c-0.5,0.3-1.1,0.6-1.6,1c0.6-0.2-0.1,0.5-0.4,0.7c-0.5,0.4-1,0.8-1.6,1.1c0.3,0,0.5-0.1,0.8-0.1c-0.5,0.2-0.9,0.3-1.4,0.5
		c0.2,0.6-0.2,0.6-0.7,0.9c0.7,0.1-0.3,3.7-0.4,4.4c0.7,0,0.4,0.5,0.6,0.7c0.4,0.2,1.3,0,1.6-0.1c-0.5,0.3-0.4,0.1,0,0
		c-0.7,0.8-1.8,0.4-2.2-0.4c-0.8,2.7-1.1,5.7-1,8.8c0.1,1,0,1.9,0.2,2.8c0.1,0.4,0.2,0.8,0,1.1"/>
	<path id="XMLID_60_" class="st1" d="M34.9,22c-1,0.4-1.9,1.2-2.3,2.3c0.1-0.7,0.2-1.5,0.3-2.2c-2.4,1.2-2.8,4.8-3.3,7.1
		c-0.5,2.8-1.1,5.7-2.2,8.4c-0.1-0.3-0.3-0.6-0.4-0.9c0.1,0.4-0.1,0.4-0.2,0.7"/>
	<path id="XMLID_59_" class="st1" d="M41.2,20.9c-0.8,0.5-1.7,0.8-2.6,1c-0.9,0.2-2,0.1-2.8,0.5c-1.2,0.6-1.6,2.3-2.9,2.6
		c0.9-1.1,1.9-2.2,2.8-3.3c-0.1,0-0.1,0-0.2,0"/>
	<path id="XMLID_58_" class="st1" d="M57.7,26c-0.1,0.1-0.3,0.1-0.4,0.3c-0.3-0.4-0.5-0.8-0.8-1.3c-0.2,0.2-0.4,0.5-0.7,0.7
		c0.2-0.3,0.3-0.6,0.5-0.9c-0.5,0.2-0.9,0.4-1.4,0.6c0.4-0.4,0.7-0.9,1.1-1.3c-0.2,0.1-0.5,0.2-0.7,0.3c0.3-0.4,0.5-0.8,0.8-1.1
		c-0.5,1.3-1.8,0.7-2.9,0.7c0.3-0.3,0.5-0.7,0.8-1c-1.4,0.6-3.4,0.2-4.4,1.5c0-0.6,0.2-1.2,0.5-1.7c-3.1,1.4-5.9,3.2-8.5,5.4
		c1.7-1.8,3.3-3.5,5-5.3c-0.6,0.8-1.7,0-2.1,0.8l-0.4-0.4c-1.5,0-2.7,1.1-3.4,1.9c-1.1,1.5-2.7,2.3-4,3.3c2-1.3,4.3-2.9,5.1-5.3
		c-0.9,0.7-1.7,1.5-2.6,2.2c0.1-0.5,0.4-1,0.9-1.3c-0.3,0.2-0.6,0.4-1,0.5c1-1,1.9-2.3,2.4-3.7"/>
	<path id="XMLID_57_" class="st1" d="M59.3,40.6c-0.4-4.1,0.8-8.7,0.1-12.9c0,3-3.7,3.6-6,3.4c2.4-0.1,4.3-1.9,5.9-3.5
		c-1.6,1.5-3.9,2.3-6.1,2.1c2.1,0.1,4.3-0.9,5.6-2.5c-1.4,0.6-2.7,1.2-4.1,1.9c1.2-0.7,2.3-1.7,3.2-2.9"/>
	<path id="XMLID_55_" class="st1" d="M39.1,38.6c-0.3-0.7-0.7-1.4-1.2-2c-0.2-0.3-0.4-0.6-0.7-0.7c-0.3-0.1-0.5-0.1-0.8-0.2
		c-0.7-0.1-1.4-0.1-2.1,0c-0.7,0.1-1.4,0.4-1.8,1c-0.5,0.6-0.6,1.4-0.6,2.2c0,0.5,0,1,0.2,1.5c0.3,0.9,1.1,1.6,2,1.9
		s1.9,0.2,2.8-0.1c0.8-0.3,1.5-0.8,2-1.5s0.5-1.7,0.1-2.4"/>
	<path id="XMLID_56_" class="st1" d="M52.5,39.9c-0.3-0.7-0.7-1.4-1.2-2c-0.2-0.3-0.4-0.6-0.7-0.7C50.3,37.1,50,37,49.7,37
		c-0.7-0.1-1.4-0.1-2.1,0c-0.7,0.1-1.4,0.4-1.8,1c-0.5,0.6-0.6,1.4-0.6,2.2c0,0.5,0,1,0.2,1.5c0.3,0.9,1.1,1.6,2,1.9
		s1.9,0.2,2.8-0.1c0.8-0.3,1.5-0.8,2-1.5s0.5-1.7,0.1-2.4"/>
	<path id="XMLID_1_" class="st1" d="M28.6,25.8c-0.1,0-0.1,0-0.2,0c0-0.1,0-0.2,0-0.3c0,0-0.1,0-0.1,0.1c0,0,0.1,0.1,0.1,0
		c0,0-0.1,0-0.1,0.1c0-0.1,0-0.2,0-0.2c-0.1,0-0.2,0-0.2,0.1c0-0.2-0.1-0.4-0.3-0.6c0,0.1,0,0.3,0.1,0.4c-0.1,0-0.1-0.1-0.1-0.2
		c0,0.1,0,0.1,0,0.2c0-0.1,0-0.2,0-0.2c-0.1,0.1-0.1,0.3,0,0.4c0-0.1,0-0.2,0-0.3c0,0.1-0.1,0.1-0.1,0c0-0.1,0-0.1,0-0.2
		c0,0.1,0,0.2,0,0.3c0-0.1,0-0.2,0.1-0.3c0,0.1,0,0.3,0,0.4c0-0.1,0.1-0.3,0.1-0.4c0,0.2,0,0.5,0,0.7c0.1-0.1,0.2-0.3,0.3-0.4
		c0,0.2,0,0.3,0,0.5c0-0.2,0.1-0.3,0.3-0.4c-0.1,0.2-0.1,0.3-0.2,0.5c0-0.2,0.1-0.4,0.3-0.4c0,0.1,0,0.2,0,0.3c0-0.1,0-0.2,0.1-0.3
		c0,0.1,0,0.2,0,0.3c0.1,0,0.1-0.1,0.2-0.2c0,0.1,0,0.2-0.1,0.3c0-0.1,0.1-0.1,0.2-0.1c0,0.1,0,0.1,0,0.2c0-0.1,0.1-0.2,0.1-0.2
		c0,0.1,0,0.2-0.1,0.3c0.1-0.2,0.2-0.5,0.4-0.7c0,0.1-0.1,0.2-0.2,0.3c-0.1-0.1-0.3-0.1-0.4,0"/>
	<path id="XMLID_68_" class="st1" d="M35.7,39.7c-0.1-0.2-0.2-0.4-0.3-0.6"/>
	<path id="XMLID_69_" class="st1" d="M48.9,41c-0.1-0.2-0.2-0.4-0.3-0.6"/>
	<path id="XMLID_73_" class="st1" d="M39.4,68c-0.4,0.5,0,1.3,0.6,1.6s1.3,0.2,1.9,0"/>
	<path id="XMLID_74_" class="st1" d="M37.5,59.9c1.6-0.5,3.6,0.3,4.4,1.8"/>
</g>
</svg>
