<?xml version="1.0" encoding="utf-8"?>
<!-- Generator: Adobe Illustrator 19.0.0, SVG Export Plug-In . SVG Version: 6.00 Build 0)  -->
<svg version="1.1" id="Layer_1" xmlns="http://www.w3.org/2000/svg" xmlns:xlink="http://www.w3.org/1999/xlink" x="0px" y="0px"
	 viewBox="-155 279.4 283.5 283.5" style="enable-background:new -155 279.4 283.5 283.5;" xml:space="preserve">
<style type="text/css">
	.st0{fill:#FFFFFF;}
	.st1{fill:none;stroke:#B3B3B3;stroke-width:0.7845;stroke-miterlimit:10;}
	.st2{fill:none;stroke:#000000;stroke-width:1.1767;stroke-miterlimit:10;}
	.st3{fill:none;stroke:#C1272D;stroke-width:0.7845;stroke-miterlimit:10;}
	.st4{fill:none;stroke:#000000;stroke-width:2.5747;stroke-miterlimit:10;}
</style>
<g id="XMLID_4_">
	<circle id="XMLID_2_" class="st0" cx="-13.2" cy="421.1" r="141.7"/>
</g>
<g>
	<g id="XMLID_20_">
		<g id="XMLID_19_">
			<path id="XMLID_27_" class="st1" d="M-87.2,492.8c44.4,4.2,88.8,8.4,133.2,12.6"/>
			<path class="st1" d="M-84,478.8c44.4,4.2,88.8,8.4,133.2,12.6"/>
			<path class="st1" d="M-79.7,464.9c44.4,4.2,88.8,8.4,133.2,12.6"/>
			<path class="st1" d="M-77.6,450.7c44.4,4.2,88.8,8.4,133.2,12.6"/>
			<path class="st1" d="M-81.1,436.1c44.4,4.2,88.8,8.4,133.2,12.6"/>
			<path class="st1" d="M-85.3,421.3c44.4,4.2,88.8,8.4,133.2,12.6"/>
			<path class="st1" d="M-84,407.1c44.4,4.2,88.8,8.4,133.2,12.6"/>
			<path class="st1" d="M-77.1,393.4c44.4,4.2,88.8,8.4,133.2,12.6"/>
			<path class="st1" d="M-70.9,379.7c44.4,4.2,88.8,8.4,133.2,12.6"/>
			<path class="st1" d="M-70.3,365.4c44.4,4.2,88.8,8.4,133.2,12.6"/>
			<path class="st1" d="M-72,350.9c44.4,4.2,88.8,8.4,133.2,12.6"/>
			<path id="XMLID_22_" class="st1" d="M-72.4,336.5c44.4,4.2,88.8,8.4,133.2,12.6"/>
		</g>
	</g>
	<g id="XMLID_1_">
		<path class="st2" d="M-45.6,357.3c3.6,0.3,2.9,7.4,6.5,7.7c3.6,0.3,4.2-6.7,7.8-6.4c3.6,0.3,2.9,7.4,6.5,7.7
			c3.6,0.3,4.2-6.7,7.8-6.4c3.6,0.3,2.9,7.4,6.5,7.7c3.6,0.3,4.2-6.7,7.8-6.4c3.6,0.3,2.9,7.4,6.5,7.7c3.6,0.3,4.2-6.7,7.8-6.4
			c3.6,0.3,2.9,7.4,6.5,7.7c3.6,0.3,4.2-6.7,7.8-6.4c3.6,0.3,2.9,7.4,6.5,7.7"/>
	</g>
	<g id="XMLID_23_">
		<path class="st2" d="M-54.9,442.6c3.6,0.3,2.9,7.4,6.5,7.7c3.6,0.3,4.2-6.7,7.8-6.4c3.6,0.3,2.9,7.4,6.5,7.7
			c3.6,0.3,4.2-6.7,7.8-6.4c3.6,0.3,2.9,7.4,6.5,7.7c3.6,0.3,4.2-6.7,7.8-6.4c3.6,0.3,2.9,7.4,6.5,7.7c3.6,0.3,4.2-6.7,7.8-6.4
			c3.6,0.3,2.9,7.4,6.5,7.7c3.6,0.3,4.2-6.7,7.8-6.4c3.6,0.3,2.9,7.4,6.5,7.7"/>
	</g>
	<g id="XMLID_40_">
		<path class="st2" d="M-56.3,470.9c3.6,0.3,2.9,7.4,6.5,7.7c3.6,0.3,4.2-6.7,7.8-6.4c3.6,0.3,2.9,7.4,6.5,7.7
			c3.6,0.3,4.2-6.7,7.8-6.4c3.6,0.3,2.9,7.4,6.5,7.7c3.6,0.3,4.2-6.7,7.8-6.4c3.6,0.3,2.9,7.4,6.5,7.7c3.6,0.3,4.2-6.7,7.8-6.4
			c3.6,0.3,2.9,7.4,6.5,7.7c3.6,0.3,4.2-6.7,7.8-6.4c3.6,0.3,2.9,7.4,6.5,7.7"/>
	</g>
	<g id="XMLID_26_">
		<path class="st2" d="M-49.4,384.9c3.6,0.3,2.9,7.4,6.5,7.7c3.6,0.3,4.2-6.7,7.8-6.4c3.6,0.3,2.9,7.4,6.5,7.7
			c3.6,0.3,4.2-6.7,7.8-6.4c3.6,0.3,2.9,7.4,6.5,7.7c3.6,0.3,4.2-6.7,7.8-6.4c3.6,0.3,2.9,7.4,6.5,7.7c3.6,0.3,4.2-6.7,7.8-6.4
			c3.6,0.3,2.9,7.4,6.5,7.7c3.6,0.3,4.2-6.7,7.8-6.4s2.9,7.4,6.5,7.7"/>
	</g>
	<g id="XMLID_33_">
		<path class="st2" d="M-54.1,413.9c3.6,0.3,2.9,7.4,6.5,7.7c3.6,0.3,4.2-6.7,7.8-6.4c3.6,0.3,2.9,7.4,6.5,7.7
			c3.6,0.3,4.2-6.7,7.8-6.4c3.6,0.3,2.9,7.4,6.5,7.7c3.6,0.3,4.2-6.7,7.8-6.4c3.6,0.3,2.9,7.4,6.5,7.7c3.6,0.3,4.2-6.7,7.8-6.4
			c3.6,0.3,2.9,7.4,6.5,7.7c3.6,0.3,4.2-6.7,7.8-6.4c3.6,0.3,2.9,7.4,6.5,7.7"/>
	</g>
	<g id="XMLID_25_">
		<path id="XMLID_34_" class="st3" d="M-75.9,501.3c-2.1-0.2-3.6-2-3.2-4.1c3-14,10.4-28.7,9.2-43.3c-1.1-13.1-8.9-25.3-7.6-38.7
			c1.2-12.6,10.1-22.8,14-34.5c4.9-14.7,0.1-31.3-0.2-46.4c0-2.1,1.8-3.6,3.9-3.4"/>
	</g>
	<g id="XMLID_5_">
		<path id="XMLID_71_" class="st4" d="M41.5,512.1c-41.9-4-83.8-7.9-125.6-11.9c-2.1-0.2-3.6-2-3.2-4.1c3-14,10.4-28.7,9.2-43.3
			c-1.1-13.1-8.9-25.3-7.6-38.7c1.2-12.6,10.1-22.8,14-34.5c4.9-14.7,0.1-31.3-0.2-46.4c0-2.1,1.8-3.6,3.9-3.4
			c41.9,4,83.8,7.9,125.6,11.9c2.1,0.2,3.6,2,3.6,4.1c0.4,15.1,5.2,31.7,0.2,46.4c-3.9,11.7-12.8,21.9-14,34.5
			c-1.3,13.4,6.6,25.6,7.6,38.7c1.2,14.5-6.2,29.3-9.2,43.3C45.5,510.8,43.6,512.3,41.5,512.1z"/>
	</g>
</g>
</svg>
