<?xml version="1.0" encoding="utf-8"?>
<!-- Generator: Adobe Illustrator 19.0.0, SVG Export Plug-In . SVG Version: 6.00 Build 0)  -->
<svg version="1.1" id="Layer_1" xmlns="http://www.w3.org/2000/svg" xmlns:xlink="http://www.w3.org/1999/xlink" x="0px" y="0px"
	 viewBox="-369 243.5 283.5 283.5" style="enable-background:new -369 243.5 283.5 283.5;" xml:space="preserve">
<style type="text/css">
	.st0{fill:#FFFFFF;}
	.st1{fill:#EF5B50;stroke:#000000;stroke-width:2.1822;stroke-miterlimit:10;}
	.st2{fill:none;stroke:#000000;stroke-width:1.9849;stroke-miterlimit:10;}
	.st3{fill:#CCD2DC;stroke:#000000;stroke-width:1.9849;stroke-miterlimit:10;}
	.st4{fill:#D99E82;stroke:#000000;stroke-width:1.9849;stroke-linecap:round;stroke-linejoin:round;stroke-miterlimit:10;}
	.st5{stroke:#000000;stroke-width:1.9849;stroke-miterlimit:10;}
	.st6{fill:#FDCC4B;stroke:#000000;stroke-width:1.9849;stroke-linecap:round;stroke-linejoin:round;stroke-miterlimit:10;}
	.st7{fill:none;stroke:#000000;stroke-width:1.191;stroke-miterlimit:10;}
	.st8{fill:none;stroke:#000000;stroke-width:1.9849;stroke-linecap:round;stroke-miterlimit:10;}
</style>
<g>
	<g id="XMLID_4_">
		<circle id="XMLID_2_" class="st0" cx="-227.2" cy="385.2" r="141.7"/>
	</g>
	<path id="XMLID_18_" class="st1" d="M-299.5,296.1l-7.6,4.3c-3.2,1.8-4.3,5.8-2.5,9l1.7,3c1.8,3.2,5.8,4.3,9,2.5l7.6-4.3
		c3.2-1.8,4.3-5.8,2.5-9l-1.7-3C-292.3,295.5-296.3,294.3-299.5,296.1z"/>
	<line id="XMLID_17_" class="st2" x1="-237.9" y1="437.1" x2="-237.9" y2="437.1"/>
	<line id="XMLID_15_" class="st2" x1="-218.8" y1="426.4" x2="-218.8" y2="426.4"/>
	
		<rect id="XMLID_14_" x="-305" y="307.9" transform="matrix(0.8719 -0.4896 0.4896 0.8719 -191.7807 -103.6343)" class="st3" width="22" height="13.7"/>
	<polygon id="XMLID_13_" class="st4" points="-218.7,426.4 -219,448.4 -237.9,437.1 	"/>
	<polygon id="XMLID_12_" class="st5" points="-218.9,441.9 -219,448.4 -224.5,445.1 	"/>
	<path id="XMLID_9_" class="st6" d="M-250.3,370.3c7.9,14,1.1,17.8,9,31.8c7.9,14,14.6,10.3,22.5,24.3l-19.1,10.7
		c-7.9-14-14.6-10.2-22.5-24.3c-7.9-14-1.1-17.8-9-31.8c-7.9-14-14.6-10.2-22.5-24.3c-7.9-14-1.1-17.8-9-31.8l19.1-10.7
		c7.9,14,1.1,17.8,9,31.8C-264.9,360-258.1,356.2-250.3,370.3z"/>
	<path id="XMLID_8_" class="st7" d="M-294.2,321.1c7.9,14,1.1,17.8,9,31.8c7.9,14,14.6,10.2,22.5,24.3c7.9,14,1.1,17.8,9,31.8
		c7.9,14,14.6,10.2,22.5,24.3"/>
	<path id="XMLID_7_" class="st7" d="M-288,317.6c7.9,14,1.1,17.8,9,31.8c7.9,14,14.6,10.2,22.5,24.3c7.9,14,1.1,17.8,9,31.8
		c7.9,14,14.6,10.2,22.5,24.3"/>
	<path id="XMLID_19_" class="st8" d="M-218.9,446.4c2.4-0.2,4.6,2.3,6.8,1.4c0.6-0.3,1.1-0.8,1.6-1.2c2.7-2.1,6.7-0.9,9.6,1
		c0.8,0.5,1.7,1.1,2.7,1.2c2.8,0.2,4.3-3.6,7-4.1c2.9-0.6,5.8,2.8,8.5,1.7c0.8-0.3,1.4-1,2.1-1.3c2.4-1.2,5.2,0.5,6.9,2.6
		c2.1,2.6,3.3,6,3.3,9.3c-7.9,1.1-15.1-4.5-22.9-6.4c-11.2-2.8-22.7,1.9-33.7,5.5c-4.8,1.6-10.4,3-14.8,0.4c-2.5-1.4-4.2-4-6.7-5.4
		c-3-1.8-6.7-1.8-10.1-1.4c-5.1,0.7-10.1,2.2-14.7,4.6c-0.5,0.3-1,0.7-1.3,1.2c-1.5,2.3,1.1,4.5,3.4,5.6c4.4,2.3,9.5,4.4,14.2,2.7
		c2.9-1.1,5.1-3.5,7.6-5.4c5.9-4.5,13.6-5.8,20.9-6.9c8.6-1.4,17.9-2.7,25.8,1c3.3,1.5,6.1,3.9,9.5,5.3c3.3,1.5,7.5,1.9,10.4-0.3
		c1.4-1.1,2.5-2.8,4.3-3c1.7-0.2,3.2,0.9,4.4,2c-5.2,4.2-11.2,8.6-17.8,7.7c-3.2-0.4-6.1-2.1-9-3.5c-12.6-6-26.9-7.5-40.8-8.8
		c18,2.5,36.1,4.7,54.2,6.6c9.2,1,18.4,1.9,27.6,2.1c1,0,2,0,2.8-0.4c0.9-0.5,1.2-1.8,2.1-2.2c25.6-9.6-6.4-14-8.9-10.3
		c-1.3,2-1.5,4.6-3.2,6.3c-2.5,2.5-6.6,1.5-9.9,0.3c6.5-0.4,13-0.3,19.5,0.5c0.8,0.1,1.7,0.2,2.3,0.7c1.5,1.1,1.4,3.4,1.6,4.9
		c0.2,1.3-0.2,2.7-1,3.6c-1.2,1.3-2.4,1-3.6,0.5c-6.5-2.7-11.1-9.2-17.8-11.3c-3.3-1-6.9-0.9-10.3-0.6c-3.5,0.3-7,0.9-10.4,1.7
		c-2.8,0.7-5.7,1.5-7.9,3.3c-2.5,2-4.2,4.9-6.9,6.5c-3.2,1.8-7.1,1.4-10.6,0.7c-5.5-1-10.9-2.5-16.2-4.4c-1.2-0.4-2.4-0.9-3.3-1.7
		c-2.3-2.1-2.1-5.7-1.7-8.8c-5.6-0.1-11.2-0.2-16.7-0.3c-1.1,0-2.2,0-3.1,0.4c-1.9,0.9-2.6,3.3-3,5.4c6.8,2.7,14.5,0.3,21.7-0.9
		c12-2,24.3-0.6,36.4,0.7c2.5,0.3,5.2,0.7,6.5,3.2c1.1,2.1,0.7,4.5-0.7,6.4c-2.6,3.4-7.1,3.9-11.1,3.5c-8.7-0.9-16.8-5.8-21.8-13
		c-0.5-0.8-1-1.6-1-2.5c-0.1-1.8,1.7-3.2,3.4-3.8c1.7-0.6,3.6-0.9,5.1-1.9c-9.9-3.1-20.7,0.9-29.2,6.7c-1.4,1-2.9,2.1-3.4,3.7
		c-0.2,0.8-0.2,1.6,0.1,2.3c0.6,1.5,2,1.7,3.3,1.8c7.1,0.5,14.4-0.4,21.2-2.7c5.8-1.9,11.2-4.8,17-6.6c5.8-1.8,12.3-2.4,17.8,0.3
		c3.8,1.8,6.9,5.1,10.9,6.1"/>
</g>
</svg>
