<?xml version="1.0" encoding="utf-8"?>
<!-- Generator: Adobe Illustrator 19.0.0, SVG Export Plug-In . SVG Version: 6.00 Build 0)  -->
<svg version="1.1" id="Layer_1" xmlns="http://www.w3.org/2000/svg" xmlns:xlink="http://www.w3.org/1999/xlink" x="0px" y="0px"
	 viewBox="-369 243.5 283.5 283.5" style="enable-background:new -369 243.5 283.5 283.5;" xml:space="preserve">
<style type="text/css">
	.st0{opacity:0.5;fill:#FFFFFF;}
	.st1{stroke:#000000;stroke-width:10;stroke-miterlimit:10;}
</style>
<path class="st0" d="M-85.5,385.2c0-78.3-63.4-141.7-141.7-141.7S-369,307-369,385.2S-305.5,527-227.2,527c36,0,68.8-13.4,93.8-35.5
	c3.5,1.5,7.4,2.4,11.5,2.4c16.1,0,29.1-13,29.1-29.1c0-7-2.5-13.4-6.5-18.4C-90.5,427.9-85.5,407.1-85.5,385.2z"/>
<g id="XMLID_3_">
	<path d="M-227.2,522.5c-75.7,0-137.2-61.6-137.2-137.2c0-75.7,61.6-137.2,137.2-137.2C-151.6,248-90,309.6-90,385.2
		C-90,460.9-151.6,522.5-227.2,522.5z M-227.2,263c-67.4,0-122.2,54.8-122.2,122.2s54.8,122.2,122.2,122.2S-105,452.6-105,385.2
		S-159.9,263-227.2,263z"/>
</g>
<circle id="XMLID_5_" class="st1" cx="-227.5" cy="386.3" r="54.8"/>
<g id="XMLID_6_">
	<circle cx="-121.9" cy="464.7" r="19.6"/>
	<path d="M-121.9,489.4c-13.6,0-24.6-11-24.6-24.6s11-24.6,24.6-24.6s24.6,11.1,24.6,24.6S-108.4,489.4-121.9,489.4z M-121.9,450.1
		c-8.1,0-14.6,6.6-14.6,14.6c0,8.1,6.6,14.6,14.6,14.6c8.1,0,14.6-6.6,14.6-14.6C-107.3,456.7-113.9,450.1-121.9,450.1z"/>
</g>
</svg>
